M48
; DRILL file {KiCad (6.0.7)} date Tue Oct  4 16:49:03 2022
; FORMAT={-:-/ absolute / inch / decimal}
; #@! TF.CreationDate,2022-10-04T16:49:03-03:00
; #@! TF.GenerationSoftware,Kicad,Pcbnew,(6.0.7)
; #@! TF.FileFunction,Plated,1,2,PTH
FMAT,2
INCH
; #@! TA.AperFunction,Plated,PTH,ViaDrill
T1C0.0118
; #@! TA.AperFunction,Plated,PTH,ViaDrill
T2C0.0157
; #@! TA.AperFunction,Plated,PTH,ComponentDrill
T3C0.0197
; #@! TA.AperFunction,Plated,PTH,ComponentDrill
T4C0.0281
; #@! TA.AperFunction,Plated,PTH,ComponentDrill
T5C0.0315
; #@! TA.AperFunction,Plated,PTH,ComponentDrill
T6C0.0394
%
G90
G05
T1
X4.0387Y-5.16
X4.0398Y-4.56
X4.04Y-4.1587
X4.04Y-5.3
X4.1387Y-4.3588
X4.1397Y-3.1595
X4.14Y-3.5593
X4.14Y-4.76
X4.2392Y-3.78
X4.24Y-2.7594
X4.24Y-2.96
X4.24Y-3.32
X4.24Y-4.16
X4.24Y-4.5589
X4.25Y-5.5894
X4.3Y-3.86
X4.34Y-2.56
X4.38Y-5.5894
X4.42Y-2.7374
X4.42Y-3.1374
X4.445Y-3.805
X4.4797Y-3.44
X4.4831Y-3.68
X4.485Y-3.32
X4.485Y-3.56
X4.49Y-2.7596
X4.54Y-5.465
X4.565Y-3.805
X4.625Y-5.3574
X4.6391Y-2.5591
X4.6767Y-3.435
X4.6767Y-3.555
X4.6767Y-3.675
X4.6767Y-3.795
X4.72Y-5.1659
X4.74Y-2.7596
X4.77Y-5.24
X4.77Y-5.4
X4.775Y-5.095
X4.78Y-4.98
X4.82Y-5.1659
X4.84Y-3.04
X4.84Y-3.7599
X4.85Y-4.8202
X4.85Y-5.045
X4.88Y-5.02
X4.88Y-5.44
X4.8804Y-4.7202
X4.91Y-4.6202
X4.91Y-5.0
X4.935Y-5.16
X4.94Y-3.96
X4.94Y-4.5202
X4.94Y-4.98
X4.94Y-5.48
X4.96Y-2.92
X4.97Y-4.4202
X4.97Y-4.96
X4.99Y-5.4
X4.996Y-5.243
X5.0Y-4.3202
X5.0Y-4.94
X5.03Y-4.2202
X5.03Y-4.92
X5.04Y-3.76
X5.05Y-5.4
X5.07Y-4.1202
X5.07Y-4.9
X5.095Y-5.2
X5.0974Y-2.97
X5.1238Y-4.7712
X5.13Y-4.505
X5.135Y-4.315
X5.18Y-5.455
X5.1888Y-3.166
X5.19Y-5.34
X5.1944Y-2.566
X5.195Y-4.6352
X5.22Y-4.11
X5.233Y-4.68
X5.24Y-2.56
X5.25Y-4.835
X5.25Y-5.16
X5.265Y-3.15
X5.295Y-3.74
X5.305Y-5.2
X5.31Y-4.395
X5.32Y-2.92
X5.325Y-4.49
X5.3388Y-3.9593
X5.35Y-4.9
X5.3574Y-4.6302
X5.385Y-4.865
X5.385Y-5.32
X5.385Y-5.42
X5.395Y-4.185
X5.395Y-5.52
X5.4591Y-3.74
X5.46Y-5.28
X5.46Y-5.38
X5.46Y-5.47
X5.465Y-4.105
X5.485Y-4.77
X5.4874Y-3.96
X5.5Y-2.94
X5.515Y-3.16
X5.515Y-3.29
X5.515Y-5.175
X5.539Y-4.542
X5.54Y-2.56
X5.54Y-2.7348
X5.55Y-4.77
X5.6Y-4.06
X5.6024Y-4.75
X5.64Y-5.24
X5.64Y-5.32
X5.64Y-5.4
X5.645Y-4.275
X5.645Y-4.898
X5.675Y-4.16
X5.68Y-3.02
X5.695Y-4.898
X5.72Y-5.16
X5.73Y-4.02
X5.7324Y-4.0974
X5.7324Y-4.2366
X5.75Y-4.712
X5.76Y-3.965
X5.78Y-4.56
X5.785Y-4.325
X5.7856Y-3.146
X5.7856Y-3.264
X5.7974Y-4.9
X5.8135Y-5.3359
X5.8199Y-4.59
X5.82Y-5.4041
X5.8317Y-4.16
X5.8395Y-2.5591
X5.8514Y-4.315
X5.855Y-4.015
X5.88Y-5.52
X5.8908Y-4.315
X5.9Y-3.8
X5.92Y-3.32
X5.92Y-3.495
X5.94Y-2.96
X5.94Y-5.2641
X5.9459Y-4.315
X5.97Y-5.205
X5.97Y-5.295
X5.98Y-4.56
X6.02Y-3.32
X6.02Y-3.495
X6.025Y-5.1
X6.045Y-4.315
X6.0483Y-4.065
X6.05Y-3.84
X6.0674Y-5.045
X6.068Y-4.59
X6.07Y-4.9
X6.07Y-4.99
X6.0726Y-4.4
X6.1Y-4.01
X6.105Y-4.42
X6.106Y-5.345
X6.11Y-5.245
X6.12Y-3.32
X6.12Y-3.495
X6.135Y-3.785
X6.1396Y-2.56
X6.14Y-3.905
X6.14Y-4.27
X6.14Y-4.72
X6.145Y-5.105
X6.1476Y-5.16
X6.17Y-3.935
X6.19Y-2.76
X6.205Y-4.02
X6.215Y-3.785
X6.22Y-3.32
X6.22Y-3.495
X6.22Y-3.905
X6.2226Y-4.74
X6.26Y-4.2374
X6.26Y-4.84
X6.265Y-4.315
X6.27Y-3.495
X6.295Y-5.445
X6.31Y-5.185
X6.31Y-5.245
X6.32Y-3.32
X6.32Y-3.495
X6.335Y-3.045
X6.34Y-3.265
X6.35Y-4.21
X6.355Y-4.685
X6.38Y-5.2207
X6.38Y-5.52
X6.42Y-3.32
X6.42Y-3.495
X6.43Y-4.31
X6.43Y-4.685
X6.44Y-2.56
X6.46Y-3.625
X6.475Y-4.115
X6.505Y-3.745
X6.52Y-3.32
X6.52Y-3.71
X6.535Y-3.775
X6.54Y-2.96
X6.54Y-4.005
X6.6Y-4.75
X6.6Y-4.86
X6.6Y-5.0
X6.615Y-2.85
X6.64Y-3.81
X6.645Y-3.335
X6.68Y-3.195
X6.685Y-3.4
X6.72Y-3.81
X6.74Y-2.56
X6.795Y-5.18
X6.84Y-2.76
X6.885Y-4.22
X6.885Y-5.295
X6.94Y-5.2
X7.04Y-2.5591
X7.04Y-2.92
X7.05Y-3.185
X7.075Y-3.4
X7.075Y-5.42
X7.095Y-3.61
X7.1Y-5.095
X7.105Y-3.96
X7.105Y-4.16
X7.105Y-4.4
X7.12Y-2.9353
X7.12Y-3.175
X7.12Y-3.415
X7.12Y-3.655
X7.125Y-5.29
X7.14Y-2.76
X7.18Y-4.3
X7.18Y-4.52
X7.24Y-3.96
X7.24Y-4.16
X7.3Y-3.0
X7.3Y-3.24
X7.3Y-3.48
X7.3Y-3.72
X7.315Y-4.845
X7.34Y-2.5591
X7.34Y-4.4
X7.375Y-5.41
X7.3841Y-3.9
X7.3841Y-4.12
X7.445Y-5.29
X7.485Y-5.12
X7.49Y-3.5387
X7.49Y-4.355
X7.51Y-3.91
X7.54Y-2.7592
X7.5501Y-3.1394
X7.59Y-4.625
X7.6Y-4.355
X7.6501Y-2.9446
X7.6501Y-3.3394
X7.6501Y-5.3294
X7.66Y-3.68
X7.665Y-4.46
X7.665Y-4.625
X7.695Y-4.355
X7.7Y-4.24
X7.705Y-3.78
X7.735Y-4.625
X7.75Y-4.735
X7.8Y-3.92
X7.8Y-4.08
X7.8201Y-5.2394
X7.84Y-4.36
T2
X7.4894Y-4.58
X7.4894Y-4.62
X7.4894Y-4.66
X7.5Y-4.12
X7.5Y-4.16
X7.5426Y-5.28
X7.5426Y-5.32
X7.5426Y-5.36
T3
X5.3026Y-4.2375
X5.3774Y-4.2375
T4
X4.56Y-2.6
X4.56Y-2.8
X4.56Y-3.0
X4.56Y-3.2
X4.66Y-2.7
X4.66Y-3.1
T5
X5.2435Y-4.4108
X5.4357Y-4.4108
T6
X4.4898Y-3.9698
X4.4898Y-4.0698
X4.4898Y-4.1698
X4.4898Y-4.2698
X4.4898Y-4.3698
X4.4898Y-4.4698
X4.4898Y-4.5698
X4.4898Y-4.6698
X4.4898Y-4.7698
X4.4898Y-4.8698
X4.4898Y-4.9698
X4.4898Y-5.0698
X4.49Y-5.2698
X4.49Y-5.3698
X4.5898Y-3.9698
X4.5898Y-4.0698
X4.5898Y-4.1698
X4.5898Y-4.2698
X4.5898Y-4.3698
X4.5898Y-4.4698
X4.5898Y-4.5698
X4.5898Y-4.6698
X4.5898Y-4.7698
X4.5898Y-4.8698
X4.5898Y-4.9698
X4.5898Y-5.0698
X5.02Y-2.6702
X5.02Y-2.7702
X5.02Y-3.0702
X5.02Y-3.1702
X5.74Y-2.62
X5.74Y-2.72
X5.74Y-3.5098
X5.74Y-3.6098
X6.6496Y-3.56
X6.7496Y-3.56
X6.7498Y-3.9698
X6.7498Y-4.0698
X6.7498Y-4.1698
X6.7498Y-4.2698
X6.7498Y-4.3698
X6.7498Y-4.4698
X6.7498Y-4.5698
X6.7498Y-4.6698
X6.7498Y-4.7698
X6.7498Y-4.8698
X6.7498Y-4.9698
X6.7498Y-5.0698
X6.8496Y-3.56
X6.8498Y-3.9698
X6.8498Y-4.0698
X6.8498Y-4.1698
X6.8498Y-4.2698
X6.8498Y-4.3698
X6.8498Y-4.4698
X6.8498Y-4.5698
X6.8498Y-4.6698
X6.8498Y-4.7698
X6.8498Y-4.8698
X6.8498Y-4.9698
X6.8498Y-5.0698
X6.94Y-2.62
X6.94Y-2.72
X6.9496Y-3.56
T0
M30
