%TF.GenerationSoftware,KiCad,Pcbnew,(6.0.7)*%
%TF.CreationDate,2022-10-04T16:49:08-03:00*%
%TF.ProjectId,Placa_Desenvolvimento_NuttX,506c6163-615f-4446-9573-656e766f6c76,rev?*%
%TF.SameCoordinates,Original*%
%TF.FileFunction,Legend,Bot*%
%TF.FilePolarity,Positive*%
%FSLAX46Y46*%
G04 Gerber Fmt 4.6, Leading zero omitted, Abs format (unit mm)*
G04 Created by KiCad (PCBNEW (6.0.7)) date 2022-10-04 16:49:08*
%MOMM*%
%LPD*%
G01*
G04 APERTURE LIST*
%ADD10C,0.150000*%
%ADD11C,0.200000*%
%ADD12C,0.300000*%
%ADD13C,0.120000*%
G04 APERTURE END LIST*
D10*
X131376000Y-99504000D02*
X131376000Y-130104000D01*
X170053000Y-122428000D02*
X158496000Y-122428000D01*
X152146000Y-132588000D02*
X152146000Y-140589000D01*
X112649000Y-117348000D02*
X100584000Y-117348000D01*
X117983000Y-127508000D02*
X131318000Y-127508000D01*
X170053000Y-107188000D02*
X158496000Y-107188000D01*
X117983000Y-122428000D02*
X131318000Y-122428000D01*
X137795000Y-132588000D02*
X152146000Y-132588000D01*
X179832000Y-107188000D02*
X187198000Y-107188000D01*
X175387000Y-112268000D02*
X187198000Y-112268000D01*
X117983000Y-117348000D02*
X131318000Y-117348000D01*
X117983000Y-114804000D02*
X131318000Y-114804000D01*
X117906000Y-130104000D02*
X131376000Y-130104000D01*
X175387000Y-119888000D02*
X187198000Y-119888000D01*
X170053000Y-117348000D02*
X158496000Y-117348000D01*
X170053000Y-112268000D02*
X158496000Y-112268000D01*
X175387000Y-122428000D02*
X187198000Y-122428000D01*
X137795000Y-140589000D02*
X137795000Y-132588000D01*
X117983000Y-102108000D02*
X131318000Y-102108000D01*
X117983000Y-104648000D02*
X131318000Y-104648000D01*
X175387000Y-127508000D02*
X187198000Y-127508000D01*
X152146000Y-140589000D02*
X137795000Y-140589000D01*
X170116000Y-99503000D02*
X158496000Y-99503000D01*
X170053000Y-104648000D02*
X158496000Y-104648000D01*
X175387000Y-109728000D02*
X187198000Y-109728000D01*
X170053000Y-119888000D02*
X158496000Y-119888000D01*
X179832000Y-104648000D02*
X175387000Y-104648000D01*
X179832000Y-107188000D02*
X175387000Y-107188000D01*
X112649000Y-109728000D02*
X100584000Y-109728000D01*
X117983000Y-107188000D02*
X131318000Y-107188000D01*
X170053000Y-127508000D02*
X158496000Y-127508000D01*
X112716000Y-130104000D02*
X100584000Y-130104000D01*
X179832000Y-99503000D02*
X179832000Y-107188000D01*
X175387000Y-124968000D02*
X187198000Y-124968000D01*
X175316000Y-130103000D02*
X187198000Y-130103000D01*
X158496000Y-99503000D02*
X158496000Y-130103000D01*
X112649000Y-112268000D02*
X100584000Y-112268000D01*
X117983000Y-119888000D02*
X131318000Y-119888000D01*
X117983000Y-112268000D02*
X131318000Y-112268000D01*
X175387000Y-114803000D02*
X187198000Y-114803000D01*
X112649000Y-127508000D02*
X100584000Y-127508000D01*
X117983000Y-124968000D02*
X131318000Y-124968000D01*
X112649000Y-102108000D02*
X100584000Y-102108000D01*
X187198000Y-107188000D02*
X187198000Y-130103000D01*
X100584000Y-130104000D02*
X100584000Y-99504000D01*
X170053000Y-109728000D02*
X158496000Y-109728000D01*
X179832000Y-99503000D02*
X175316000Y-99503000D01*
X112716000Y-99504000D02*
X100584000Y-99504000D01*
X112716000Y-130104000D02*
X112716000Y-99504000D01*
X112649000Y-104648000D02*
X100584000Y-104648000D01*
X179832000Y-102108000D02*
X175387000Y-102108000D01*
X112649000Y-114804000D02*
X100584000Y-114804000D01*
X112649000Y-107188000D02*
X100584000Y-107188000D01*
X170053000Y-124968000D02*
X158496000Y-124968000D01*
X170116000Y-130103000D02*
X158496000Y-130103000D01*
X117983000Y-109728000D02*
X131318000Y-109728000D01*
X170116000Y-130103000D02*
X170116000Y-99503000D01*
X112649000Y-119888000D02*
X100584000Y-119888000D01*
X170053000Y-114808000D02*
X158496000Y-114808000D01*
X170053000Y-102108000D02*
X158496000Y-102108000D01*
X112649000Y-124968000D02*
X100584000Y-124968000D01*
X175387000Y-117348000D02*
X187198000Y-117348000D01*
X117906000Y-99504000D02*
X131376000Y-99504000D01*
X175316000Y-130103000D02*
X175316000Y-99503000D01*
X117906000Y-130104000D02*
X117906000Y-99504000D01*
X112649000Y-122428000D02*
X100584000Y-122428000D01*
X169758666Y-124145380D02*
X169758666Y-123145380D01*
X169377714Y-123145380D01*
X169282476Y-123193000D01*
X169234857Y-123240619D01*
X169187238Y-123335857D01*
X169187238Y-123478714D01*
X169234857Y-123573952D01*
X169282476Y-123621571D01*
X169377714Y-123669190D01*
X169758666Y-123669190D01*
X168425333Y-123621571D02*
X168282476Y-123669190D01*
X168234857Y-123716809D01*
X168187238Y-123812047D01*
X168187238Y-123954904D01*
X168234857Y-124050142D01*
X168282476Y-124097761D01*
X168377714Y-124145380D01*
X168758666Y-124145380D01*
X168758666Y-123145380D01*
X168425333Y-123145380D01*
X168330095Y-123193000D01*
X168282476Y-123240619D01*
X168234857Y-123335857D01*
X168234857Y-123431095D01*
X168282476Y-123526333D01*
X168330095Y-123573952D01*
X168425333Y-123621571D01*
X168758666Y-123621571D01*
X167234857Y-124145380D02*
X167806285Y-124145380D01*
X167520571Y-124145380D02*
X167520571Y-123145380D01*
X167615809Y-123288238D01*
X167711047Y-123383476D01*
X167806285Y-123431095D01*
X166330095Y-123145380D02*
X166806285Y-123145380D01*
X166853905Y-123621571D01*
X166806285Y-123573952D01*
X166711047Y-123526333D01*
X166472952Y-123526333D01*
X166377714Y-123573952D01*
X166330095Y-123621571D01*
X166282476Y-123716809D01*
X166282476Y-123954904D01*
X166330095Y-124050142D01*
X166377714Y-124097761D01*
X166472952Y-124145380D01*
X166711047Y-124145380D01*
X166806285Y-124097761D01*
X166853905Y-124050142D01*
X165139619Y-123097761D02*
X165996762Y-124383476D01*
X164853905Y-124097761D02*
X164711047Y-124145380D01*
X164472952Y-124145380D01*
X164377714Y-124097761D01*
X164330095Y-124050142D01*
X164282476Y-123954904D01*
X164282476Y-123859666D01*
X164330095Y-123764428D01*
X164377714Y-123716809D01*
X164472952Y-123669190D01*
X164663428Y-123621571D01*
X164758666Y-123573952D01*
X164806285Y-123526333D01*
X164853905Y-123431095D01*
X164853905Y-123335857D01*
X164806285Y-123240619D01*
X164758666Y-123193000D01*
X164663428Y-123145380D01*
X164425333Y-123145380D01*
X164282476Y-123193000D01*
X163949143Y-123145380D02*
X163711047Y-124145380D01*
X163520571Y-123431095D01*
X163330095Y-124145380D01*
X163092000Y-123145380D01*
X162711047Y-124145380D02*
X162711047Y-123145380D01*
X162044381Y-123145380D02*
X161853905Y-123145380D01*
X161758666Y-123193000D01*
X161663428Y-123288238D01*
X161615809Y-123478714D01*
X161615809Y-123812047D01*
X161663428Y-124002523D01*
X161758666Y-124097761D01*
X161853905Y-124145380D01*
X162044381Y-124145380D01*
X162139619Y-124097761D01*
X162234857Y-124002523D01*
X162282476Y-123812047D01*
X162282476Y-123478714D01*
X162234857Y-123288238D01*
X162139619Y-123193000D01*
X162044381Y-123145380D01*
X161425333Y-124240619D02*
X160663428Y-124240619D01*
X160520571Y-123145380D02*
X159901524Y-123145380D01*
X160234857Y-123526333D01*
X160092000Y-123526333D01*
X159996762Y-123573952D01*
X159949143Y-123621571D01*
X159901524Y-123716809D01*
X159901524Y-123954904D01*
X159949143Y-124050142D01*
X159996762Y-124097761D01*
X160092000Y-124145380D01*
X160377714Y-124145380D01*
X160472952Y-124097761D01*
X160520571Y-124050142D01*
X112283714Y-111445380D02*
X112283714Y-110445380D01*
X111902762Y-110445380D01*
X111807524Y-110493000D01*
X111759905Y-110540619D01*
X111712286Y-110635857D01*
X111712286Y-110778714D01*
X111759905Y-110873952D01*
X111807524Y-110921571D01*
X111902762Y-110969190D01*
X112283714Y-110969190D01*
X111331333Y-111159666D02*
X110855143Y-111159666D01*
X111426571Y-111445380D02*
X111093238Y-110445380D01*
X110759905Y-111445380D01*
X110521809Y-110445380D02*
X109855143Y-110445380D01*
X110283714Y-111445380D01*
X171035238Y-96749904D02*
X170987619Y-96607047D01*
X170987619Y-96368952D01*
X171035238Y-96273714D01*
X171082857Y-96226095D01*
X171178095Y-96178476D01*
X171273333Y-96178476D01*
X171368571Y-96226095D01*
X171416190Y-96273714D01*
X171463809Y-96368952D01*
X171511428Y-96559428D01*
X171559047Y-96654666D01*
X171606666Y-96702285D01*
X171701904Y-96749904D01*
X171797142Y-96749904D01*
X171892380Y-96702285D01*
X171940000Y-96654666D01*
X171987619Y-96559428D01*
X171987619Y-96321333D01*
X171940000Y-96178476D01*
X171987619Y-95845142D02*
X170987619Y-95607047D01*
X171701904Y-95416571D01*
X170987619Y-95226095D01*
X171987619Y-94988000D01*
X171082857Y-94035619D02*
X171035238Y-94083238D01*
X170987619Y-94226095D01*
X170987619Y-94321333D01*
X171035238Y-94464190D01*
X171130476Y-94559428D01*
X171225714Y-94607047D01*
X171416190Y-94654666D01*
X171559047Y-94654666D01*
X171749523Y-94607047D01*
X171844761Y-94559428D01*
X171940000Y-94464190D01*
X171987619Y-94321333D01*
X171987619Y-94226095D01*
X171940000Y-94083238D01*
X171892380Y-94035619D01*
X170987619Y-93130857D02*
X170987619Y-93607047D01*
X171987619Y-93607047D01*
X170987619Y-92797523D02*
X171987619Y-92797523D01*
X170987619Y-92226095D02*
X171559047Y-92654666D01*
X171987619Y-92226095D02*
X171416190Y-92797523D01*
X125824476Y-111445380D02*
X126300666Y-111445380D01*
X126300666Y-110445380D01*
X125491142Y-110921571D02*
X125157809Y-110921571D01*
X125014952Y-111445380D02*
X125491142Y-111445380D01*
X125491142Y-110445380D01*
X125014952Y-110445380D01*
X124586380Y-111445380D02*
X124586380Y-110445380D01*
X124348285Y-110445380D01*
X124205428Y-110493000D01*
X124110190Y-110588238D01*
X124062571Y-110683476D01*
X124014952Y-110873952D01*
X124014952Y-111016809D01*
X124062571Y-111207285D01*
X124110190Y-111302523D01*
X124205428Y-111397761D01*
X124348285Y-111445380D01*
X124586380Y-111445380D01*
X123824476Y-111540619D02*
X123062571Y-111540619D01*
X122919714Y-110445380D02*
X122300666Y-110445380D01*
X122633999Y-110826333D01*
X122491142Y-110826333D01*
X122395904Y-110873952D01*
X122348285Y-110921571D01*
X122300666Y-111016809D01*
X122300666Y-111254904D01*
X122348285Y-111350142D01*
X122395904Y-111397761D01*
X122491142Y-111445380D01*
X122776856Y-111445380D01*
X122872095Y-111397761D01*
X122919714Y-111350142D01*
X121157809Y-110397761D02*
X122014952Y-111683476D01*
X120824476Y-111445380D02*
X120824476Y-110445380D01*
X120443523Y-110445380D01*
X120348285Y-110493000D01*
X120300666Y-110540619D01*
X120253047Y-110635857D01*
X120253047Y-110778714D01*
X120300666Y-110873952D01*
X120348285Y-110921571D01*
X120443523Y-110969190D01*
X120824476Y-110969190D01*
X119253047Y-111350142D02*
X119300666Y-111397761D01*
X119443523Y-111445380D01*
X119538761Y-111445380D01*
X119681618Y-111397761D01*
X119776856Y-111302523D01*
X119824476Y-111207285D01*
X119872095Y-111016809D01*
X119872095Y-110873952D01*
X119824476Y-110683476D01*
X119776856Y-110588238D01*
X119681618Y-110493000D01*
X119538761Y-110445380D01*
X119443523Y-110445380D01*
X119300666Y-110493000D01*
X119253047Y-110540619D01*
X118872095Y-110540619D02*
X118824476Y-110493000D01*
X118729237Y-110445380D01*
X118491142Y-110445380D01*
X118395904Y-110493000D01*
X118348285Y-110540619D01*
X118300666Y-110635857D01*
X118300666Y-110731095D01*
X118348285Y-110873952D01*
X118919714Y-111445380D01*
X118300666Y-111445380D01*
X169758666Y-103825380D02*
X169758666Y-102825380D01*
X169377714Y-102825380D01*
X169282476Y-102873000D01*
X169234857Y-102920619D01*
X169187238Y-103015857D01*
X169187238Y-103158714D01*
X169234857Y-103253952D01*
X169282476Y-103301571D01*
X169377714Y-103349190D01*
X169758666Y-103349190D01*
X168806285Y-103539666D02*
X168330095Y-103539666D01*
X168901523Y-103825380D02*
X168568190Y-102825380D01*
X168234857Y-103825380D01*
X167377714Y-103825380D02*
X167949142Y-103825380D01*
X167663428Y-103825380D02*
X167663428Y-102825380D01*
X167758666Y-102968238D01*
X167853904Y-103063476D01*
X167949142Y-103111095D01*
X166425333Y-103825380D02*
X166996761Y-103825380D01*
X166711047Y-103825380D02*
X166711047Y-102825380D01*
X166806285Y-102968238D01*
X166901523Y-103063476D01*
X166996761Y-103111095D01*
X165282476Y-102777761D02*
X166139619Y-104063476D01*
X164949142Y-102825380D02*
X164949142Y-103634904D01*
X164901523Y-103730142D01*
X164853904Y-103777761D01*
X164758666Y-103825380D01*
X164568190Y-103825380D01*
X164472952Y-103777761D01*
X164425333Y-103730142D01*
X164377714Y-103634904D01*
X164377714Y-102825380D01*
X163949142Y-103777761D02*
X163806285Y-103825380D01*
X163568190Y-103825380D01*
X163472952Y-103777761D01*
X163425333Y-103730142D01*
X163377714Y-103634904D01*
X163377714Y-103539666D01*
X163425333Y-103444428D01*
X163472952Y-103396809D01*
X163568190Y-103349190D01*
X163758666Y-103301571D01*
X163853904Y-103253952D01*
X163901523Y-103206333D01*
X163949142Y-103111095D01*
X163949142Y-103015857D01*
X163901523Y-102920619D01*
X163853904Y-102873000D01*
X163758666Y-102825380D01*
X163520571Y-102825380D01*
X163377714Y-102873000D01*
X162615809Y-103301571D02*
X162472952Y-103349190D01*
X162425333Y-103396809D01*
X162377714Y-103492047D01*
X162377714Y-103634904D01*
X162425333Y-103730142D01*
X162472952Y-103777761D01*
X162568190Y-103825380D01*
X162949142Y-103825380D01*
X162949142Y-102825380D01*
X162615809Y-102825380D01*
X162520571Y-102873000D01*
X162472952Y-102920619D01*
X162425333Y-103015857D01*
X162425333Y-103111095D01*
X162472952Y-103206333D01*
X162520571Y-103253952D01*
X162615809Y-103301571D01*
X162949142Y-103301571D01*
X162187238Y-103920619D02*
X161425333Y-103920619D01*
X161187238Y-103825380D02*
X161187238Y-102825380D01*
X160949142Y-102825380D01*
X160806285Y-102873000D01*
X160711047Y-102968238D01*
X160663428Y-103063476D01*
X160615809Y-103253952D01*
X160615809Y-103396809D01*
X160663428Y-103587285D01*
X160711047Y-103682523D01*
X160806285Y-103777761D01*
X160949142Y-103825380D01*
X161187238Y-103825380D01*
X160187238Y-103444428D02*
X159425333Y-103444428D01*
X185411047Y-111397761D02*
X185268190Y-111445380D01*
X185030095Y-111445380D01*
X184934857Y-111397761D01*
X184887238Y-111350142D01*
X184839619Y-111254904D01*
X184839619Y-111159666D01*
X184887238Y-111064428D01*
X184934857Y-111016809D01*
X185030095Y-110969190D01*
X185220571Y-110921571D01*
X185315809Y-110873952D01*
X185363428Y-110826333D01*
X185411047Y-110731095D01*
X185411047Y-110635857D01*
X185363428Y-110540619D01*
X185315809Y-110493000D01*
X185220571Y-110445380D01*
X184982476Y-110445380D01*
X184839619Y-110493000D01*
X184411047Y-111445380D02*
X184411047Y-110445380D01*
X184172952Y-110445380D01*
X184030095Y-110493000D01*
X183934857Y-110588238D01*
X183887238Y-110683476D01*
X183839619Y-110873952D01*
X183839619Y-111016809D01*
X183887238Y-111207285D01*
X183934857Y-111302523D01*
X184030095Y-111397761D01*
X184172952Y-111445380D01*
X184411047Y-111445380D01*
X183411047Y-111445380D02*
X183411047Y-110445380D01*
X182744381Y-110445380D02*
X182553905Y-110445380D01*
X182458666Y-110493000D01*
X182363428Y-110588238D01*
X182315809Y-110778714D01*
X182315809Y-111112047D01*
X182363428Y-111302523D01*
X182458666Y-111397761D01*
X182553905Y-111445380D01*
X182744381Y-111445380D01*
X182839619Y-111397761D01*
X182934857Y-111302523D01*
X182982476Y-111112047D01*
X182982476Y-110778714D01*
X182934857Y-110588238D01*
X182839619Y-110493000D01*
X182744381Y-110445380D01*
X182125333Y-111540619D02*
X181363428Y-111540619D01*
X181125333Y-111445380D02*
X181125333Y-110445380D01*
X180887238Y-110445380D01*
X180744381Y-110493000D01*
X180649143Y-110588238D01*
X180601524Y-110683476D01*
X180553905Y-110873952D01*
X180553905Y-111016809D01*
X180601524Y-111207285D01*
X180649143Y-111302523D01*
X180744381Y-111397761D01*
X180887238Y-111445380D01*
X181125333Y-111445380D01*
X179601524Y-111445380D02*
X180172952Y-111445380D01*
X179887238Y-111445380D02*
X179887238Y-110445380D01*
X179982476Y-110588238D01*
X180077714Y-110683476D01*
X180172952Y-110731095D01*
X178458666Y-110397761D02*
X179315809Y-111683476D01*
X178125333Y-111445380D02*
X178125333Y-110445380D01*
X177744381Y-110445380D01*
X177649143Y-110493000D01*
X177601524Y-110540619D01*
X177553905Y-110635857D01*
X177553905Y-110778714D01*
X177601524Y-110873952D01*
X177649143Y-110921571D01*
X177744381Y-110969190D01*
X178125333Y-110969190D01*
X176553905Y-111350142D02*
X176601524Y-111397761D01*
X176744381Y-111445380D01*
X176839619Y-111445380D01*
X176982476Y-111397761D01*
X177077714Y-111302523D01*
X177125333Y-111207285D01*
X177172952Y-111016809D01*
X177172952Y-110873952D01*
X177125333Y-110683476D01*
X177077714Y-110588238D01*
X176982476Y-110493000D01*
X176839619Y-110445380D01*
X176744381Y-110445380D01*
X176601524Y-110493000D01*
X176553905Y-110540619D01*
X176077714Y-111445380D02*
X175887238Y-111445380D01*
X175792000Y-111397761D01*
X175744381Y-111350142D01*
X175649143Y-111207285D01*
X175601524Y-111016809D01*
X175601524Y-110635857D01*
X175649143Y-110540619D01*
X175696762Y-110493000D01*
X175792000Y-110445380D01*
X175982476Y-110445380D01*
X176077714Y-110493000D01*
X176125333Y-110540619D01*
X176172952Y-110635857D01*
X176172952Y-110873952D01*
X176125333Y-110969190D01*
X176077714Y-111016809D01*
X175982476Y-111064428D01*
X175792000Y-111064428D01*
X175696762Y-111016809D01*
X175649143Y-110969190D01*
X175601524Y-110873952D01*
X112283714Y-124145380D02*
X112283714Y-123145380D01*
X111902761Y-123145380D01*
X111807523Y-123193000D01*
X111759904Y-123240619D01*
X111712285Y-123335857D01*
X111712285Y-123478714D01*
X111759904Y-123573952D01*
X111807523Y-123621571D01*
X111902761Y-123669190D01*
X112283714Y-123669190D01*
X110950380Y-123621571D02*
X110807523Y-123669190D01*
X110759904Y-123716809D01*
X110712285Y-123812047D01*
X110712285Y-123954904D01*
X110759904Y-124050142D01*
X110807523Y-124097761D01*
X110902761Y-124145380D01*
X111283714Y-124145380D01*
X111283714Y-123145380D01*
X110950380Y-123145380D01*
X110855142Y-123193000D01*
X110807523Y-123240619D01*
X110759904Y-123335857D01*
X110759904Y-123431095D01*
X110807523Y-123526333D01*
X110855142Y-123573952D01*
X110950380Y-123621571D01*
X111283714Y-123621571D01*
X110331333Y-123240619D02*
X110283714Y-123193000D01*
X110188476Y-123145380D01*
X109950380Y-123145380D01*
X109855142Y-123193000D01*
X109807523Y-123240619D01*
X109759904Y-123335857D01*
X109759904Y-123431095D01*
X109807523Y-123573952D01*
X110378952Y-124145380D01*
X109759904Y-124145380D01*
X169758666Y-121605380D02*
X169758666Y-120605380D01*
X169377714Y-120605380D01*
X169282475Y-120653000D01*
X169234856Y-120700619D01*
X169187237Y-120795857D01*
X169187237Y-120938714D01*
X169234856Y-121033952D01*
X169282475Y-121081571D01*
X169377714Y-121129190D01*
X169758666Y-121129190D01*
X168187237Y-121510142D02*
X168234856Y-121557761D01*
X168377714Y-121605380D01*
X168472952Y-121605380D01*
X168615809Y-121557761D01*
X168711047Y-121462523D01*
X168758666Y-121367285D01*
X168806285Y-121176809D01*
X168806285Y-121033952D01*
X168758666Y-120843476D01*
X168711047Y-120748238D01*
X168615809Y-120653000D01*
X168472952Y-120605380D01*
X168377714Y-120605380D01*
X168234856Y-120653000D01*
X168187237Y-120700619D01*
X167330095Y-120605380D02*
X167520571Y-120605380D01*
X167615809Y-120653000D01*
X167663428Y-120700619D01*
X167758666Y-120843476D01*
X167806285Y-121033952D01*
X167806285Y-121414904D01*
X167758666Y-121510142D01*
X167711047Y-121557761D01*
X167615809Y-121605380D01*
X167425333Y-121605380D01*
X167330095Y-121557761D01*
X167282475Y-121510142D01*
X167234856Y-121414904D01*
X167234856Y-121176809D01*
X167282475Y-121081571D01*
X167330095Y-121033952D01*
X167425333Y-120986333D01*
X167615809Y-120986333D01*
X167711047Y-121033952D01*
X167758666Y-121081571D01*
X167806285Y-121176809D01*
X166091999Y-120557761D02*
X166949142Y-121843476D01*
X165806285Y-121557761D02*
X165663428Y-121605380D01*
X165425333Y-121605380D01*
X165330095Y-121557761D01*
X165282475Y-121510142D01*
X165234856Y-121414904D01*
X165234856Y-121319666D01*
X165282475Y-121224428D01*
X165330095Y-121176809D01*
X165425333Y-121129190D01*
X165615809Y-121081571D01*
X165711047Y-121033952D01*
X165758666Y-120986333D01*
X165806285Y-120891095D01*
X165806285Y-120795857D01*
X165758666Y-120700619D01*
X165711047Y-120653000D01*
X165615809Y-120605380D01*
X165377714Y-120605380D01*
X165234856Y-120653000D01*
X164901523Y-120605380D02*
X164663428Y-121605380D01*
X164472952Y-120891095D01*
X164282475Y-121605380D01*
X164044380Y-120605380D01*
X163663428Y-121605380D02*
X163663428Y-120605380D01*
X162996761Y-120605380D02*
X162806285Y-120605380D01*
X162711047Y-120653000D01*
X162615809Y-120748238D01*
X162568190Y-120938714D01*
X162568190Y-121272047D01*
X162615809Y-121462523D01*
X162711047Y-121557761D01*
X162806285Y-121605380D01*
X162996761Y-121605380D01*
X163091999Y-121557761D01*
X163187237Y-121462523D01*
X163234856Y-121272047D01*
X163234856Y-120938714D01*
X163187237Y-120748238D01*
X163091999Y-120653000D01*
X162996761Y-120605380D01*
X162377714Y-121700619D02*
X161615809Y-121700619D01*
X160949142Y-120938714D02*
X160949142Y-121605380D01*
X161187237Y-120557761D02*
X161425333Y-121272047D01*
X160806285Y-121272047D01*
X173575238Y-96464190D02*
X173527619Y-96321333D01*
X173527619Y-96083238D01*
X173575238Y-95988000D01*
X173622857Y-95940381D01*
X173718095Y-95892762D01*
X173813333Y-95892762D01*
X173908571Y-95940381D01*
X173956190Y-95988000D01*
X174003809Y-96083238D01*
X174051428Y-96273714D01*
X174099047Y-96368952D01*
X174146666Y-96416571D01*
X174241904Y-96464190D01*
X174337142Y-96464190D01*
X174432380Y-96416571D01*
X174480000Y-96368952D01*
X174527619Y-96273714D01*
X174527619Y-96035619D01*
X174480000Y-95892762D01*
X174527619Y-95559428D02*
X173527619Y-95321333D01*
X174241904Y-95130857D01*
X173527619Y-94940381D01*
X174527619Y-94702285D01*
X173527619Y-94321333D02*
X174527619Y-94321333D01*
X174527619Y-94083238D01*
X174480000Y-93940381D01*
X174384761Y-93845143D01*
X174289523Y-93797523D01*
X174099047Y-93749904D01*
X173956190Y-93749904D01*
X173765714Y-93797523D01*
X173670476Y-93845143D01*
X173575238Y-93940381D01*
X173527619Y-94083238D01*
X173527619Y-94321333D01*
X173527619Y-93321333D02*
X174527619Y-93321333D01*
X174527619Y-92654666D02*
X174527619Y-92464190D01*
X174480000Y-92368952D01*
X174384761Y-92273714D01*
X174194285Y-92226095D01*
X173860952Y-92226095D01*
X173670476Y-92273714D01*
X173575238Y-92368952D01*
X173527619Y-92464190D01*
X173527619Y-92654666D01*
X173575238Y-92749904D01*
X173670476Y-92845143D01*
X173860952Y-92892762D01*
X174194285Y-92892762D01*
X174384761Y-92845143D01*
X174480000Y-92749904D01*
X174527619Y-92654666D01*
X112283714Y-100904428D02*
X111521810Y-100904428D01*
X111902762Y-101285380D02*
X111902762Y-100523476D01*
X111140857Y-100285380D02*
X110521810Y-100285380D01*
X110855143Y-100666333D01*
X110712286Y-100666333D01*
X110617048Y-100713952D01*
X110569429Y-100761571D01*
X110521810Y-100856809D01*
X110521810Y-101094904D01*
X110569429Y-101190142D01*
X110617048Y-101237761D01*
X110712286Y-101285380D01*
X110998000Y-101285380D01*
X111093238Y-101237761D01*
X111140857Y-101190142D01*
X110236095Y-100285380D02*
X109902762Y-101285380D01*
X109569429Y-100285380D01*
X109331333Y-100285380D02*
X108712286Y-100285380D01*
X109045619Y-100666333D01*
X108902762Y-100666333D01*
X108807524Y-100713952D01*
X108759905Y-100761571D01*
X108712286Y-100856809D01*
X108712286Y-101094904D01*
X108759905Y-101190142D01*
X108807524Y-101237761D01*
X108902762Y-101285380D01*
X109188476Y-101285380D01*
X109283714Y-101237761D01*
X109331333Y-101190142D01*
X129776857Y-120605380D02*
X129776857Y-121414904D01*
X129729238Y-121510142D01*
X129681619Y-121557761D01*
X129586381Y-121605380D01*
X129395905Y-121605380D01*
X129300667Y-121557761D01*
X129253048Y-121510142D01*
X129205429Y-121414904D01*
X129205429Y-120605380D01*
X128776857Y-121557761D02*
X128634000Y-121605380D01*
X128395905Y-121605380D01*
X128300667Y-121557761D01*
X128253048Y-121510142D01*
X128205429Y-121414904D01*
X128205429Y-121319666D01*
X128253048Y-121224428D01*
X128300667Y-121176809D01*
X128395905Y-121129190D01*
X128586381Y-121081571D01*
X128681619Y-121033952D01*
X128729238Y-120986333D01*
X128776857Y-120891095D01*
X128776857Y-120795857D01*
X128729238Y-120700619D01*
X128681619Y-120653000D01*
X128586381Y-120605380D01*
X128348286Y-120605380D01*
X128205429Y-120653000D01*
X127824476Y-121319666D02*
X127348286Y-121319666D01*
X127919714Y-121605380D02*
X127586381Y-120605380D01*
X127253048Y-121605380D01*
X126348286Y-121605380D02*
X126681619Y-121129190D01*
X126919714Y-121605380D02*
X126919714Y-120605380D01*
X126538762Y-120605380D01*
X126443524Y-120653000D01*
X126395905Y-120700619D01*
X126348286Y-120795857D01*
X126348286Y-120938714D01*
X126395905Y-121033952D01*
X126443524Y-121081571D01*
X126538762Y-121129190D01*
X126919714Y-121129190D01*
X126062572Y-120605380D02*
X125491143Y-120605380D01*
X125776857Y-121605380D02*
X125776857Y-120605380D01*
X125205429Y-120700619D02*
X125157810Y-120653000D01*
X125062572Y-120605380D01*
X124824476Y-120605380D01*
X124729238Y-120653000D01*
X124681619Y-120700619D01*
X124634000Y-120795857D01*
X124634000Y-120891095D01*
X124681619Y-121033952D01*
X125253048Y-121605380D01*
X124634000Y-121605380D01*
X124443524Y-121700619D02*
X123681619Y-121700619D01*
X123586381Y-120605380D02*
X123014952Y-120605380D01*
X123300667Y-121605380D02*
X123300667Y-120605380D01*
X122776857Y-120605380D02*
X122110191Y-121605380D01*
X122110191Y-120605380D02*
X122776857Y-121605380D01*
X121014952Y-120557761D02*
X121872095Y-121843476D01*
X120681619Y-121605380D02*
X120681619Y-120605380D01*
X120300667Y-120605380D01*
X120205429Y-120653000D01*
X120157810Y-120700619D01*
X120110191Y-120795857D01*
X120110191Y-120938714D01*
X120157810Y-121033952D01*
X120205429Y-121081571D01*
X120300667Y-121129190D01*
X120681619Y-121129190D01*
X119729238Y-121319666D02*
X119253048Y-121319666D01*
X119824476Y-121605380D02*
X119491143Y-120605380D01*
X119157810Y-121605380D01*
X118872095Y-120700619D02*
X118824476Y-120653000D01*
X118729238Y-120605380D01*
X118491143Y-120605380D01*
X118395905Y-120653000D01*
X118348286Y-120700619D01*
X118300667Y-120795857D01*
X118300667Y-120891095D01*
X118348286Y-121033952D01*
X118919714Y-121605380D01*
X118300667Y-121605380D01*
X121776857Y-103825380D02*
X121776857Y-102825380D01*
X121395905Y-102825380D01*
X121300667Y-102873000D01*
X121253048Y-102920619D01*
X121205429Y-103015857D01*
X121205429Y-103158714D01*
X121253048Y-103253952D01*
X121300667Y-103301571D01*
X121395905Y-103349190D01*
X121776857Y-103349190D01*
X120205429Y-103730142D02*
X120253048Y-103777761D01*
X120395905Y-103825380D01*
X120491143Y-103825380D01*
X120634000Y-103777761D01*
X120729238Y-103682523D01*
X120776857Y-103587285D01*
X120824476Y-103396809D01*
X120824476Y-103253952D01*
X120776857Y-103063476D01*
X120729238Y-102968238D01*
X120634000Y-102873000D01*
X120491143Y-102825380D01*
X120395905Y-102825380D01*
X120253048Y-102873000D01*
X120205429Y-102920619D01*
X119253048Y-103825380D02*
X119824476Y-103825380D01*
X119538762Y-103825380D02*
X119538762Y-102825380D01*
X119634000Y-102968238D01*
X119729238Y-103063476D01*
X119824476Y-103111095D01*
X118919714Y-102825380D02*
X118300667Y-102825380D01*
X118634000Y-103206333D01*
X118491143Y-103206333D01*
X118395905Y-103253952D01*
X118348286Y-103301571D01*
X118300667Y-103396809D01*
X118300667Y-103634904D01*
X118348286Y-103730142D01*
X118395905Y-103777761D01*
X118491143Y-103825380D01*
X118776857Y-103825380D01*
X118872095Y-103777761D01*
X118919714Y-103730142D01*
X169758666Y-129225380D02*
X169758666Y-128225380D01*
X169377714Y-128225380D01*
X169282476Y-128273000D01*
X169234857Y-128320619D01*
X169187238Y-128415857D01*
X169187238Y-128558714D01*
X169234857Y-128653952D01*
X169282476Y-128701571D01*
X169377714Y-128749190D01*
X169758666Y-128749190D01*
X168425333Y-128701571D02*
X168282476Y-128749190D01*
X168234857Y-128796809D01*
X168187238Y-128892047D01*
X168187238Y-129034904D01*
X168234857Y-129130142D01*
X168282476Y-129177761D01*
X168377714Y-129225380D01*
X168758666Y-129225380D01*
X168758666Y-128225380D01*
X168425333Y-128225380D01*
X168330095Y-128273000D01*
X168282476Y-128320619D01*
X168234857Y-128415857D01*
X168234857Y-128511095D01*
X168282476Y-128606333D01*
X168330095Y-128653952D01*
X168425333Y-128701571D01*
X168758666Y-128701571D01*
X167234857Y-129225380D02*
X167806285Y-129225380D01*
X167520571Y-129225380D02*
X167520571Y-128225380D01*
X167615809Y-128368238D01*
X167711047Y-128463476D01*
X167806285Y-128511095D01*
X166901524Y-128225380D02*
X166282476Y-128225380D01*
X166615809Y-128606333D01*
X166472952Y-128606333D01*
X166377714Y-128653952D01*
X166330095Y-128701571D01*
X166282476Y-128796809D01*
X166282476Y-129034904D01*
X166330095Y-129130142D01*
X166377714Y-129177761D01*
X166472952Y-129225380D01*
X166758666Y-129225380D01*
X166853905Y-129177761D01*
X166901524Y-129130142D01*
X165139619Y-128177761D02*
X165996762Y-129463476D01*
X164853905Y-129177761D02*
X164711047Y-129225380D01*
X164472952Y-129225380D01*
X164377714Y-129177761D01*
X164330095Y-129130142D01*
X164282476Y-129034904D01*
X164282476Y-128939666D01*
X164330095Y-128844428D01*
X164377714Y-128796809D01*
X164472952Y-128749190D01*
X164663428Y-128701571D01*
X164758666Y-128653952D01*
X164806285Y-128606333D01*
X164853905Y-128511095D01*
X164853905Y-128415857D01*
X164806285Y-128320619D01*
X164758666Y-128273000D01*
X164663428Y-128225380D01*
X164425333Y-128225380D01*
X164282476Y-128273000D01*
X163949143Y-128225380D02*
X163711047Y-129225380D01*
X163520571Y-128511095D01*
X163330095Y-129225380D01*
X163092000Y-128225380D01*
X162711047Y-129225380D02*
X162711047Y-128225380D01*
X162044381Y-128225380D02*
X161853905Y-128225380D01*
X161758666Y-128273000D01*
X161663428Y-128368238D01*
X161615809Y-128558714D01*
X161615809Y-128892047D01*
X161663428Y-129082523D01*
X161758666Y-129177761D01*
X161853905Y-129225380D01*
X162044381Y-129225380D01*
X162139619Y-129177761D01*
X162234857Y-129082523D01*
X162282476Y-128892047D01*
X162282476Y-128558714D01*
X162234857Y-128368238D01*
X162139619Y-128273000D01*
X162044381Y-128225380D01*
X161425333Y-129320619D02*
X160663428Y-129320619D01*
X159901524Y-129225380D02*
X160472952Y-129225380D01*
X160187238Y-129225380D02*
X160187238Y-128225380D01*
X160282476Y-128368238D01*
X160377714Y-128463476D01*
X160472952Y-128511095D01*
X112283714Y-126685380D02*
X112283714Y-125685380D01*
X111902762Y-125685380D01*
X111807524Y-125733000D01*
X111759905Y-125780619D01*
X111712286Y-125875857D01*
X111712286Y-126018714D01*
X111759905Y-126113952D01*
X111807524Y-126161571D01*
X111902762Y-126209190D01*
X112283714Y-126209190D01*
X110950381Y-126161571D02*
X110807524Y-126209190D01*
X110759905Y-126256809D01*
X110712286Y-126352047D01*
X110712286Y-126494904D01*
X110759905Y-126590142D01*
X110807524Y-126637761D01*
X110902762Y-126685380D01*
X111283714Y-126685380D01*
X111283714Y-125685380D01*
X110950381Y-125685380D01*
X110855143Y-125733000D01*
X110807524Y-125780619D01*
X110759905Y-125875857D01*
X110759905Y-125971095D01*
X110807524Y-126066333D01*
X110855143Y-126113952D01*
X110950381Y-126161571D01*
X111283714Y-126161571D01*
X109759905Y-126685380D02*
X110331333Y-126685380D01*
X110045619Y-126685380D02*
X110045619Y-125685380D01*
X110140857Y-125828238D01*
X110236095Y-125923476D01*
X110331333Y-125971095D01*
X109140857Y-125685380D02*
X109045619Y-125685380D01*
X108950381Y-125733000D01*
X108902762Y-125780619D01*
X108855143Y-125875857D01*
X108807524Y-126066333D01*
X108807524Y-126304428D01*
X108855143Y-126494904D01*
X108902762Y-126590142D01*
X108950381Y-126637761D01*
X109045619Y-126685380D01*
X109140857Y-126685380D01*
X109236095Y-126637761D01*
X109283714Y-126590142D01*
X109331333Y-126494904D01*
X109378952Y-126304428D01*
X109378952Y-126066333D01*
X109331333Y-125875857D01*
X109283714Y-125780619D01*
X109236095Y-125733000D01*
X109140857Y-125685380D01*
X107664667Y-125637761D02*
X108521809Y-126923476D01*
X107474190Y-125685380D02*
X106902762Y-125685380D01*
X107188476Y-126685380D02*
X107188476Y-125685380D01*
X106569428Y-126161571D02*
X106236095Y-126161571D01*
X106093238Y-126685380D02*
X106569428Y-126685380D01*
X106569428Y-125685380D01*
X106093238Y-125685380D01*
X105664667Y-126685380D02*
X105664667Y-125685380D01*
X105331333Y-126399666D01*
X104998000Y-125685380D01*
X104998000Y-126685380D01*
X104521809Y-126685380D02*
X104521809Y-125685380D01*
X104140857Y-125685380D01*
X104045619Y-125733000D01*
X103998000Y-125780619D01*
X103950381Y-125875857D01*
X103950381Y-126018714D01*
X103998000Y-126113952D01*
X104045619Y-126161571D01*
X104140857Y-126209190D01*
X104521809Y-126209190D01*
X103759905Y-126780619D02*
X102998000Y-126780619D01*
X102759905Y-126685380D02*
X102759905Y-125685380D01*
X102283714Y-126685380D02*
X102283714Y-125685380D01*
X101712286Y-126685380D01*
X101712286Y-125685380D01*
X101378952Y-125685380D02*
X100807524Y-125685380D01*
X101093238Y-126685380D02*
X101093238Y-125685380D01*
X178125333Y-126685380D02*
X178125333Y-125685380D01*
X177744380Y-125685380D01*
X177649142Y-125733000D01*
X177601523Y-125780619D01*
X177553904Y-125875857D01*
X177553904Y-126018714D01*
X177601523Y-126113952D01*
X177649142Y-126161571D01*
X177744380Y-126209190D01*
X178125333Y-126209190D01*
X176791999Y-126161571D02*
X176649142Y-126209190D01*
X176601523Y-126256809D01*
X176553904Y-126352047D01*
X176553904Y-126494904D01*
X176601523Y-126590142D01*
X176649142Y-126637761D01*
X176744380Y-126685380D01*
X177125333Y-126685380D01*
X177125333Y-125685380D01*
X176791999Y-125685380D01*
X176696761Y-125733000D01*
X176649142Y-125780619D01*
X176601523Y-125875857D01*
X176601523Y-125971095D01*
X176649142Y-126066333D01*
X176696761Y-126113952D01*
X176791999Y-126161571D01*
X177125333Y-126161571D01*
X176077714Y-126685380D02*
X175887238Y-126685380D01*
X175791999Y-126637761D01*
X175744380Y-126590142D01*
X175649142Y-126447285D01*
X175601523Y-126256809D01*
X175601523Y-125875857D01*
X175649142Y-125780619D01*
X175696761Y-125733000D01*
X175791999Y-125685380D01*
X175982476Y-125685380D01*
X176077714Y-125733000D01*
X176125333Y-125780619D01*
X176172952Y-125875857D01*
X176172952Y-126113952D01*
X176125333Y-126209190D01*
X176077714Y-126256809D01*
X175982476Y-126304428D01*
X175791999Y-126304428D01*
X175696761Y-126256809D01*
X175649142Y-126209190D01*
X175601523Y-126113952D01*
X149653142Y-94940380D02*
X149653142Y-93940380D01*
X149415047Y-93940380D01*
X149272190Y-93988000D01*
X149176952Y-94083238D01*
X149129333Y-94178476D01*
X149081714Y-94368952D01*
X149081714Y-94511809D01*
X149129333Y-94702285D01*
X149176952Y-94797523D01*
X149272190Y-94892761D01*
X149415047Y-94940380D01*
X149653142Y-94940380D01*
X148700761Y-94654666D02*
X148224571Y-94654666D01*
X148796000Y-94940380D02*
X148462666Y-93940380D01*
X148129333Y-94940380D01*
X147224571Y-94845142D02*
X147272190Y-94892761D01*
X147415047Y-94940380D01*
X147510285Y-94940380D01*
X147653142Y-94892761D01*
X147748380Y-94797523D01*
X147796000Y-94702285D01*
X147843619Y-94511809D01*
X147843619Y-94368952D01*
X147796000Y-94178476D01*
X147748380Y-94083238D01*
X147653142Y-93988000D01*
X147510285Y-93940380D01*
X147415047Y-93940380D01*
X147272190Y-93988000D01*
X147224571Y-94035619D01*
X147034095Y-95035619D02*
X146272190Y-95035619D01*
X145843619Y-93940380D02*
X145653142Y-93940380D01*
X145557904Y-93988000D01*
X145462666Y-94083238D01*
X145415047Y-94273714D01*
X145415047Y-94607047D01*
X145462666Y-94797523D01*
X145557904Y-94892761D01*
X145653142Y-94940380D01*
X145843619Y-94940380D01*
X145938857Y-94892761D01*
X146034095Y-94797523D01*
X146081714Y-94607047D01*
X146081714Y-94273714D01*
X146034095Y-94083238D01*
X145938857Y-93988000D01*
X145843619Y-93940380D01*
X144986476Y-93940380D02*
X144986476Y-94749904D01*
X144938857Y-94845142D01*
X144891238Y-94892761D01*
X144796000Y-94940380D01*
X144605523Y-94940380D01*
X144510285Y-94892761D01*
X144462666Y-94845142D01*
X144415047Y-94749904D01*
X144415047Y-93940380D01*
X144081714Y-93940380D02*
X143510285Y-93940380D01*
X143796000Y-94940380D02*
X143796000Y-93940380D01*
X143415047Y-95035619D02*
X142653142Y-95035619D01*
X141891238Y-94940380D02*
X142462666Y-94940380D01*
X142176952Y-94940380D02*
X142176952Y-93940380D01*
X142272190Y-94083238D01*
X142367428Y-94178476D01*
X142462666Y-94226095D01*
X112283714Y-116525380D02*
X112283714Y-115525380D01*
X111902761Y-115525380D01*
X111807523Y-115573000D01*
X111759904Y-115620619D01*
X111712285Y-115715857D01*
X111712285Y-115858714D01*
X111759904Y-115953952D01*
X111807523Y-116001571D01*
X111902761Y-116049190D01*
X112283714Y-116049190D01*
X110712285Y-116430142D02*
X110759904Y-116477761D01*
X110902761Y-116525380D01*
X110997999Y-116525380D01*
X111140857Y-116477761D01*
X111236095Y-116382523D01*
X111283714Y-116287285D01*
X111331333Y-116096809D01*
X111331333Y-115953952D01*
X111283714Y-115763476D01*
X111236095Y-115668238D01*
X111140857Y-115573000D01*
X110997999Y-115525380D01*
X110902761Y-115525380D01*
X110759904Y-115573000D01*
X110712285Y-115620619D01*
X109807523Y-115525380D02*
X110283714Y-115525380D01*
X110331333Y-116001571D01*
X110283714Y-115953952D01*
X110188476Y-115906333D01*
X109950380Y-115906333D01*
X109855142Y-115953952D01*
X109807523Y-116001571D01*
X109759904Y-116096809D01*
X109759904Y-116334904D01*
X109807523Y-116430142D01*
X109855142Y-116477761D01*
X109950380Y-116525380D01*
X110188476Y-116525380D01*
X110283714Y-116477761D01*
X110331333Y-116430142D01*
X185172952Y-121605380D02*
X185172952Y-120605380D01*
X184744381Y-120700619D02*
X184696762Y-120653000D01*
X184601524Y-120605380D01*
X184363428Y-120605380D01*
X184268190Y-120653000D01*
X184220571Y-120700619D01*
X184172952Y-120795857D01*
X184172952Y-120891095D01*
X184220571Y-121033952D01*
X184792000Y-121605380D01*
X184172952Y-121605380D01*
X183172952Y-121510142D02*
X183220571Y-121557761D01*
X183363428Y-121605380D01*
X183458667Y-121605380D01*
X183601524Y-121557761D01*
X183696762Y-121462523D01*
X183744381Y-121367285D01*
X183792000Y-121176809D01*
X183792000Y-121033952D01*
X183744381Y-120843476D01*
X183696762Y-120748238D01*
X183601524Y-120653000D01*
X183458667Y-120605380D01*
X183363428Y-120605380D01*
X183220571Y-120653000D01*
X183172952Y-120700619D01*
X182982476Y-121700619D02*
X182220571Y-121700619D01*
X182030095Y-121557761D02*
X181887238Y-121605380D01*
X181649143Y-121605380D01*
X181553905Y-121557761D01*
X181506286Y-121510142D01*
X181458667Y-121414904D01*
X181458667Y-121319666D01*
X181506286Y-121224428D01*
X181553905Y-121176809D01*
X181649143Y-121129190D01*
X181839619Y-121081571D01*
X181934857Y-121033952D01*
X181982476Y-120986333D01*
X182030095Y-120891095D01*
X182030095Y-120795857D01*
X181982476Y-120700619D01*
X181934857Y-120653000D01*
X181839619Y-120605380D01*
X181601524Y-120605380D01*
X181458667Y-120653000D01*
X181030095Y-121605380D02*
X181030095Y-120605380D01*
X180792000Y-120605380D01*
X180649143Y-120653000D01*
X180553905Y-120748238D01*
X180506286Y-120843476D01*
X180458667Y-121033952D01*
X180458667Y-121176809D01*
X180506286Y-121367285D01*
X180553905Y-121462523D01*
X180649143Y-121557761D01*
X180792000Y-121605380D01*
X181030095Y-121605380D01*
X180077714Y-121319666D02*
X179601524Y-121319666D01*
X180172952Y-121605380D02*
X179839619Y-120605380D01*
X179506286Y-121605380D01*
X178458667Y-120557761D02*
X179315809Y-121843476D01*
X178125333Y-121605380D02*
X178125333Y-120605380D01*
X177744381Y-120605380D01*
X177649143Y-120653000D01*
X177601524Y-120700619D01*
X177553905Y-120795857D01*
X177553905Y-120938714D01*
X177601524Y-121033952D01*
X177649143Y-121081571D01*
X177744381Y-121129190D01*
X178125333Y-121129190D01*
X176792000Y-121081571D02*
X176649143Y-121129190D01*
X176601524Y-121176809D01*
X176553905Y-121272047D01*
X176553905Y-121414904D01*
X176601524Y-121510142D01*
X176649143Y-121557761D01*
X176744381Y-121605380D01*
X177125333Y-121605380D01*
X177125333Y-120605380D01*
X176792000Y-120605380D01*
X176696762Y-120653000D01*
X176649143Y-120700619D01*
X176601524Y-120795857D01*
X176601524Y-120891095D01*
X176649143Y-120986333D01*
X176696762Y-121033952D01*
X176792000Y-121081571D01*
X177125333Y-121081571D01*
X176220571Y-120605380D02*
X175553905Y-120605380D01*
X175982476Y-121605380D01*
X177982476Y-106365380D02*
X177982476Y-105365380D01*
X177601524Y-105365380D01*
X177506286Y-105413000D01*
X177458667Y-105460619D01*
X177411048Y-105555857D01*
X177411048Y-105698714D01*
X177458667Y-105793952D01*
X177506286Y-105841571D01*
X177601524Y-105889190D01*
X177982476Y-105889190D01*
X177030095Y-106079666D02*
X176553905Y-106079666D01*
X177125333Y-106365380D02*
X176792000Y-105365380D01*
X176458667Y-106365380D01*
X176077714Y-106365380D02*
X175887238Y-106365380D01*
X175792000Y-106317761D01*
X175744381Y-106270142D01*
X175649143Y-106127285D01*
X175601524Y-105936809D01*
X175601524Y-105555857D01*
X175649143Y-105460619D01*
X175696762Y-105413000D01*
X175792000Y-105365380D01*
X175982476Y-105365380D01*
X176077714Y-105413000D01*
X176125333Y-105460619D01*
X176172952Y-105555857D01*
X176172952Y-105793952D01*
X176125333Y-105889190D01*
X176077714Y-105936809D01*
X175982476Y-105984428D01*
X175792000Y-105984428D01*
X175696762Y-105936809D01*
X175649143Y-105889190D01*
X175601524Y-105793952D01*
X169758666Y-126685380D02*
X169758666Y-125685380D01*
X169377714Y-125685380D01*
X169282476Y-125733000D01*
X169234857Y-125780619D01*
X169187238Y-125875857D01*
X169187238Y-126018714D01*
X169234857Y-126113952D01*
X169282476Y-126161571D01*
X169377714Y-126209190D01*
X169758666Y-126209190D01*
X168425333Y-126161571D02*
X168282476Y-126209190D01*
X168234857Y-126256809D01*
X168187238Y-126352047D01*
X168187238Y-126494904D01*
X168234857Y-126590142D01*
X168282476Y-126637761D01*
X168377714Y-126685380D01*
X168758666Y-126685380D01*
X168758666Y-125685380D01*
X168425333Y-125685380D01*
X168330095Y-125733000D01*
X168282476Y-125780619D01*
X168234857Y-125875857D01*
X168234857Y-125971095D01*
X168282476Y-126066333D01*
X168330095Y-126113952D01*
X168425333Y-126161571D01*
X168758666Y-126161571D01*
X167234857Y-126685380D02*
X167806285Y-126685380D01*
X167520571Y-126685380D02*
X167520571Y-125685380D01*
X167615809Y-125828238D01*
X167711047Y-125923476D01*
X167806285Y-125971095D01*
X166377714Y-126018714D02*
X166377714Y-126685380D01*
X166615809Y-125637761D02*
X166853905Y-126352047D01*
X166234857Y-126352047D01*
X165139619Y-125637761D02*
X165996762Y-126923476D01*
X164853905Y-126637761D02*
X164711047Y-126685380D01*
X164472952Y-126685380D01*
X164377714Y-126637761D01*
X164330095Y-126590142D01*
X164282476Y-126494904D01*
X164282476Y-126399666D01*
X164330095Y-126304428D01*
X164377714Y-126256809D01*
X164472952Y-126209190D01*
X164663428Y-126161571D01*
X164758666Y-126113952D01*
X164806285Y-126066333D01*
X164853905Y-125971095D01*
X164853905Y-125875857D01*
X164806285Y-125780619D01*
X164758666Y-125733000D01*
X164663428Y-125685380D01*
X164425333Y-125685380D01*
X164282476Y-125733000D01*
X163949143Y-125685380D02*
X163711047Y-126685380D01*
X163520571Y-125971095D01*
X163330095Y-126685380D01*
X163092000Y-125685380D01*
X162711047Y-126685380D02*
X162711047Y-125685380D01*
X162044381Y-125685380D02*
X161853905Y-125685380D01*
X161758666Y-125733000D01*
X161663428Y-125828238D01*
X161615809Y-126018714D01*
X161615809Y-126352047D01*
X161663428Y-126542523D01*
X161758666Y-126637761D01*
X161853905Y-126685380D01*
X162044381Y-126685380D01*
X162139619Y-126637761D01*
X162234857Y-126542523D01*
X162282476Y-126352047D01*
X162282476Y-126018714D01*
X162234857Y-125828238D01*
X162139619Y-125733000D01*
X162044381Y-125685380D01*
X161425333Y-126780619D02*
X160663428Y-126780619D01*
X160472952Y-125780619D02*
X160425333Y-125733000D01*
X160330095Y-125685380D01*
X160092000Y-125685380D01*
X159996762Y-125733000D01*
X159949143Y-125780619D01*
X159901524Y-125875857D01*
X159901524Y-125971095D01*
X159949143Y-126113952D01*
X160520571Y-126685380D01*
X159901524Y-126685380D01*
X169758666Y-116525380D02*
X169758666Y-115525380D01*
X169377714Y-115525380D01*
X169282476Y-115573000D01*
X169234857Y-115620619D01*
X169187238Y-115715857D01*
X169187238Y-115858714D01*
X169234857Y-115953952D01*
X169282476Y-116001571D01*
X169377714Y-116049190D01*
X169758666Y-116049190D01*
X168187238Y-116430142D02*
X168234857Y-116477761D01*
X168377714Y-116525380D01*
X168472952Y-116525380D01*
X168615809Y-116477761D01*
X168711047Y-116382523D01*
X168758666Y-116287285D01*
X168806285Y-116096809D01*
X168806285Y-115953952D01*
X168758666Y-115763476D01*
X168711047Y-115668238D01*
X168615809Y-115573000D01*
X168472952Y-115525380D01*
X168377714Y-115525380D01*
X168234857Y-115573000D01*
X168187238Y-115620619D01*
X167615809Y-115953952D02*
X167711047Y-115906333D01*
X167758666Y-115858714D01*
X167806285Y-115763476D01*
X167806285Y-115715857D01*
X167758666Y-115620619D01*
X167711047Y-115573000D01*
X167615809Y-115525380D01*
X167425333Y-115525380D01*
X167330095Y-115573000D01*
X167282476Y-115620619D01*
X167234857Y-115715857D01*
X167234857Y-115763476D01*
X167282476Y-115858714D01*
X167330095Y-115906333D01*
X167425333Y-115953952D01*
X167615809Y-115953952D01*
X167711047Y-116001571D01*
X167758666Y-116049190D01*
X167806285Y-116144428D01*
X167806285Y-116334904D01*
X167758666Y-116430142D01*
X167711047Y-116477761D01*
X167615809Y-116525380D01*
X167425333Y-116525380D01*
X167330095Y-116477761D01*
X167282476Y-116430142D01*
X167234857Y-116334904D01*
X167234857Y-116144428D01*
X167282476Y-116049190D01*
X167330095Y-116001571D01*
X167425333Y-115953952D01*
X166092000Y-115477761D02*
X166949143Y-116763476D01*
X165806285Y-116477761D02*
X165663428Y-116525380D01*
X165425333Y-116525380D01*
X165330095Y-116477761D01*
X165282476Y-116430142D01*
X165234857Y-116334904D01*
X165234857Y-116239666D01*
X165282476Y-116144428D01*
X165330095Y-116096809D01*
X165425333Y-116049190D01*
X165615809Y-116001571D01*
X165711047Y-115953952D01*
X165758666Y-115906333D01*
X165806285Y-115811095D01*
X165806285Y-115715857D01*
X165758666Y-115620619D01*
X165711047Y-115573000D01*
X165615809Y-115525380D01*
X165377714Y-115525380D01*
X165234857Y-115573000D01*
X164806285Y-116525380D02*
X164806285Y-115525380D01*
X164568190Y-115525380D01*
X164425333Y-115573000D01*
X164330095Y-115668238D01*
X164282476Y-115763476D01*
X164234857Y-115953952D01*
X164234857Y-116096809D01*
X164282476Y-116287285D01*
X164330095Y-116382523D01*
X164425333Y-116477761D01*
X164568190Y-116525380D01*
X164806285Y-116525380D01*
X163806285Y-116525380D02*
X163806285Y-115525380D01*
X163139619Y-115525380D02*
X162949143Y-115525380D01*
X162853904Y-115573000D01*
X162758666Y-115668238D01*
X162711047Y-115858714D01*
X162711047Y-116192047D01*
X162758666Y-116382523D01*
X162853904Y-116477761D01*
X162949143Y-116525380D01*
X163139619Y-116525380D01*
X163234857Y-116477761D01*
X163330095Y-116382523D01*
X163377714Y-116192047D01*
X163377714Y-115858714D01*
X163330095Y-115668238D01*
X163234857Y-115573000D01*
X163139619Y-115525380D01*
X162520571Y-116620619D02*
X161758666Y-116620619D01*
X161520571Y-116525380D02*
X161520571Y-115525380D01*
X161282476Y-115525380D01*
X161139619Y-115573000D01*
X161044381Y-115668238D01*
X160996762Y-115763476D01*
X160949143Y-115953952D01*
X160949143Y-116096809D01*
X160996762Y-116287285D01*
X161044381Y-116382523D01*
X161139619Y-116477761D01*
X161282476Y-116525380D01*
X161520571Y-116525380D01*
X160330095Y-115525380D02*
X160234857Y-115525380D01*
X160139619Y-115573000D01*
X160092000Y-115620619D01*
X160044381Y-115715857D01*
X159996762Y-115906333D01*
X159996762Y-116144428D01*
X160044381Y-116334904D01*
X160092000Y-116430142D01*
X160139619Y-116477761D01*
X160234857Y-116525380D01*
X160330095Y-116525380D01*
X160425333Y-116477761D01*
X160472952Y-116430142D01*
X160520571Y-116334904D01*
X160568190Y-116144428D01*
X160568190Y-115906333D01*
X160520571Y-115715857D01*
X160472952Y-115620619D01*
X160425333Y-115573000D01*
X160330095Y-115525380D01*
X179077714Y-129225380D02*
X179077714Y-128225380D01*
X178696762Y-128225380D01*
X178601524Y-128273000D01*
X178553905Y-128320619D01*
X178506286Y-128415857D01*
X178506286Y-128558714D01*
X178553905Y-128653952D01*
X178601524Y-128701571D01*
X178696762Y-128749190D01*
X179077714Y-128749190D01*
X177744381Y-128701571D02*
X177601524Y-128749190D01*
X177553905Y-128796809D01*
X177506286Y-128892047D01*
X177506286Y-129034904D01*
X177553905Y-129130142D01*
X177601524Y-129177761D01*
X177696762Y-129225380D01*
X178077714Y-129225380D01*
X178077714Y-128225380D01*
X177744381Y-128225380D01*
X177649143Y-128273000D01*
X177601524Y-128320619D01*
X177553905Y-128415857D01*
X177553905Y-128511095D01*
X177601524Y-128606333D01*
X177649143Y-128653952D01*
X177744381Y-128701571D01*
X178077714Y-128701571D01*
X176553905Y-129225380D02*
X177125333Y-129225380D01*
X176839619Y-129225380D02*
X176839619Y-128225380D01*
X176934857Y-128368238D01*
X177030095Y-128463476D01*
X177125333Y-128511095D01*
X176172952Y-128320619D02*
X176125333Y-128273000D01*
X176030095Y-128225380D01*
X175792000Y-128225380D01*
X175696762Y-128273000D01*
X175649143Y-128320619D01*
X175601524Y-128415857D01*
X175601524Y-128511095D01*
X175649143Y-128653952D01*
X176220571Y-129225380D01*
X175601524Y-129225380D01*
X178934857Y-101285380D02*
X178934857Y-100285380D01*
X178553904Y-100285380D01*
X178458666Y-100333000D01*
X178411047Y-100380619D01*
X178363428Y-100475857D01*
X178363428Y-100618714D01*
X178411047Y-100713952D01*
X178458666Y-100761571D01*
X178553904Y-100809190D01*
X178934857Y-100809190D01*
X177982476Y-100999666D02*
X177506285Y-100999666D01*
X178077714Y-101285380D02*
X177744380Y-100285380D01*
X177411047Y-101285380D01*
X176553904Y-101285380D02*
X177125333Y-101285380D01*
X176839619Y-101285380D02*
X176839619Y-100285380D01*
X176934857Y-100428238D01*
X177030095Y-100523476D01*
X177125333Y-100571095D01*
X175649142Y-100285380D02*
X176125333Y-100285380D01*
X176172952Y-100761571D01*
X176125333Y-100713952D01*
X176030095Y-100666333D01*
X175792000Y-100666333D01*
X175696761Y-100713952D01*
X175649142Y-100761571D01*
X175601523Y-100856809D01*
X175601523Y-101094904D01*
X175649142Y-101190142D01*
X175696761Y-101237761D01*
X175792000Y-101285380D01*
X176030095Y-101285380D01*
X176125333Y-101237761D01*
X176172952Y-101190142D01*
X169758666Y-111445380D02*
X169758666Y-110445380D01*
X169377713Y-110445380D01*
X169282475Y-110493000D01*
X169234856Y-110540619D01*
X169187237Y-110635857D01*
X169187237Y-110778714D01*
X169234856Y-110873952D01*
X169282475Y-110921571D01*
X169377713Y-110969190D01*
X169758666Y-110969190D01*
X168187237Y-111350142D02*
X168234856Y-111397761D01*
X168377713Y-111445380D01*
X168472952Y-111445380D01*
X168615809Y-111397761D01*
X168711047Y-111302523D01*
X168758666Y-111207285D01*
X168806285Y-111016809D01*
X168806285Y-110873952D01*
X168758666Y-110683476D01*
X168711047Y-110588238D01*
X168615809Y-110493000D01*
X168472952Y-110445380D01*
X168377713Y-110445380D01*
X168234856Y-110493000D01*
X168187237Y-110540619D01*
X167234856Y-111445380D02*
X167806285Y-111445380D01*
X167520571Y-111445380D02*
X167520571Y-110445380D01*
X167615809Y-110588238D01*
X167711047Y-110683476D01*
X167806285Y-110731095D01*
X166282475Y-111445380D02*
X166853904Y-111445380D01*
X166568190Y-111445380D02*
X166568190Y-110445380D01*
X166663428Y-110588238D01*
X166758666Y-110683476D01*
X166853904Y-110731095D01*
X165139618Y-110397761D02*
X165996761Y-111683476D01*
X164853904Y-111397761D02*
X164711047Y-111445380D01*
X164472952Y-111445380D01*
X164377713Y-111397761D01*
X164330094Y-111350142D01*
X164282475Y-111254904D01*
X164282475Y-111159666D01*
X164330094Y-111064428D01*
X164377713Y-111016809D01*
X164472952Y-110969190D01*
X164663428Y-110921571D01*
X164758666Y-110873952D01*
X164806285Y-110826333D01*
X164853904Y-110731095D01*
X164853904Y-110635857D01*
X164806285Y-110540619D01*
X164758666Y-110493000D01*
X164663428Y-110445380D01*
X164425333Y-110445380D01*
X164282475Y-110493000D01*
X163853904Y-111445380D02*
X163853904Y-110445380D01*
X163615809Y-110445380D01*
X163472952Y-110493000D01*
X163377713Y-110588238D01*
X163330094Y-110683476D01*
X163282475Y-110873952D01*
X163282475Y-111016809D01*
X163330094Y-111207285D01*
X163377713Y-111302523D01*
X163472952Y-111397761D01*
X163615809Y-111445380D01*
X163853904Y-111445380D01*
X162853904Y-111445380D02*
X162853904Y-110445380D01*
X162187237Y-110445380D02*
X161996761Y-110445380D01*
X161901523Y-110493000D01*
X161806285Y-110588238D01*
X161758666Y-110778714D01*
X161758666Y-111112047D01*
X161806285Y-111302523D01*
X161901523Y-111397761D01*
X161996761Y-111445380D01*
X162187237Y-111445380D01*
X162282475Y-111397761D01*
X162377713Y-111302523D01*
X162425333Y-111112047D01*
X162425333Y-110778714D01*
X162377713Y-110588238D01*
X162282475Y-110493000D01*
X162187237Y-110445380D01*
X161568190Y-111540619D02*
X160806285Y-111540619D01*
X160568190Y-111445380D02*
X160568190Y-110445380D01*
X160330094Y-110445380D01*
X160187237Y-110493000D01*
X160091999Y-110588238D01*
X160044380Y-110683476D01*
X159996761Y-110873952D01*
X159996761Y-111016809D01*
X160044380Y-111207285D01*
X160091999Y-111302523D01*
X160187237Y-111397761D01*
X160330094Y-111445380D01*
X160568190Y-111445380D01*
X159663428Y-110445380D02*
X159044380Y-110445380D01*
X159377713Y-110826333D01*
X159234856Y-110826333D01*
X159139618Y-110873952D01*
X159091999Y-110921571D01*
X159044380Y-111016809D01*
X159044380Y-111254904D01*
X159091999Y-111350142D01*
X159139618Y-111397761D01*
X159234856Y-111445380D01*
X159520571Y-111445380D01*
X159615809Y-111397761D01*
X159663428Y-111350142D01*
X112283714Y-121605380D02*
X112283714Y-120605380D01*
X111902761Y-120605380D01*
X111807523Y-120653000D01*
X111759904Y-120700619D01*
X111712285Y-120795857D01*
X111712285Y-120938714D01*
X111759904Y-121033952D01*
X111807523Y-121081571D01*
X111902761Y-121129190D01*
X112283714Y-121129190D01*
X110950380Y-121081571D02*
X110807523Y-121129190D01*
X110759904Y-121176809D01*
X110712285Y-121272047D01*
X110712285Y-121414904D01*
X110759904Y-121510142D01*
X110807523Y-121557761D01*
X110902761Y-121605380D01*
X111283714Y-121605380D01*
X111283714Y-120605380D01*
X110950380Y-120605380D01*
X110855142Y-120653000D01*
X110807523Y-120700619D01*
X110759904Y-120795857D01*
X110759904Y-120891095D01*
X110807523Y-120986333D01*
X110855142Y-121033952D01*
X110950380Y-121081571D01*
X111283714Y-121081571D01*
X109759904Y-121605380D02*
X110331333Y-121605380D01*
X110045619Y-121605380D02*
X110045619Y-120605380D01*
X110140857Y-120748238D01*
X110236095Y-120843476D01*
X110331333Y-120891095D01*
X125824476Y-106365380D02*
X126300666Y-106365380D01*
X126300666Y-105365380D01*
X125491142Y-105841571D02*
X125157809Y-105841571D01*
X125014952Y-106365380D02*
X125491142Y-106365380D01*
X125491142Y-105365380D01*
X125014952Y-105365380D01*
X124586380Y-106365380D02*
X124586380Y-105365380D01*
X124348285Y-105365380D01*
X124205428Y-105413000D01*
X124110190Y-105508238D01*
X124062571Y-105603476D01*
X124014952Y-105793952D01*
X124014952Y-105936809D01*
X124062571Y-106127285D01*
X124110190Y-106222523D01*
X124205428Y-106317761D01*
X124348285Y-106365380D01*
X124586380Y-106365380D01*
X123824476Y-106460619D02*
X123062571Y-106460619D01*
X122300666Y-106365380D02*
X122872095Y-106365380D01*
X122586380Y-106365380D02*
X122586380Y-105365380D01*
X122681618Y-105508238D01*
X122776856Y-105603476D01*
X122872095Y-105651095D01*
X121157809Y-105317761D02*
X122014952Y-106603476D01*
X120824476Y-106365380D02*
X120824476Y-105365380D01*
X120443523Y-105365380D01*
X120348285Y-105413000D01*
X120300666Y-105460619D01*
X120253047Y-105555857D01*
X120253047Y-105698714D01*
X120300666Y-105793952D01*
X120348285Y-105841571D01*
X120443523Y-105889190D01*
X120824476Y-105889190D01*
X119253047Y-106270142D02*
X119300666Y-106317761D01*
X119443523Y-106365380D01*
X119538761Y-106365380D01*
X119681618Y-106317761D01*
X119776856Y-106222523D01*
X119824476Y-106127285D01*
X119872095Y-105936809D01*
X119872095Y-105793952D01*
X119824476Y-105603476D01*
X119776856Y-105508238D01*
X119681618Y-105413000D01*
X119538761Y-105365380D01*
X119443523Y-105365380D01*
X119300666Y-105413000D01*
X119253047Y-105460619D01*
X118633999Y-105365380D02*
X118538761Y-105365380D01*
X118443523Y-105413000D01*
X118395904Y-105460619D01*
X118348285Y-105555857D01*
X118300666Y-105746333D01*
X118300666Y-105984428D01*
X118348285Y-106174904D01*
X118395904Y-106270142D01*
X118443523Y-106317761D01*
X118538761Y-106365380D01*
X118633999Y-106365380D01*
X118729237Y-106317761D01*
X118776856Y-106270142D01*
X118824476Y-106174904D01*
X118872095Y-105984428D01*
X118872095Y-105746333D01*
X118824476Y-105555857D01*
X118776856Y-105460619D01*
X118729237Y-105413000D01*
X118633999Y-105365380D01*
X125824476Y-108905380D02*
X126300666Y-108905380D01*
X126300666Y-107905380D01*
X125491142Y-108381571D02*
X125157809Y-108381571D01*
X125014952Y-108905380D02*
X125491142Y-108905380D01*
X125491142Y-107905380D01*
X125014952Y-107905380D01*
X124586380Y-108905380D02*
X124586380Y-107905380D01*
X124348285Y-107905380D01*
X124205428Y-107953000D01*
X124110190Y-108048238D01*
X124062571Y-108143476D01*
X124014952Y-108333952D01*
X124014952Y-108476809D01*
X124062571Y-108667285D01*
X124110190Y-108762523D01*
X124205428Y-108857761D01*
X124348285Y-108905380D01*
X124586380Y-108905380D01*
X123824476Y-109000619D02*
X123062571Y-109000619D01*
X122872095Y-108000619D02*
X122824476Y-107953000D01*
X122729237Y-107905380D01*
X122491142Y-107905380D01*
X122395904Y-107953000D01*
X122348285Y-108000619D01*
X122300666Y-108095857D01*
X122300666Y-108191095D01*
X122348285Y-108333952D01*
X122919714Y-108905380D01*
X122300666Y-108905380D01*
X121157809Y-107857761D02*
X122014952Y-109143476D01*
X120824476Y-108905380D02*
X120824476Y-107905380D01*
X120443523Y-107905380D01*
X120348285Y-107953000D01*
X120300666Y-108000619D01*
X120253047Y-108095857D01*
X120253047Y-108238714D01*
X120300666Y-108333952D01*
X120348285Y-108381571D01*
X120443523Y-108429190D01*
X120824476Y-108429190D01*
X119253047Y-108810142D02*
X119300666Y-108857761D01*
X119443523Y-108905380D01*
X119538761Y-108905380D01*
X119681618Y-108857761D01*
X119776856Y-108762523D01*
X119824476Y-108667285D01*
X119872095Y-108476809D01*
X119872095Y-108333952D01*
X119824476Y-108143476D01*
X119776856Y-108048238D01*
X119681618Y-107953000D01*
X119538761Y-107905380D01*
X119443523Y-107905380D01*
X119300666Y-107953000D01*
X119253047Y-108000619D01*
X118300666Y-108905380D02*
X118872095Y-108905380D01*
X118586380Y-108905380D02*
X118586380Y-107905380D01*
X118681618Y-108048238D01*
X118776856Y-108143476D01*
X118872095Y-108191095D01*
X112283714Y-113985380D02*
X112283714Y-112985380D01*
X111902761Y-112985380D01*
X111807523Y-113033000D01*
X111759904Y-113080619D01*
X111712285Y-113175857D01*
X111712285Y-113318714D01*
X111759904Y-113413952D01*
X111807523Y-113461571D01*
X111902761Y-113509190D01*
X112283714Y-113509190D01*
X110712285Y-113890142D02*
X110759904Y-113937761D01*
X110902761Y-113985380D01*
X110997999Y-113985380D01*
X111140857Y-113937761D01*
X111236095Y-113842523D01*
X111283714Y-113747285D01*
X111331333Y-113556809D01*
X111331333Y-113413952D01*
X111283714Y-113223476D01*
X111236095Y-113128238D01*
X111140857Y-113033000D01*
X110997999Y-112985380D01*
X110902761Y-112985380D01*
X110759904Y-113033000D01*
X110712285Y-113080619D01*
X109855142Y-113318714D02*
X109855142Y-113985380D01*
X110093238Y-112937761D02*
X110331333Y-113652047D01*
X109712285Y-113652047D01*
X180117713Y-66048000D02*
X180212951Y-66000380D01*
X180355809Y-66000380D01*
X180498666Y-66048000D01*
X180593904Y-66143238D01*
X180641523Y-66238476D01*
X180689142Y-66428952D01*
X180689142Y-66571809D01*
X180641523Y-66762285D01*
X180593904Y-66857523D01*
X180498666Y-66952761D01*
X180355809Y-67000380D01*
X180260570Y-67000380D01*
X180117713Y-66952761D01*
X180070094Y-66905142D01*
X180070094Y-66571809D01*
X180260570Y-66571809D01*
X179641523Y-67000380D02*
X179641523Y-66000380D01*
X179070094Y-67000380D01*
X179070094Y-66000380D01*
X178593904Y-67000380D02*
X178593904Y-66000380D01*
X178355809Y-66000380D01*
X178212951Y-66048000D01*
X178117713Y-66143238D01*
X178070094Y-66238476D01*
X178022475Y-66428952D01*
X178022475Y-66571809D01*
X178070094Y-66762285D01*
X178117713Y-66857523D01*
X178212951Y-66952761D01*
X178355809Y-67000380D01*
X178593904Y-67000380D01*
D11*
X187078714Y-141057380D02*
X186745380Y-142057380D01*
X186412047Y-141057380D01*
X185554904Y-142057380D02*
X186126333Y-142057380D01*
X185840619Y-142057380D02*
X185840619Y-141057380D01*
X185935857Y-141200238D01*
X186031095Y-141295476D01*
X186126333Y-141343095D01*
X184554904Y-142057380D02*
X184888238Y-141581190D01*
X185126333Y-142057380D02*
X185126333Y-141057380D01*
X184745380Y-141057380D01*
X184650142Y-141105000D01*
X184602523Y-141152619D01*
X184554904Y-141247857D01*
X184554904Y-141390714D01*
X184602523Y-141485952D01*
X184650142Y-141533571D01*
X184745380Y-141581190D01*
X185126333Y-141581190D01*
X183602523Y-142057380D02*
X184173952Y-142057380D01*
X183888238Y-142057380D02*
X183888238Y-141057380D01*
X183983476Y-141200238D01*
X184078714Y-141295476D01*
X184173952Y-141343095D01*
D10*
X176448571Y-95797523D02*
X176448571Y-95035619D01*
X176067619Y-95416571D02*
X176829523Y-95416571D01*
X177067619Y-94654666D02*
X177067619Y-94035619D01*
X176686666Y-94368952D01*
X176686666Y-94226095D01*
X176639047Y-94130857D01*
X176591428Y-94083238D01*
X176496190Y-94035619D01*
X176258095Y-94035619D01*
X176162857Y-94083238D01*
X176115238Y-94130857D01*
X176067619Y-94226095D01*
X176067619Y-94511809D01*
X176115238Y-94607047D01*
X176162857Y-94654666D01*
X177067619Y-93749904D02*
X176067619Y-93416571D01*
X177067619Y-93083238D01*
X177067619Y-92845142D02*
X177067619Y-92226095D01*
X176686666Y-92559428D01*
X176686666Y-92416571D01*
X176639047Y-92321333D01*
X176591428Y-92273714D01*
X176496190Y-92226095D01*
X176258095Y-92226095D01*
X176162857Y-92273714D01*
X176115238Y-92321333D01*
X176067619Y-92416571D01*
X176067619Y-92702285D01*
X176115238Y-92797523D01*
X176162857Y-92845142D01*
X185125333Y-124145380D02*
X185125333Y-123145380D01*
X184696761Y-123240619D02*
X184649142Y-123193000D01*
X184553904Y-123145380D01*
X184315809Y-123145380D01*
X184220571Y-123193000D01*
X184172952Y-123240619D01*
X184125333Y-123335857D01*
X184125333Y-123431095D01*
X184172952Y-123573952D01*
X184744380Y-124145380D01*
X184125333Y-124145380D01*
X183125333Y-124050142D02*
X183172952Y-124097761D01*
X183315809Y-124145380D01*
X183411047Y-124145380D01*
X183553904Y-124097761D01*
X183649142Y-124002523D01*
X183696761Y-123907285D01*
X183744380Y-123716809D01*
X183744380Y-123573952D01*
X183696761Y-123383476D01*
X183649142Y-123288238D01*
X183553904Y-123193000D01*
X183411047Y-123145380D01*
X183315809Y-123145380D01*
X183172952Y-123193000D01*
X183125333Y-123240619D01*
X182934857Y-124240619D02*
X182172952Y-124240619D01*
X181982476Y-124097761D02*
X181839618Y-124145380D01*
X181601523Y-124145380D01*
X181506285Y-124097761D01*
X181458666Y-124050142D01*
X181411047Y-123954904D01*
X181411047Y-123859666D01*
X181458666Y-123764428D01*
X181506285Y-123716809D01*
X181601523Y-123669190D01*
X181791999Y-123621571D01*
X181887238Y-123573952D01*
X181934857Y-123526333D01*
X181982476Y-123431095D01*
X181982476Y-123335857D01*
X181934857Y-123240619D01*
X181887238Y-123193000D01*
X181791999Y-123145380D01*
X181553904Y-123145380D01*
X181411047Y-123193000D01*
X180411047Y-124050142D02*
X180458666Y-124097761D01*
X180601523Y-124145380D01*
X180696761Y-124145380D01*
X180839618Y-124097761D01*
X180934857Y-124002523D01*
X180982476Y-123907285D01*
X181030095Y-123716809D01*
X181030095Y-123573952D01*
X180982476Y-123383476D01*
X180934857Y-123288238D01*
X180839618Y-123193000D01*
X180696761Y-123145380D01*
X180601523Y-123145380D01*
X180458666Y-123193000D01*
X180411047Y-123240619D01*
X179506285Y-124145380D02*
X179982476Y-124145380D01*
X179982476Y-123145380D01*
X178458666Y-123097761D02*
X179315809Y-124383476D01*
X178125333Y-124145380D02*
X178125333Y-123145380D01*
X177744380Y-123145380D01*
X177649142Y-123193000D01*
X177601523Y-123240619D01*
X177553904Y-123335857D01*
X177553904Y-123478714D01*
X177601523Y-123573952D01*
X177649142Y-123621571D01*
X177744380Y-123669190D01*
X178125333Y-123669190D01*
X176791999Y-123621571D02*
X176649142Y-123669190D01*
X176601523Y-123716809D01*
X176553904Y-123812047D01*
X176553904Y-123954904D01*
X176601523Y-124050142D01*
X176649142Y-124097761D01*
X176744380Y-124145380D01*
X177125333Y-124145380D01*
X177125333Y-123145380D01*
X176791999Y-123145380D01*
X176696761Y-123193000D01*
X176649142Y-123240619D01*
X176601523Y-123335857D01*
X176601523Y-123431095D01*
X176649142Y-123526333D01*
X176696761Y-123573952D01*
X176791999Y-123621571D01*
X177125333Y-123621571D01*
X175982476Y-123573952D02*
X176077714Y-123526333D01*
X176125333Y-123478714D01*
X176172952Y-123383476D01*
X176172952Y-123335857D01*
X176125333Y-123240619D01*
X176077714Y-123193000D01*
X175982476Y-123145380D01*
X175791999Y-123145380D01*
X175696761Y-123193000D01*
X175649142Y-123240619D01*
X175601523Y-123335857D01*
X175601523Y-123383476D01*
X175649142Y-123478714D01*
X175696761Y-123526333D01*
X175791999Y-123573952D01*
X175982476Y-123573952D01*
X176077714Y-123621571D01*
X176125333Y-123669190D01*
X176172952Y-123764428D01*
X176172952Y-123954904D01*
X176125333Y-124050142D01*
X176077714Y-124097761D01*
X175982476Y-124145380D01*
X175791999Y-124145380D01*
X175696761Y-124097761D01*
X175649142Y-124050142D01*
X175601523Y-123954904D01*
X175601523Y-123764428D01*
X175649142Y-123669190D01*
X175696761Y-123621571D01*
X175791999Y-123573952D01*
X169758666Y-108905380D02*
X169758666Y-107905380D01*
X169377714Y-107905380D01*
X169282476Y-107953000D01*
X169234857Y-108000619D01*
X169187238Y-108095857D01*
X169187238Y-108238714D01*
X169234857Y-108333952D01*
X169282476Y-108381571D01*
X169377714Y-108429190D01*
X169758666Y-108429190D01*
X168758666Y-108905380D02*
X168758666Y-107905380D01*
X168520571Y-107905380D01*
X168377714Y-107953000D01*
X168282476Y-108048238D01*
X168234857Y-108143476D01*
X168187238Y-108333952D01*
X168187238Y-108476809D01*
X168234857Y-108667285D01*
X168282476Y-108762523D01*
X168377714Y-108857761D01*
X168520571Y-108905380D01*
X168758666Y-108905380D01*
X167806286Y-108000619D02*
X167758666Y-107953000D01*
X167663428Y-107905380D01*
X167425333Y-107905380D01*
X167330095Y-107953000D01*
X167282476Y-108000619D01*
X167234857Y-108095857D01*
X167234857Y-108191095D01*
X167282476Y-108333952D01*
X167853905Y-108905380D01*
X167234857Y-108905380D01*
X166092000Y-107857761D02*
X166949143Y-109143476D01*
X165806286Y-108857761D02*
X165663428Y-108905380D01*
X165425333Y-108905380D01*
X165330095Y-108857761D01*
X165282476Y-108810142D01*
X165234857Y-108714904D01*
X165234857Y-108619666D01*
X165282476Y-108524428D01*
X165330095Y-108476809D01*
X165425333Y-108429190D01*
X165615809Y-108381571D01*
X165711047Y-108333952D01*
X165758666Y-108286333D01*
X165806286Y-108191095D01*
X165806286Y-108095857D01*
X165758666Y-108000619D01*
X165711047Y-107953000D01*
X165615809Y-107905380D01*
X165377714Y-107905380D01*
X165234857Y-107953000D01*
X164806286Y-108905380D02*
X164806286Y-107905380D01*
X164568190Y-107905380D01*
X164425333Y-107953000D01*
X164330095Y-108048238D01*
X164282476Y-108143476D01*
X164234857Y-108333952D01*
X164234857Y-108476809D01*
X164282476Y-108667285D01*
X164330095Y-108762523D01*
X164425333Y-108857761D01*
X164568190Y-108905380D01*
X164806286Y-108905380D01*
X163806286Y-108905380D02*
X163806286Y-107905380D01*
X163139619Y-107905380D02*
X162949143Y-107905380D01*
X162853905Y-107953000D01*
X162758666Y-108048238D01*
X162711047Y-108238714D01*
X162711047Y-108572047D01*
X162758666Y-108762523D01*
X162853905Y-108857761D01*
X162949143Y-108905380D01*
X163139619Y-108905380D01*
X163234857Y-108857761D01*
X163330095Y-108762523D01*
X163377714Y-108572047D01*
X163377714Y-108238714D01*
X163330095Y-108048238D01*
X163234857Y-107953000D01*
X163139619Y-107905380D01*
X162520571Y-109000619D02*
X161758666Y-109000619D01*
X160949143Y-108810142D02*
X160996762Y-108857761D01*
X161139619Y-108905380D01*
X161234857Y-108905380D01*
X161377714Y-108857761D01*
X161472952Y-108762523D01*
X161520571Y-108667285D01*
X161568190Y-108476809D01*
X161568190Y-108333952D01*
X161520571Y-108143476D01*
X161472952Y-108048238D01*
X161377714Y-107953000D01*
X161234857Y-107905380D01*
X161139619Y-107905380D01*
X160996762Y-107953000D01*
X160949143Y-108000619D01*
X160520571Y-108905380D02*
X160520571Y-107905380D01*
X160187238Y-108619666D01*
X159853905Y-107905380D01*
X159853905Y-108905380D01*
X159377714Y-108905380D02*
X159377714Y-107905380D01*
X159139619Y-107905380D01*
X158996762Y-107953000D01*
X158901524Y-108048238D01*
X158853905Y-108143476D01*
X158806286Y-108333952D01*
X158806286Y-108476809D01*
X158853905Y-108667285D01*
X158901524Y-108762523D01*
X158996762Y-108857761D01*
X159139619Y-108905380D01*
X159377714Y-108905380D01*
X183792000Y-116477761D02*
X183649142Y-116525380D01*
X183411047Y-116525380D01*
X183315809Y-116477761D01*
X183268190Y-116430142D01*
X183220571Y-116334904D01*
X183220571Y-116239666D01*
X183268190Y-116144428D01*
X183315809Y-116096809D01*
X183411047Y-116049190D01*
X183601523Y-116001571D01*
X183696762Y-115953952D01*
X183744381Y-115906333D01*
X183792000Y-115811095D01*
X183792000Y-115715857D01*
X183744381Y-115620619D01*
X183696762Y-115573000D01*
X183601523Y-115525380D01*
X183363428Y-115525380D01*
X183220571Y-115573000D01*
X182792000Y-116525380D02*
X182792000Y-115525380D01*
X182553904Y-115525380D01*
X182411047Y-115573000D01*
X182315809Y-115668238D01*
X182268190Y-115763476D01*
X182220571Y-115953952D01*
X182220571Y-116096809D01*
X182268190Y-116287285D01*
X182315809Y-116382523D01*
X182411047Y-116477761D01*
X182553904Y-116525380D01*
X182792000Y-116525380D01*
X182030095Y-116620619D02*
X181268190Y-116620619D01*
X180458666Y-116430142D02*
X180506285Y-116477761D01*
X180649142Y-116525380D01*
X180744381Y-116525380D01*
X180887238Y-116477761D01*
X180982476Y-116382523D01*
X181030095Y-116287285D01*
X181077714Y-116096809D01*
X181077714Y-115953952D01*
X181030095Y-115763476D01*
X180982476Y-115668238D01*
X180887238Y-115573000D01*
X180744381Y-115525380D01*
X180649142Y-115525380D01*
X180506285Y-115573000D01*
X180458666Y-115620619D01*
X180030095Y-116525380D02*
X180030095Y-115525380D01*
X179792000Y-115525380D01*
X179649142Y-115573000D01*
X179553904Y-115668238D01*
X179506285Y-115763476D01*
X179458666Y-115953952D01*
X179458666Y-116096809D01*
X179506285Y-116287285D01*
X179553904Y-116382523D01*
X179649142Y-116477761D01*
X179792000Y-116525380D01*
X180030095Y-116525380D01*
X178315809Y-115477761D02*
X179172952Y-116763476D01*
X177982476Y-116525380D02*
X177982476Y-115525380D01*
X177601523Y-115525380D01*
X177506285Y-115573000D01*
X177458666Y-115620619D01*
X177411047Y-115715857D01*
X177411047Y-115858714D01*
X177458666Y-115953952D01*
X177506285Y-116001571D01*
X177601523Y-116049190D01*
X177982476Y-116049190D01*
X177030095Y-116239666D02*
X176553904Y-116239666D01*
X177125333Y-116525380D02*
X176792000Y-115525380D01*
X176458666Y-116525380D01*
X175982476Y-115953952D02*
X176077714Y-115906333D01*
X176125333Y-115858714D01*
X176172952Y-115763476D01*
X176172952Y-115715857D01*
X176125333Y-115620619D01*
X176077714Y-115573000D01*
X175982476Y-115525380D01*
X175792000Y-115525380D01*
X175696761Y-115573000D01*
X175649142Y-115620619D01*
X175601523Y-115715857D01*
X175601523Y-115763476D01*
X175649142Y-115858714D01*
X175696761Y-115906333D01*
X175792000Y-115953952D01*
X175982476Y-115953952D01*
X176077714Y-116001571D01*
X176125333Y-116049190D01*
X176172952Y-116144428D01*
X176172952Y-116334904D01*
X176125333Y-116430142D01*
X176077714Y-116477761D01*
X175982476Y-116525380D01*
X175792000Y-116525380D01*
X175696761Y-116477761D01*
X175649142Y-116430142D01*
X175601523Y-116334904D01*
X175601523Y-116144428D01*
X175649142Y-116049190D01*
X175696761Y-116001571D01*
X175792000Y-115953952D01*
X178125333Y-103825380D02*
X178125333Y-102825380D01*
X177744380Y-102825380D01*
X177649142Y-102873000D01*
X177601523Y-102920619D01*
X177553904Y-103015857D01*
X177553904Y-103158714D01*
X177601523Y-103253952D01*
X177649142Y-103301571D01*
X177744380Y-103349190D01*
X178125333Y-103349190D01*
X176791999Y-103301571D02*
X176649142Y-103349190D01*
X176601523Y-103396809D01*
X176553904Y-103492047D01*
X176553904Y-103634904D01*
X176601523Y-103730142D01*
X176649142Y-103777761D01*
X176744380Y-103825380D01*
X177125333Y-103825380D01*
X177125333Y-102825380D01*
X176791999Y-102825380D01*
X176696761Y-102873000D01*
X176649142Y-102920619D01*
X176601523Y-103015857D01*
X176601523Y-103111095D01*
X176649142Y-103206333D01*
X176696761Y-103253952D01*
X176791999Y-103301571D01*
X177125333Y-103301571D01*
X175696761Y-103158714D02*
X175696761Y-103825380D01*
X175934857Y-102777761D02*
X176172952Y-103492047D01*
X175553904Y-103492047D01*
X120395904Y-125733000D02*
X120491142Y-125685380D01*
X120634000Y-125685380D01*
X120776857Y-125733000D01*
X120872095Y-125828238D01*
X120919714Y-125923476D01*
X120967333Y-126113952D01*
X120967333Y-126256809D01*
X120919714Y-126447285D01*
X120872095Y-126542523D01*
X120776857Y-126637761D01*
X120634000Y-126685380D01*
X120538761Y-126685380D01*
X120395904Y-126637761D01*
X120348285Y-126590142D01*
X120348285Y-126256809D01*
X120538761Y-126256809D01*
X119919714Y-126685380D02*
X119919714Y-125685380D01*
X119348285Y-126685380D01*
X119348285Y-125685380D01*
X118872095Y-126685380D02*
X118872095Y-125685380D01*
X118634000Y-125685380D01*
X118491142Y-125733000D01*
X118395904Y-125828238D01*
X118348285Y-125923476D01*
X118300666Y-126113952D01*
X118300666Y-126256809D01*
X118348285Y-126447285D01*
X118395904Y-126542523D01*
X118491142Y-126637761D01*
X118634000Y-126685380D01*
X118872095Y-126685380D01*
D12*
X186910190Y-140096761D02*
X186910190Y-138096761D01*
X185767333Y-140096761D01*
X185767333Y-138096761D01*
X183957809Y-138763428D02*
X183957809Y-140096761D01*
X184814952Y-138763428D02*
X184814952Y-139811047D01*
X184719714Y-140001523D01*
X184529238Y-140096761D01*
X184243523Y-140096761D01*
X184053047Y-140001523D01*
X183957809Y-139906285D01*
X183291142Y-138763428D02*
X182529238Y-138763428D01*
X183005428Y-138096761D02*
X183005428Y-139811047D01*
X182910190Y-140001523D01*
X182719714Y-140096761D01*
X182529238Y-140096761D01*
X182148285Y-138763428D02*
X181386380Y-138763428D01*
X181862571Y-138096761D02*
X181862571Y-139811047D01*
X181767333Y-140001523D01*
X181576857Y-140096761D01*
X181386380Y-140096761D01*
X180910190Y-138096761D02*
X179576857Y-140096761D01*
X179576857Y-138096761D02*
X180910190Y-140096761D01*
X177386380Y-140001523D02*
X177100666Y-140096761D01*
X176624476Y-140096761D01*
X176434000Y-140001523D01*
X176338761Y-139906285D01*
X176243523Y-139715809D01*
X176243523Y-139525333D01*
X176338761Y-139334857D01*
X176434000Y-139239619D01*
X176624476Y-139144380D01*
X177005428Y-139049142D01*
X177195904Y-138953904D01*
X177291142Y-138858666D01*
X177386380Y-138668190D01*
X177386380Y-138477714D01*
X177291142Y-138287238D01*
X177195904Y-138192000D01*
X177005428Y-138096761D01*
X176529238Y-138096761D01*
X176243523Y-138192000D01*
X175672095Y-138096761D02*
X174529238Y-138096761D01*
X175100666Y-140096761D02*
X175100666Y-138096761D01*
X173862571Y-140096761D02*
X173862571Y-138096761D01*
X173195904Y-139525333D01*
X172529238Y-138096761D01*
X172529238Y-140096761D01*
X171767333Y-138096761D02*
X170529238Y-138096761D01*
X171195904Y-138858666D01*
X170910190Y-138858666D01*
X170719714Y-138953904D01*
X170624476Y-139049142D01*
X170529238Y-139239619D01*
X170529238Y-139715809D01*
X170624476Y-139906285D01*
X170719714Y-140001523D01*
X170910190Y-140096761D01*
X171481619Y-140096761D01*
X171672095Y-140001523D01*
X171767333Y-139906285D01*
X169767333Y-138287238D02*
X169672095Y-138192000D01*
X169481619Y-138096761D01*
X169005428Y-138096761D01*
X168814952Y-138192000D01*
X168719714Y-138287238D01*
X168624476Y-138477714D01*
X168624476Y-138668190D01*
X168719714Y-138953904D01*
X169862571Y-140096761D01*
X168624476Y-140096761D01*
X167100666Y-139049142D02*
X167767333Y-139049142D01*
X167767333Y-140096761D02*
X167767333Y-138096761D01*
X166814952Y-138096761D01*
X165195904Y-138763428D02*
X165195904Y-140096761D01*
X165672095Y-138001523D02*
X166148285Y-139430095D01*
X164910190Y-139430095D01*
X161481619Y-140096761D02*
X162148285Y-139144380D01*
X162624476Y-140096761D02*
X162624476Y-138096761D01*
X161862571Y-138096761D01*
X161672095Y-138192000D01*
X161576857Y-138287238D01*
X161481619Y-138477714D01*
X161481619Y-138763428D01*
X161576857Y-138953904D01*
X161672095Y-139049142D01*
X161862571Y-139144380D01*
X162624476Y-139144380D01*
X160719714Y-140001523D02*
X160434000Y-140096761D01*
X159957809Y-140096761D01*
X159767333Y-140001523D01*
X159672095Y-139906285D01*
X159576857Y-139715809D01*
X159576857Y-139525333D01*
X159672095Y-139334857D01*
X159767333Y-139239619D01*
X159957809Y-139144380D01*
X160338761Y-139049142D01*
X160529238Y-138953904D01*
X160624476Y-138858666D01*
X160719714Y-138668190D01*
X160719714Y-138477714D01*
X160624476Y-138287238D01*
X160529238Y-138192000D01*
X160338761Y-138096761D01*
X159862571Y-138096761D01*
X159576857Y-138192000D01*
X157862571Y-138763428D02*
X157862571Y-140096761D01*
X158338761Y-138001523D02*
X158814952Y-139430095D01*
X157576857Y-139430095D01*
X156529238Y-138953904D02*
X156719714Y-138858666D01*
X156814952Y-138763428D01*
X156910190Y-138572952D01*
X156910190Y-138477714D01*
X156814952Y-138287238D01*
X156719714Y-138192000D01*
X156529238Y-138096761D01*
X156148285Y-138096761D01*
X155957809Y-138192000D01*
X155862571Y-138287238D01*
X155767333Y-138477714D01*
X155767333Y-138572952D01*
X155862571Y-138763428D01*
X155957809Y-138858666D01*
X156148285Y-138953904D01*
X156529238Y-138953904D01*
X156719714Y-139049142D01*
X156814952Y-139144380D01*
X156910190Y-139334857D01*
X156910190Y-139715809D01*
X156814952Y-139906285D01*
X156719714Y-140001523D01*
X156529238Y-140096761D01*
X156148285Y-140096761D01*
X155957809Y-140001523D01*
X155862571Y-139906285D01*
X155767333Y-139715809D01*
X155767333Y-139334857D01*
X155862571Y-139144380D01*
X155957809Y-139049142D01*
X156148285Y-138953904D01*
X153957809Y-138096761D02*
X154910190Y-138096761D01*
X155005428Y-139049142D01*
X154910190Y-138953904D01*
X154719714Y-138858666D01*
X154243523Y-138858666D01*
X154053047Y-138953904D01*
X153957809Y-139049142D01*
X153862571Y-139239619D01*
X153862571Y-139715809D01*
X153957809Y-139906285D01*
X154053047Y-140001523D01*
X154243523Y-140096761D01*
X154719714Y-140096761D01*
X154910190Y-140001523D01*
X155005428Y-139906285D01*
D10*
X130776857Y-118065380D02*
X130776857Y-118874904D01*
X130729238Y-118970142D01*
X130681619Y-119017761D01*
X130586381Y-119065380D01*
X130395905Y-119065380D01*
X130300667Y-119017761D01*
X130253048Y-118970142D01*
X130205429Y-118874904D01*
X130205429Y-118065380D01*
X129776857Y-119017761D02*
X129634000Y-119065380D01*
X129395905Y-119065380D01*
X129300667Y-119017761D01*
X129253048Y-118970142D01*
X129205429Y-118874904D01*
X129205429Y-118779666D01*
X129253048Y-118684428D01*
X129300667Y-118636809D01*
X129395905Y-118589190D01*
X129586381Y-118541571D01*
X129681619Y-118493952D01*
X129729238Y-118446333D01*
X129776857Y-118351095D01*
X129776857Y-118255857D01*
X129729238Y-118160619D01*
X129681619Y-118113000D01*
X129586381Y-118065380D01*
X129348286Y-118065380D01*
X129205429Y-118113000D01*
X128824476Y-118779666D02*
X128348286Y-118779666D01*
X128919714Y-119065380D02*
X128586381Y-118065380D01*
X128253048Y-119065380D01*
X127348286Y-119065380D02*
X127681619Y-118589190D01*
X127919714Y-119065380D02*
X127919714Y-118065380D01*
X127538762Y-118065380D01*
X127443524Y-118113000D01*
X127395905Y-118160619D01*
X127348286Y-118255857D01*
X127348286Y-118398714D01*
X127395905Y-118493952D01*
X127443524Y-118541571D01*
X127538762Y-118589190D01*
X127919714Y-118589190D01*
X127062572Y-118065380D02*
X126491143Y-118065380D01*
X126776857Y-119065380D02*
X126776857Y-118065380D01*
X126205429Y-118160619D02*
X126157810Y-118113000D01*
X126062572Y-118065380D01*
X125824476Y-118065380D01*
X125729238Y-118113000D01*
X125681619Y-118160619D01*
X125634000Y-118255857D01*
X125634000Y-118351095D01*
X125681619Y-118493952D01*
X126253048Y-119065380D01*
X125634000Y-119065380D01*
X125443524Y-119160619D02*
X124681619Y-119160619D01*
X123872095Y-119065380D02*
X124205429Y-118589190D01*
X124443524Y-119065380D02*
X124443524Y-118065380D01*
X124062572Y-118065380D01*
X123967333Y-118113000D01*
X123919714Y-118160619D01*
X123872095Y-118255857D01*
X123872095Y-118398714D01*
X123919714Y-118493952D01*
X123967333Y-118541571D01*
X124062572Y-118589190D01*
X124443524Y-118589190D01*
X123586381Y-118065380D02*
X123014952Y-118065380D01*
X123300667Y-119065380D02*
X123300667Y-118065380D01*
X122729238Y-119017761D02*
X122586381Y-119065380D01*
X122348286Y-119065380D01*
X122253048Y-119017761D01*
X122205429Y-118970142D01*
X122157810Y-118874904D01*
X122157810Y-118779666D01*
X122205429Y-118684428D01*
X122253048Y-118636809D01*
X122348286Y-118589190D01*
X122538762Y-118541571D01*
X122634000Y-118493952D01*
X122681619Y-118446333D01*
X122729238Y-118351095D01*
X122729238Y-118255857D01*
X122681619Y-118160619D01*
X122634000Y-118113000D01*
X122538762Y-118065380D01*
X122300667Y-118065380D01*
X122157810Y-118113000D01*
X121014952Y-118017761D02*
X121872095Y-119303476D01*
X120681619Y-119065380D02*
X120681619Y-118065380D01*
X120300667Y-118065380D01*
X120205429Y-118113000D01*
X120157810Y-118160619D01*
X120110191Y-118255857D01*
X120110191Y-118398714D01*
X120157810Y-118493952D01*
X120205429Y-118541571D01*
X120300667Y-118589190D01*
X120681619Y-118589190D01*
X119729238Y-118779666D02*
X119253048Y-118779666D01*
X119824476Y-119065380D02*
X119491143Y-118065380D01*
X119157810Y-119065380D01*
X118300667Y-119065380D02*
X118872095Y-119065380D01*
X118586381Y-119065380D02*
X118586381Y-118065380D01*
X118681619Y-118208238D01*
X118776857Y-118303476D01*
X118872095Y-118351095D01*
X120919714Y-100904428D02*
X120157809Y-100904428D01*
X120538761Y-101285380D02*
X120538761Y-100523476D01*
X119205428Y-100285380D02*
X119681619Y-100285380D01*
X119729238Y-100761571D01*
X119681619Y-100713952D01*
X119586380Y-100666333D01*
X119348285Y-100666333D01*
X119253047Y-100713952D01*
X119205428Y-100761571D01*
X119157809Y-100856809D01*
X119157809Y-101094904D01*
X119205428Y-101190142D01*
X119253047Y-101237761D01*
X119348285Y-101285380D01*
X119586380Y-101285380D01*
X119681619Y-101237761D01*
X119729238Y-101190142D01*
X118872095Y-100285380D02*
X118538761Y-101285380D01*
X118205428Y-100285380D01*
X112283714Y-119065380D02*
X112283714Y-118065380D01*
X111902761Y-118065380D01*
X111807523Y-118113000D01*
X111759904Y-118160619D01*
X111712285Y-118255857D01*
X111712285Y-118398714D01*
X111759904Y-118493952D01*
X111807523Y-118541571D01*
X111902761Y-118589190D01*
X112283714Y-118589190D01*
X110950380Y-118541571D02*
X110807523Y-118589190D01*
X110759904Y-118636809D01*
X110712285Y-118732047D01*
X110712285Y-118874904D01*
X110759904Y-118970142D01*
X110807523Y-119017761D01*
X110902761Y-119065380D01*
X111283714Y-119065380D01*
X111283714Y-118065380D01*
X110950380Y-118065380D01*
X110855142Y-118113000D01*
X110807523Y-118160619D01*
X110759904Y-118255857D01*
X110759904Y-118351095D01*
X110807523Y-118446333D01*
X110855142Y-118493952D01*
X110950380Y-118541571D01*
X111283714Y-118541571D01*
X110093238Y-118065380D02*
X109997999Y-118065380D01*
X109902761Y-118113000D01*
X109855142Y-118160619D01*
X109807523Y-118255857D01*
X109759904Y-118446333D01*
X109759904Y-118684428D01*
X109807523Y-118874904D01*
X109855142Y-118970142D01*
X109902761Y-119017761D01*
X109997999Y-119065380D01*
X110093238Y-119065380D01*
X110188476Y-119017761D01*
X110236095Y-118970142D01*
X110283714Y-118874904D01*
X110331333Y-118684428D01*
X110331333Y-118446333D01*
X110283714Y-118255857D01*
X110236095Y-118160619D01*
X110188476Y-118113000D01*
X110093238Y-118065380D01*
X169758666Y-101285380D02*
X169758666Y-100285380D01*
X169377714Y-100285380D01*
X169282476Y-100333000D01*
X169234857Y-100380619D01*
X169187238Y-100475857D01*
X169187238Y-100618714D01*
X169234857Y-100713952D01*
X169282476Y-100761571D01*
X169377714Y-100809190D01*
X169758666Y-100809190D01*
X168806285Y-100999666D02*
X168330095Y-100999666D01*
X168901523Y-101285380D02*
X168568190Y-100285380D01*
X168234857Y-101285380D01*
X167377714Y-101285380D02*
X167949142Y-101285380D01*
X167663428Y-101285380D02*
X167663428Y-100285380D01*
X167758666Y-100428238D01*
X167853904Y-100523476D01*
X167949142Y-100571095D01*
X166996761Y-100380619D02*
X166949142Y-100333000D01*
X166853904Y-100285380D01*
X166615809Y-100285380D01*
X166520571Y-100333000D01*
X166472952Y-100380619D01*
X166425333Y-100475857D01*
X166425333Y-100571095D01*
X166472952Y-100713952D01*
X167044380Y-101285380D01*
X166425333Y-101285380D01*
X165282476Y-100237761D02*
X166139619Y-101523476D01*
X164949142Y-100285380D02*
X164949142Y-101094904D01*
X164901523Y-101190142D01*
X164853904Y-101237761D01*
X164758666Y-101285380D01*
X164568190Y-101285380D01*
X164472952Y-101237761D01*
X164425333Y-101190142D01*
X164377714Y-101094904D01*
X164377714Y-100285380D01*
X163949142Y-101237761D02*
X163806285Y-101285380D01*
X163568190Y-101285380D01*
X163472952Y-101237761D01*
X163425333Y-101190142D01*
X163377714Y-101094904D01*
X163377714Y-100999666D01*
X163425333Y-100904428D01*
X163472952Y-100856809D01*
X163568190Y-100809190D01*
X163758666Y-100761571D01*
X163853904Y-100713952D01*
X163901523Y-100666333D01*
X163949142Y-100571095D01*
X163949142Y-100475857D01*
X163901523Y-100380619D01*
X163853904Y-100333000D01*
X163758666Y-100285380D01*
X163520571Y-100285380D01*
X163377714Y-100333000D01*
X162615809Y-100761571D02*
X162472952Y-100809190D01*
X162425333Y-100856809D01*
X162377714Y-100952047D01*
X162377714Y-101094904D01*
X162425333Y-101190142D01*
X162472952Y-101237761D01*
X162568190Y-101285380D01*
X162949142Y-101285380D01*
X162949142Y-100285380D01*
X162615809Y-100285380D01*
X162520571Y-100333000D01*
X162472952Y-100380619D01*
X162425333Y-100475857D01*
X162425333Y-100571095D01*
X162472952Y-100666333D01*
X162520571Y-100713952D01*
X162615809Y-100761571D01*
X162949142Y-100761571D01*
X162187238Y-101380619D02*
X161425333Y-101380619D01*
X161187238Y-101285380D02*
X161187238Y-100285380D01*
X160949142Y-100285380D01*
X160806285Y-100333000D01*
X160711047Y-100428238D01*
X160663428Y-100523476D01*
X160615809Y-100713952D01*
X160615809Y-100856809D01*
X160663428Y-101047285D01*
X160711047Y-101142523D01*
X160806285Y-101237761D01*
X160949142Y-101285380D01*
X161187238Y-101285380D01*
X160187238Y-100904428D02*
X159425333Y-100904428D01*
X159806285Y-101285380D02*
X159806285Y-100523476D01*
X120395904Y-128273000D02*
X120491142Y-128225380D01*
X120634000Y-128225380D01*
X120776857Y-128273000D01*
X120872095Y-128368238D01*
X120919714Y-128463476D01*
X120967333Y-128653952D01*
X120967333Y-128796809D01*
X120919714Y-128987285D01*
X120872095Y-129082523D01*
X120776857Y-129177761D01*
X120634000Y-129225380D01*
X120538761Y-129225380D01*
X120395904Y-129177761D01*
X120348285Y-129130142D01*
X120348285Y-128796809D01*
X120538761Y-128796809D01*
X119919714Y-129225380D02*
X119919714Y-128225380D01*
X119348285Y-129225380D01*
X119348285Y-128225380D01*
X118872095Y-129225380D02*
X118872095Y-128225380D01*
X118634000Y-128225380D01*
X118491142Y-128273000D01*
X118395904Y-128368238D01*
X118348285Y-128463476D01*
X118300666Y-128653952D01*
X118300666Y-128796809D01*
X118348285Y-128987285D01*
X118395904Y-129082523D01*
X118491142Y-129177761D01*
X118634000Y-129225380D01*
X118872095Y-129225380D01*
X184172952Y-119065380D02*
X184172952Y-118065380D01*
X183792000Y-118065380D01*
X183696762Y-118113000D01*
X183649143Y-118160619D01*
X183601524Y-118255857D01*
X183601524Y-118398714D01*
X183649143Y-118493952D01*
X183696762Y-118541571D01*
X183792000Y-118589190D01*
X184172952Y-118589190D01*
X183268190Y-118065380D02*
X183030095Y-119065380D01*
X182839619Y-118351095D01*
X182649143Y-119065380D01*
X182411048Y-118065380D01*
X182030095Y-119065380D02*
X182030095Y-118065380D01*
X181696762Y-118779666D01*
X181363428Y-118065380D01*
X181363428Y-119065380D01*
X181125333Y-119160619D02*
X180363428Y-119160619D01*
X179601524Y-119065380D02*
X180172952Y-119065380D01*
X179887238Y-119065380D02*
X179887238Y-118065380D01*
X179982476Y-118208238D01*
X180077714Y-118303476D01*
X180172952Y-118351095D01*
X178458667Y-118017761D02*
X179315809Y-119303476D01*
X178125333Y-119065380D02*
X178125333Y-118065380D01*
X177744381Y-118065380D01*
X177649143Y-118113000D01*
X177601524Y-118160619D01*
X177553905Y-118255857D01*
X177553905Y-118398714D01*
X177601524Y-118493952D01*
X177649143Y-118541571D01*
X177744381Y-118589190D01*
X178125333Y-118589190D01*
X176792000Y-118541571D02*
X176649143Y-118589190D01*
X176601524Y-118636809D01*
X176553905Y-118732047D01*
X176553905Y-118874904D01*
X176601524Y-118970142D01*
X176649143Y-119017761D01*
X176744381Y-119065380D01*
X177125333Y-119065380D01*
X177125333Y-118065380D01*
X176792000Y-118065380D01*
X176696762Y-118113000D01*
X176649143Y-118160619D01*
X176601524Y-118255857D01*
X176601524Y-118351095D01*
X176649143Y-118446333D01*
X176696762Y-118493952D01*
X176792000Y-118541571D01*
X177125333Y-118541571D01*
X175696762Y-118065380D02*
X175887238Y-118065380D01*
X175982476Y-118113000D01*
X176030095Y-118160619D01*
X176125333Y-118303476D01*
X176172952Y-118493952D01*
X176172952Y-118874904D01*
X176125333Y-118970142D01*
X176077714Y-119017761D01*
X175982476Y-119065380D01*
X175792000Y-119065380D01*
X175696762Y-119017761D01*
X175649143Y-118970142D01*
X175601524Y-118874904D01*
X175601524Y-118636809D01*
X175649143Y-118541571D01*
X175696762Y-118493952D01*
X175792000Y-118446333D01*
X175982476Y-118446333D01*
X176077714Y-118493952D01*
X176125333Y-118541571D01*
X176172952Y-118636809D01*
X125824476Y-113985380D02*
X126300666Y-113985380D01*
X126300666Y-112985380D01*
X125491142Y-113461571D02*
X125157809Y-113461571D01*
X125014952Y-113985380D02*
X125491142Y-113985380D01*
X125491142Y-112985380D01*
X125014952Y-112985380D01*
X124586380Y-113985380D02*
X124586380Y-112985380D01*
X124348285Y-112985380D01*
X124205428Y-113033000D01*
X124110190Y-113128238D01*
X124062571Y-113223476D01*
X124014952Y-113413952D01*
X124014952Y-113556809D01*
X124062571Y-113747285D01*
X124110190Y-113842523D01*
X124205428Y-113937761D01*
X124348285Y-113985380D01*
X124586380Y-113985380D01*
X123824476Y-114080619D02*
X123062571Y-114080619D01*
X122395904Y-113318714D02*
X122395904Y-113985380D01*
X122633999Y-112937761D02*
X122872095Y-113652047D01*
X122253047Y-113652047D01*
X121157809Y-112937761D02*
X122014952Y-114223476D01*
X120824476Y-113985380D02*
X120824476Y-112985380D01*
X120443523Y-112985380D01*
X120348285Y-113033000D01*
X120300666Y-113080619D01*
X120253047Y-113175857D01*
X120253047Y-113318714D01*
X120300666Y-113413952D01*
X120348285Y-113461571D01*
X120443523Y-113509190D01*
X120824476Y-113509190D01*
X119253047Y-113890142D02*
X119300666Y-113937761D01*
X119443523Y-113985380D01*
X119538761Y-113985380D01*
X119681618Y-113937761D01*
X119776856Y-113842523D01*
X119824476Y-113747285D01*
X119872095Y-113556809D01*
X119872095Y-113413952D01*
X119824476Y-113223476D01*
X119776856Y-113128238D01*
X119681618Y-113033000D01*
X119538761Y-112985380D01*
X119443523Y-112985380D01*
X119300666Y-113033000D01*
X119253047Y-113080619D01*
X118919714Y-112985380D02*
X118300666Y-112985380D01*
X118633999Y-113366333D01*
X118491142Y-113366333D01*
X118395904Y-113413952D01*
X118348285Y-113461571D01*
X118300666Y-113556809D01*
X118300666Y-113794904D01*
X118348285Y-113890142D01*
X118395904Y-113937761D01*
X118491142Y-113985380D01*
X118776856Y-113985380D01*
X118872095Y-113937761D01*
X118919714Y-113890142D01*
X112283714Y-106365380D02*
X112283714Y-105365380D01*
X111902762Y-105365380D01*
X111807524Y-105413000D01*
X111759905Y-105460619D01*
X111712286Y-105555857D01*
X111712286Y-105698714D01*
X111759905Y-105793952D01*
X111807524Y-105841571D01*
X111902762Y-105889190D01*
X112283714Y-105889190D01*
X111331333Y-106079666D02*
X110855143Y-106079666D01*
X111426571Y-106365380D02*
X111093238Y-105365380D01*
X110759905Y-106365380D01*
X109950381Y-105365380D02*
X110426571Y-105365380D01*
X110474190Y-105841571D01*
X110426571Y-105793952D01*
X110331333Y-105746333D01*
X110093238Y-105746333D01*
X109998000Y-105793952D01*
X109950381Y-105841571D01*
X109902762Y-105936809D01*
X109902762Y-106174904D01*
X109950381Y-106270142D01*
X109998000Y-106317761D01*
X110093238Y-106365380D01*
X110331333Y-106365380D01*
X110426571Y-106317761D01*
X110474190Y-106270142D01*
X186411047Y-108857761D02*
X186268190Y-108905380D01*
X186030095Y-108905380D01*
X185934857Y-108857761D01*
X185887238Y-108810142D01*
X185839619Y-108714904D01*
X185839619Y-108619666D01*
X185887238Y-108524428D01*
X185934857Y-108476809D01*
X186030095Y-108429190D01*
X186220571Y-108381571D01*
X186315809Y-108333952D01*
X186363428Y-108286333D01*
X186411047Y-108191095D01*
X186411047Y-108095857D01*
X186363428Y-108000619D01*
X186315809Y-107953000D01*
X186220571Y-107905380D01*
X185982476Y-107905380D01*
X185839619Y-107953000D01*
X185411047Y-108905380D02*
X185411047Y-107905380D01*
X185172952Y-107905380D01*
X185030095Y-107953000D01*
X184934857Y-108048238D01*
X184887238Y-108143476D01*
X184839619Y-108333952D01*
X184839619Y-108476809D01*
X184887238Y-108667285D01*
X184934857Y-108762523D01*
X185030095Y-108857761D01*
X185172952Y-108905380D01*
X185411047Y-108905380D01*
X184411047Y-108905380D02*
X184411047Y-107905380D01*
X183744381Y-107905380D02*
X183553905Y-107905380D01*
X183458666Y-107953000D01*
X183363428Y-108048238D01*
X183315809Y-108238714D01*
X183315809Y-108572047D01*
X183363428Y-108762523D01*
X183458666Y-108857761D01*
X183553905Y-108905380D01*
X183744381Y-108905380D01*
X183839619Y-108857761D01*
X183934857Y-108762523D01*
X183982476Y-108572047D01*
X183982476Y-108238714D01*
X183934857Y-108048238D01*
X183839619Y-107953000D01*
X183744381Y-107905380D01*
X183125333Y-109000619D02*
X182363428Y-109000619D01*
X181553905Y-108810142D02*
X181601524Y-108857761D01*
X181744381Y-108905380D01*
X181839619Y-108905380D01*
X181982476Y-108857761D01*
X182077714Y-108762523D01*
X182125333Y-108667285D01*
X182172952Y-108476809D01*
X182172952Y-108333952D01*
X182125333Y-108143476D01*
X182077714Y-108048238D01*
X181982476Y-107953000D01*
X181839619Y-107905380D01*
X181744381Y-107905380D01*
X181601524Y-107953000D01*
X181553905Y-108000619D01*
X181125333Y-108905380D02*
X181125333Y-107905380D01*
X180553905Y-108905380D02*
X180982476Y-108333952D01*
X180553905Y-107905380D02*
X181125333Y-108476809D01*
X179411047Y-107857761D02*
X180268190Y-109143476D01*
X179077714Y-108905380D02*
X179077714Y-107905380D01*
X178696762Y-107905380D01*
X178601524Y-107953000D01*
X178553905Y-108000619D01*
X178506286Y-108095857D01*
X178506286Y-108238714D01*
X178553905Y-108333952D01*
X178601524Y-108381571D01*
X178696762Y-108429190D01*
X179077714Y-108429190D01*
X177506286Y-108810142D02*
X177553905Y-108857761D01*
X177696762Y-108905380D01*
X177792000Y-108905380D01*
X177934857Y-108857761D01*
X178030095Y-108762523D01*
X178077714Y-108667285D01*
X178125333Y-108476809D01*
X178125333Y-108333952D01*
X178077714Y-108143476D01*
X178030095Y-108048238D01*
X177934857Y-107953000D01*
X177792000Y-107905380D01*
X177696762Y-107905380D01*
X177553905Y-107953000D01*
X177506286Y-108000619D01*
X176553905Y-108905380D02*
X177125333Y-108905380D01*
X176839619Y-108905380D02*
X176839619Y-107905380D01*
X176934857Y-108048238D01*
X177030095Y-108143476D01*
X177125333Y-108191095D01*
X176172952Y-108000619D02*
X176125333Y-107953000D01*
X176030095Y-107905380D01*
X175792000Y-107905380D01*
X175696762Y-107953000D01*
X175649143Y-108000619D01*
X175601524Y-108095857D01*
X175601524Y-108191095D01*
X175649143Y-108333952D01*
X176220571Y-108905380D01*
X175601524Y-108905380D01*
X178125333Y-113985380D02*
X178125333Y-112985380D01*
X177744380Y-112985380D01*
X177649142Y-113033000D01*
X177601523Y-113080619D01*
X177553904Y-113175857D01*
X177553904Y-113318714D01*
X177601523Y-113413952D01*
X177649142Y-113461571D01*
X177744380Y-113509190D01*
X178125333Y-113509190D01*
X176791999Y-113461571D02*
X176649142Y-113509190D01*
X176601523Y-113556809D01*
X176553904Y-113652047D01*
X176553904Y-113794904D01*
X176601523Y-113890142D01*
X176649142Y-113937761D01*
X176744380Y-113985380D01*
X177125333Y-113985380D01*
X177125333Y-112985380D01*
X176791999Y-112985380D01*
X176696761Y-113033000D01*
X176649142Y-113080619D01*
X176601523Y-113175857D01*
X176601523Y-113271095D01*
X176649142Y-113366333D01*
X176696761Y-113413952D01*
X176791999Y-113461571D01*
X177125333Y-113461571D01*
X175649142Y-112985380D02*
X176125333Y-112985380D01*
X176172952Y-113461571D01*
X176125333Y-113413952D01*
X176030095Y-113366333D01*
X175791999Y-113366333D01*
X175696761Y-113413952D01*
X175649142Y-113461571D01*
X175601523Y-113556809D01*
X175601523Y-113794904D01*
X175649142Y-113890142D01*
X175696761Y-113937761D01*
X175791999Y-113985380D01*
X176030095Y-113985380D01*
X176125333Y-113937761D01*
X176172952Y-113890142D01*
X112283714Y-108905380D02*
X112283714Y-107905380D01*
X111902761Y-107905380D01*
X111807523Y-107953000D01*
X111759904Y-108000619D01*
X111712285Y-108095857D01*
X111712285Y-108238714D01*
X111759904Y-108333952D01*
X111807523Y-108381571D01*
X111902761Y-108429190D01*
X112283714Y-108429190D01*
X111331333Y-108619666D02*
X110855142Y-108619666D01*
X111426571Y-108905380D02*
X111093238Y-107905380D01*
X110759904Y-108905380D01*
X109997999Y-107905380D02*
X110188476Y-107905380D01*
X110283714Y-107953000D01*
X110331333Y-108000619D01*
X110426571Y-108143476D01*
X110474190Y-108333952D01*
X110474190Y-108714904D01*
X110426571Y-108810142D01*
X110378952Y-108857761D01*
X110283714Y-108905380D01*
X110093238Y-108905380D01*
X109997999Y-108857761D01*
X109950380Y-108810142D01*
X109902761Y-108714904D01*
X109902761Y-108476809D01*
X109950380Y-108381571D01*
X109997999Y-108333952D01*
X110093238Y-108286333D01*
X110283714Y-108286333D01*
X110378952Y-108333952D01*
X110426571Y-108381571D01*
X110474190Y-108476809D01*
X108759904Y-107857761D02*
X109617047Y-109143476D01*
X108426571Y-108905380D02*
X108426571Y-107905380D01*
X108045618Y-107905380D01*
X107950380Y-107953000D01*
X107902761Y-108000619D01*
X107855142Y-108095857D01*
X107855142Y-108238714D01*
X107902761Y-108333952D01*
X107950380Y-108381571D01*
X108045618Y-108429190D01*
X108426571Y-108429190D01*
X107521809Y-107905380D02*
X107283714Y-108905380D01*
X107093238Y-108191095D01*
X106902761Y-108905380D01*
X106664666Y-107905380D01*
X106283714Y-108905380D02*
X106283714Y-107905380D01*
X105950380Y-108619666D01*
X105617047Y-107905380D01*
X105617047Y-108905380D01*
X105378952Y-109000619D02*
X104617047Y-109000619D01*
X104426571Y-108000619D02*
X104378952Y-107953000D01*
X104283714Y-107905380D01*
X104045618Y-107905380D01*
X103950380Y-107953000D01*
X103902761Y-108000619D01*
X103855142Y-108095857D01*
X103855142Y-108191095D01*
X103902761Y-108333952D01*
X104474190Y-108905380D01*
X103855142Y-108905380D01*
X169758666Y-106365380D02*
X169758666Y-105365380D01*
X169377713Y-105365380D01*
X169282475Y-105413000D01*
X169234856Y-105460619D01*
X169187237Y-105555857D01*
X169187237Y-105698714D01*
X169234856Y-105793952D01*
X169282475Y-105841571D01*
X169377713Y-105889190D01*
X169758666Y-105889190D01*
X168806285Y-106079666D02*
X168330094Y-106079666D01*
X168901523Y-106365380D02*
X168568190Y-105365380D01*
X168234856Y-106365380D01*
X167377713Y-106365380D02*
X167949142Y-106365380D01*
X167663428Y-106365380D02*
X167663428Y-105365380D01*
X167758666Y-105508238D01*
X167853904Y-105603476D01*
X167949142Y-105651095D01*
X166758666Y-105365380D02*
X166663428Y-105365380D01*
X166568190Y-105413000D01*
X166520571Y-105460619D01*
X166472952Y-105555857D01*
X166425332Y-105746333D01*
X166425332Y-105984428D01*
X166472952Y-106174904D01*
X166520571Y-106270142D01*
X166568190Y-106317761D01*
X166663428Y-106365380D01*
X166758666Y-106365380D01*
X166853904Y-106317761D01*
X166901523Y-106270142D01*
X166949142Y-106174904D01*
X166996761Y-105984428D01*
X166996761Y-105746333D01*
X166949142Y-105555857D01*
X166901523Y-105460619D01*
X166853904Y-105413000D01*
X166758666Y-105365380D01*
X165282475Y-105317761D02*
X166139618Y-106603476D01*
X164949142Y-105365380D02*
X164949142Y-106174904D01*
X164901523Y-106270142D01*
X164853904Y-106317761D01*
X164758666Y-106365380D01*
X164568190Y-106365380D01*
X164472952Y-106317761D01*
X164425332Y-106270142D01*
X164377713Y-106174904D01*
X164377713Y-105365380D01*
X163949142Y-106317761D02*
X163806285Y-106365380D01*
X163568190Y-106365380D01*
X163472952Y-106317761D01*
X163425332Y-106270142D01*
X163377713Y-106174904D01*
X163377713Y-106079666D01*
X163425332Y-105984428D01*
X163472952Y-105936809D01*
X163568190Y-105889190D01*
X163758666Y-105841571D01*
X163853904Y-105793952D01*
X163901523Y-105746333D01*
X163949142Y-105651095D01*
X163949142Y-105555857D01*
X163901523Y-105460619D01*
X163853904Y-105413000D01*
X163758666Y-105365380D01*
X163520571Y-105365380D01*
X163377713Y-105413000D01*
X162615809Y-105841571D02*
X162472952Y-105889190D01*
X162425332Y-105936809D01*
X162377713Y-106032047D01*
X162377713Y-106174904D01*
X162425332Y-106270142D01*
X162472952Y-106317761D01*
X162568190Y-106365380D01*
X162949142Y-106365380D01*
X162949142Y-105365380D01*
X162615809Y-105365380D01*
X162520571Y-105413000D01*
X162472952Y-105460619D01*
X162425332Y-105555857D01*
X162425332Y-105651095D01*
X162472952Y-105746333D01*
X162520571Y-105793952D01*
X162615809Y-105841571D01*
X162949142Y-105841571D01*
X162187237Y-106460619D02*
X161425332Y-106460619D01*
X161187237Y-106365380D02*
X161187237Y-105365380D01*
X160711047Y-106365380D02*
X160711047Y-105365380D01*
X160472952Y-105365380D01*
X160330094Y-105413000D01*
X160234856Y-105508238D01*
X160187237Y-105603476D01*
X160139618Y-105793952D01*
X160139618Y-105936809D01*
X160187237Y-106127285D01*
X160234856Y-106222523D01*
X160330094Y-106317761D01*
X160472952Y-106365380D01*
X160711047Y-106365380D01*
X112283714Y-103825380D02*
X112283714Y-102825380D01*
X111902762Y-102825380D01*
X111807524Y-102873000D01*
X111759904Y-102920619D01*
X111712285Y-103015857D01*
X111712285Y-103158714D01*
X111759904Y-103253952D01*
X111807524Y-103301571D01*
X111902762Y-103349190D01*
X112283714Y-103349190D01*
X111331333Y-103539666D02*
X110855143Y-103539666D01*
X111426571Y-103825380D02*
X111093238Y-102825380D01*
X110759904Y-103825380D01*
X109998000Y-103158714D02*
X109998000Y-103825380D01*
X110236095Y-102777761D02*
X110474190Y-103492047D01*
X109855143Y-103492047D01*
X108759904Y-102777761D02*
X109617047Y-104063476D01*
X108474190Y-103539666D02*
X107998000Y-103539666D01*
X108569428Y-103825380D02*
X108236095Y-102825380D01*
X107902762Y-103825380D01*
X107569428Y-103825380D02*
X107569428Y-102825380D01*
X107331333Y-102825380D01*
X107188476Y-102873000D01*
X107093238Y-102968238D01*
X107045619Y-103063476D01*
X106998000Y-103253952D01*
X106998000Y-103396809D01*
X107045619Y-103587285D01*
X107093238Y-103682523D01*
X107188476Y-103777761D01*
X107331333Y-103825380D01*
X107569428Y-103825380D01*
X105998000Y-103730142D02*
X106045619Y-103777761D01*
X106188476Y-103825380D01*
X106283714Y-103825380D01*
X106426571Y-103777761D01*
X106521809Y-103682523D01*
X106569428Y-103587285D01*
X106617047Y-103396809D01*
X106617047Y-103253952D01*
X106569428Y-103063476D01*
X106521809Y-102968238D01*
X106426571Y-102873000D01*
X106283714Y-102825380D01*
X106188476Y-102825380D01*
X106045619Y-102873000D01*
X105998000Y-102920619D01*
X105807524Y-103920619D02*
X105045619Y-103920619D01*
X104855143Y-102920619D02*
X104807524Y-102873000D01*
X104712285Y-102825380D01*
X104474190Y-102825380D01*
X104378952Y-102873000D01*
X104331333Y-102920619D01*
X104283714Y-103015857D01*
X104283714Y-103111095D01*
X104331333Y-103253952D01*
X104902762Y-103825380D01*
X104283714Y-103825380D01*
X149653142Y-71953380D02*
X149653142Y-70953380D01*
X149415047Y-70953380D01*
X149272190Y-71001000D01*
X149176952Y-71096238D01*
X149129333Y-71191476D01*
X149081714Y-71381952D01*
X149081714Y-71524809D01*
X149129333Y-71715285D01*
X149176952Y-71810523D01*
X149272190Y-71905761D01*
X149415047Y-71953380D01*
X149653142Y-71953380D01*
X148700761Y-71667666D02*
X148224571Y-71667666D01*
X148796000Y-71953380D02*
X148462666Y-70953380D01*
X148129333Y-71953380D01*
X147224571Y-71858142D02*
X147272190Y-71905761D01*
X147415047Y-71953380D01*
X147510285Y-71953380D01*
X147653142Y-71905761D01*
X147748380Y-71810523D01*
X147796000Y-71715285D01*
X147843619Y-71524809D01*
X147843619Y-71381952D01*
X147796000Y-71191476D01*
X147748380Y-71096238D01*
X147653142Y-71001000D01*
X147510285Y-70953380D01*
X147415047Y-70953380D01*
X147272190Y-71001000D01*
X147224571Y-71048619D01*
X147034095Y-72048619D02*
X146272190Y-72048619D01*
X145843619Y-70953380D02*
X145653142Y-70953380D01*
X145557904Y-71001000D01*
X145462666Y-71096238D01*
X145415047Y-71286714D01*
X145415047Y-71620047D01*
X145462666Y-71810523D01*
X145557904Y-71905761D01*
X145653142Y-71953380D01*
X145843619Y-71953380D01*
X145938857Y-71905761D01*
X146034095Y-71810523D01*
X146081714Y-71620047D01*
X146081714Y-71286714D01*
X146034095Y-71096238D01*
X145938857Y-71001000D01*
X145843619Y-70953380D01*
X144986476Y-70953380D02*
X144986476Y-71762904D01*
X144938857Y-71858142D01*
X144891238Y-71905761D01*
X144796000Y-71953380D01*
X144605523Y-71953380D01*
X144510285Y-71905761D01*
X144462666Y-71858142D01*
X144415047Y-71762904D01*
X144415047Y-70953380D01*
X144081714Y-70953380D02*
X143510285Y-70953380D01*
X143796000Y-71953380D02*
X143796000Y-70953380D01*
X143415047Y-72048619D02*
X142653142Y-72048619D01*
X142462666Y-71048619D02*
X142415047Y-71001000D01*
X142319809Y-70953380D01*
X142081714Y-70953380D01*
X141986476Y-71001000D01*
X141938857Y-71048619D01*
X141891238Y-71143857D01*
X141891238Y-71239095D01*
X141938857Y-71381952D01*
X142510285Y-71953380D01*
X141891238Y-71953380D01*
X126348285Y-116239666D02*
X125872095Y-116239666D01*
X126443523Y-116525380D02*
X126110190Y-115525380D01*
X125776856Y-116525380D01*
X125443523Y-116525380D02*
X125443523Y-115525380D01*
X125205428Y-115525380D01*
X125062571Y-115573000D01*
X124967333Y-115668238D01*
X124919714Y-115763476D01*
X124872095Y-115953952D01*
X124872095Y-116096809D01*
X124919714Y-116287285D01*
X124967333Y-116382523D01*
X125062571Y-116477761D01*
X125205428Y-116525380D01*
X125443523Y-116525380D01*
X123872095Y-116430142D02*
X123919714Y-116477761D01*
X124062571Y-116525380D01*
X124157809Y-116525380D01*
X124300666Y-116477761D01*
X124395904Y-116382523D01*
X124443523Y-116287285D01*
X124491142Y-116096809D01*
X124491142Y-115953952D01*
X124443523Y-115763476D01*
X124395904Y-115668238D01*
X124300666Y-115573000D01*
X124157809Y-115525380D01*
X124062571Y-115525380D01*
X123919714Y-115573000D01*
X123872095Y-115620619D01*
X123681618Y-116620619D02*
X122919714Y-116620619D01*
X122157809Y-116525380D02*
X122729237Y-116525380D01*
X122443523Y-116525380D02*
X122443523Y-115525380D01*
X122538761Y-115668238D01*
X122633999Y-115763476D01*
X122729237Y-115811095D01*
X121014952Y-115477761D02*
X121872095Y-116763476D01*
X120681618Y-116525380D02*
X120681618Y-115525380D01*
X120300666Y-115525380D01*
X120205428Y-115573000D01*
X120157809Y-115620619D01*
X120110190Y-115715857D01*
X120110190Y-115858714D01*
X120157809Y-115953952D01*
X120205428Y-116001571D01*
X120300666Y-116049190D01*
X120681618Y-116049190D01*
X119729237Y-116239666D02*
X119253047Y-116239666D01*
X119824476Y-116525380D02*
X119491142Y-115525380D01*
X119157809Y-116525380D01*
X118633999Y-115525380D02*
X118538761Y-115525380D01*
X118443523Y-115573000D01*
X118395904Y-115620619D01*
X118348285Y-115715857D01*
X118300666Y-115906333D01*
X118300666Y-116144428D01*
X118348285Y-116334904D01*
X118395904Y-116430142D01*
X118443523Y-116477761D01*
X118538761Y-116525380D01*
X118633999Y-116525380D01*
X118729237Y-116477761D01*
X118776856Y-116430142D01*
X118824476Y-116334904D01*
X118872095Y-116144428D01*
X118872095Y-115906333D01*
X118824476Y-115715857D01*
X118776856Y-115620619D01*
X118729237Y-115573000D01*
X118633999Y-115525380D01*
X169400000Y-94321332D02*
X169447619Y-94416570D01*
X169447619Y-94559428D01*
X169400000Y-94702285D01*
X169304761Y-94797523D01*
X169209523Y-94845142D01*
X169019047Y-94892761D01*
X168876190Y-94892761D01*
X168685714Y-94845142D01*
X168590476Y-94797523D01*
X168495238Y-94702285D01*
X168447619Y-94559428D01*
X168447619Y-94464189D01*
X168495238Y-94321332D01*
X168542857Y-94273713D01*
X168876190Y-94273713D01*
X168876190Y-94464189D01*
X168447619Y-93845142D02*
X169447619Y-93845142D01*
X168447619Y-93273713D01*
X169447619Y-93273713D01*
X168447619Y-92797523D02*
X169447619Y-92797523D01*
X169447619Y-92559428D01*
X169400000Y-92416570D01*
X169304761Y-92321332D01*
X169209523Y-92273713D01*
X169019047Y-92226094D01*
X168876190Y-92226094D01*
X168685714Y-92273713D01*
X168590476Y-92321332D01*
X168495238Y-92416570D01*
X168447619Y-92559428D01*
X168447619Y-92797523D01*
X169758666Y-113985380D02*
X169758666Y-112985380D01*
X169377713Y-112985380D01*
X169282475Y-113033000D01*
X169234856Y-113080619D01*
X169187237Y-113175857D01*
X169187237Y-113318714D01*
X169234856Y-113413952D01*
X169282475Y-113461571D01*
X169377713Y-113509190D01*
X169758666Y-113509190D01*
X168187237Y-113890142D02*
X168234856Y-113937761D01*
X168377713Y-113985380D01*
X168472952Y-113985380D01*
X168615809Y-113937761D01*
X168711047Y-113842523D01*
X168758666Y-113747285D01*
X168806285Y-113556809D01*
X168806285Y-113413952D01*
X168758666Y-113223476D01*
X168711047Y-113128238D01*
X168615809Y-113033000D01*
X168472952Y-112985380D01*
X168377713Y-112985380D01*
X168234856Y-113033000D01*
X168187237Y-113080619D01*
X167234856Y-113985380D02*
X167806285Y-113985380D01*
X167520571Y-113985380D02*
X167520571Y-112985380D01*
X167615809Y-113128238D01*
X167711047Y-113223476D01*
X167806285Y-113271095D01*
X166615809Y-112985380D02*
X166520571Y-112985380D01*
X166425333Y-113033000D01*
X166377713Y-113080619D01*
X166330094Y-113175857D01*
X166282475Y-113366333D01*
X166282475Y-113604428D01*
X166330094Y-113794904D01*
X166377713Y-113890142D01*
X166425333Y-113937761D01*
X166520571Y-113985380D01*
X166615809Y-113985380D01*
X166711047Y-113937761D01*
X166758666Y-113890142D01*
X166806285Y-113794904D01*
X166853904Y-113604428D01*
X166853904Y-113366333D01*
X166806285Y-113175857D01*
X166758666Y-113080619D01*
X166711047Y-113033000D01*
X166615809Y-112985380D01*
X165139618Y-112937761D02*
X165996761Y-114223476D01*
X164853904Y-113937761D02*
X164711047Y-113985380D01*
X164472952Y-113985380D01*
X164377713Y-113937761D01*
X164330094Y-113890142D01*
X164282475Y-113794904D01*
X164282475Y-113699666D01*
X164330094Y-113604428D01*
X164377713Y-113556809D01*
X164472952Y-113509190D01*
X164663428Y-113461571D01*
X164758666Y-113413952D01*
X164806285Y-113366333D01*
X164853904Y-113271095D01*
X164853904Y-113175857D01*
X164806285Y-113080619D01*
X164758666Y-113033000D01*
X164663428Y-112985380D01*
X164425333Y-112985380D01*
X164282475Y-113033000D01*
X163853904Y-113985380D02*
X163853904Y-112985380D01*
X163615809Y-112985380D01*
X163472952Y-113033000D01*
X163377713Y-113128238D01*
X163330094Y-113223476D01*
X163282475Y-113413952D01*
X163282475Y-113556809D01*
X163330094Y-113747285D01*
X163377713Y-113842523D01*
X163472952Y-113937761D01*
X163615809Y-113985380D01*
X163853904Y-113985380D01*
X162853904Y-113985380D02*
X162853904Y-112985380D01*
X162187237Y-112985380D02*
X161996761Y-112985380D01*
X161901523Y-113033000D01*
X161806285Y-113128238D01*
X161758666Y-113318714D01*
X161758666Y-113652047D01*
X161806285Y-113842523D01*
X161901523Y-113937761D01*
X161996761Y-113985380D01*
X162187237Y-113985380D01*
X162282475Y-113937761D01*
X162377713Y-113842523D01*
X162425333Y-113652047D01*
X162425333Y-113318714D01*
X162377713Y-113128238D01*
X162282475Y-113033000D01*
X162187237Y-112985380D01*
X161568190Y-114080619D02*
X160806285Y-114080619D01*
X160568190Y-113985380D02*
X160568190Y-112985380D01*
X160330094Y-112985380D01*
X160187237Y-113033000D01*
X160091999Y-113128238D01*
X160044380Y-113223476D01*
X159996761Y-113413952D01*
X159996761Y-113556809D01*
X160044380Y-113747285D01*
X160091999Y-113842523D01*
X160187237Y-113937761D01*
X160330094Y-113985380D01*
X160568190Y-113985380D01*
X159615809Y-113080619D02*
X159568190Y-113033000D01*
X159472952Y-112985380D01*
X159234856Y-112985380D01*
X159139618Y-113033000D01*
X159091999Y-113080619D01*
X159044380Y-113175857D01*
X159044380Y-113271095D01*
X159091999Y-113413952D01*
X159663428Y-113985380D01*
X159044380Y-113985380D01*
X130014952Y-123145380D02*
X130014952Y-123954904D01*
X129967333Y-124050142D01*
X129919714Y-124097761D01*
X129824476Y-124145380D01*
X129633999Y-124145380D01*
X129538761Y-124097761D01*
X129491142Y-124050142D01*
X129443523Y-123954904D01*
X129443523Y-123145380D01*
X129014952Y-124097761D02*
X128872095Y-124145380D01*
X128633999Y-124145380D01*
X128538761Y-124097761D01*
X128491142Y-124050142D01*
X128443523Y-123954904D01*
X128443523Y-123859666D01*
X128491142Y-123764428D01*
X128538761Y-123716809D01*
X128633999Y-123669190D01*
X128824476Y-123621571D01*
X128919714Y-123573952D01*
X128967333Y-123526333D01*
X129014952Y-123431095D01*
X129014952Y-123335857D01*
X128967333Y-123240619D01*
X128919714Y-123193000D01*
X128824476Y-123145380D01*
X128586380Y-123145380D01*
X128443523Y-123193000D01*
X128062571Y-123859666D02*
X127586380Y-123859666D01*
X128157809Y-124145380D02*
X127824476Y-123145380D01*
X127491142Y-124145380D01*
X126586380Y-124145380D02*
X126919714Y-123669190D01*
X127157809Y-124145380D02*
X127157809Y-123145380D01*
X126776857Y-123145380D01*
X126681619Y-123193000D01*
X126633999Y-123240619D01*
X126586380Y-123335857D01*
X126586380Y-123478714D01*
X126633999Y-123573952D01*
X126681619Y-123621571D01*
X126776857Y-123669190D01*
X127157809Y-123669190D01*
X126300666Y-123145380D02*
X125729238Y-123145380D01*
X126014952Y-124145380D02*
X126014952Y-123145380D01*
X125443523Y-123240619D02*
X125395904Y-123193000D01*
X125300666Y-123145380D01*
X125062571Y-123145380D01*
X124967333Y-123193000D01*
X124919714Y-123240619D01*
X124872095Y-123335857D01*
X124872095Y-123431095D01*
X124919714Y-123573952D01*
X125491142Y-124145380D01*
X124872095Y-124145380D01*
X124681619Y-124240619D02*
X123919714Y-124240619D01*
X123110190Y-124145380D02*
X123443523Y-123669190D01*
X123681619Y-124145380D02*
X123681619Y-123145380D01*
X123300666Y-123145380D01*
X123205428Y-123193000D01*
X123157809Y-123240619D01*
X123110190Y-123335857D01*
X123110190Y-123478714D01*
X123157809Y-123573952D01*
X123205428Y-123621571D01*
X123300666Y-123669190D01*
X123681619Y-123669190D01*
X122776857Y-123145380D02*
X122110190Y-124145380D01*
X122110190Y-123145380D02*
X122776857Y-124145380D01*
X121014952Y-123097761D02*
X121872095Y-124383476D01*
X120681619Y-124145380D02*
X120681619Y-123145380D01*
X120300666Y-123145380D01*
X120205428Y-123193000D01*
X120157809Y-123240619D01*
X120110190Y-123335857D01*
X120110190Y-123478714D01*
X120157809Y-123573952D01*
X120205428Y-123621571D01*
X120300666Y-123669190D01*
X120681619Y-123669190D01*
X119729238Y-123859666D02*
X119253047Y-123859666D01*
X119824476Y-124145380D02*
X119491142Y-123145380D01*
X119157809Y-124145380D01*
X118919714Y-123145380D02*
X118300666Y-123145380D01*
X118633999Y-123526333D01*
X118491142Y-123526333D01*
X118395904Y-123573952D01*
X118348285Y-123621571D01*
X118300666Y-123716809D01*
X118300666Y-123954904D01*
X118348285Y-124050142D01*
X118395904Y-124097761D01*
X118491142Y-124145380D01*
X118776857Y-124145380D01*
X118872095Y-124097761D01*
X118919714Y-124050142D01*
X181593904Y-69159428D02*
X180832000Y-69159428D01*
X181212952Y-69540380D02*
X181212952Y-68778476D01*
X180451047Y-68540380D02*
X179832000Y-68540380D01*
X180165333Y-68921333D01*
X180022476Y-68921333D01*
X179927238Y-68968952D01*
X179879619Y-69016571D01*
X179832000Y-69111809D01*
X179832000Y-69349904D01*
X179879619Y-69445142D01*
X179927238Y-69492761D01*
X180022476Y-69540380D01*
X180308190Y-69540380D01*
X180403428Y-69492761D01*
X180451047Y-69445142D01*
X179546285Y-68540380D02*
X179212952Y-69540380D01*
X178879619Y-68540380D01*
X178641523Y-68540380D02*
X178022476Y-68540380D01*
X178355809Y-68921333D01*
X178212952Y-68921333D01*
X178117714Y-68968952D01*
X178070095Y-69016571D01*
X178022476Y-69111809D01*
X178022476Y-69349904D01*
X178070095Y-69445142D01*
X178117714Y-69492761D01*
X178212952Y-69540380D01*
X178498666Y-69540380D01*
X178593904Y-69492761D01*
X178641523Y-69445142D01*
X111759904Y-128273000D02*
X111855142Y-128225380D01*
X111998000Y-128225380D01*
X112140857Y-128273000D01*
X112236095Y-128368238D01*
X112283714Y-128463476D01*
X112331333Y-128653952D01*
X112331333Y-128796809D01*
X112283714Y-128987285D01*
X112236095Y-129082523D01*
X112140857Y-129177761D01*
X111998000Y-129225380D01*
X111902761Y-129225380D01*
X111759904Y-129177761D01*
X111712285Y-129130142D01*
X111712285Y-128796809D01*
X111902761Y-128796809D01*
X111283714Y-129225380D02*
X111283714Y-128225380D01*
X110712285Y-129225380D01*
X110712285Y-128225380D01*
X110236095Y-129225380D02*
X110236095Y-128225380D01*
X109998000Y-128225380D01*
X109855142Y-128273000D01*
X109759904Y-128368238D01*
X109712285Y-128463476D01*
X109664666Y-128653952D01*
X109664666Y-128796809D01*
X109712285Y-128987285D01*
X109759904Y-129082523D01*
X109855142Y-129177761D01*
X109998000Y-129225380D01*
X110236095Y-129225380D01*
X169758666Y-119065380D02*
X169758666Y-118065380D01*
X169377713Y-118065380D01*
X169282475Y-118113000D01*
X169234856Y-118160619D01*
X169187237Y-118255857D01*
X169187237Y-118398714D01*
X169234856Y-118493952D01*
X169282475Y-118541571D01*
X169377713Y-118589190D01*
X169758666Y-118589190D01*
X168187237Y-118970142D02*
X168234856Y-119017761D01*
X168377713Y-119065380D01*
X168472951Y-119065380D01*
X168615809Y-119017761D01*
X168711047Y-118922523D01*
X168758666Y-118827285D01*
X168806285Y-118636809D01*
X168806285Y-118493952D01*
X168758666Y-118303476D01*
X168711047Y-118208238D01*
X168615809Y-118113000D01*
X168472951Y-118065380D01*
X168377713Y-118065380D01*
X168234856Y-118113000D01*
X168187237Y-118160619D01*
X167853904Y-118065380D02*
X167187237Y-118065380D01*
X167615809Y-119065380D01*
%TO.C,U2*%
X189737904Y-98512380D02*
X189737904Y-99321904D01*
X189690285Y-99417142D01*
X189642666Y-99464761D01*
X189547428Y-99512380D01*
X189356952Y-99512380D01*
X189261714Y-99464761D01*
X189214095Y-99417142D01*
X189166476Y-99321904D01*
X189166476Y-98512380D01*
X188737904Y-98607619D02*
X188690285Y-98560000D01*
X188595047Y-98512380D01*
X188356952Y-98512380D01*
X188261714Y-98560000D01*
X188214095Y-98607619D01*
X188166476Y-98702857D01*
X188166476Y-98798095D01*
X188214095Y-98940952D01*
X188785523Y-99512380D01*
X188166476Y-99512380D01*
%TO.C,G\u002A\u002A\u002A*%
G36*
X184850343Y-135666655D02*
G01*
X184830079Y-135639611D01*
X184782664Y-135557577D01*
X184712815Y-135428689D01*
X184624906Y-135261167D01*
X184523307Y-135063233D01*
X184412391Y-134843108D01*
X184001060Y-134019560D01*
X184004132Y-134013420D01*
X184067549Y-134013420D01*
X184452864Y-134778727D01*
X184838180Y-135544034D01*
X184836310Y-132461000D01*
X184451929Y-133237210D01*
X184067549Y-134013420D01*
X184004132Y-134013420D01*
X184421636Y-133178970D01*
X184423102Y-133176041D01*
X184534870Y-132953925D01*
X184636671Y-132753984D01*
X184724275Y-132584338D01*
X184793450Y-132453108D01*
X184839964Y-132368415D01*
X184859589Y-132338379D01*
X184859617Y-132338381D01*
X184863103Y-132372802D01*
X184866354Y-132470434D01*
X184869300Y-132624469D01*
X184871870Y-132828104D01*
X184873993Y-133074531D01*
X184875597Y-133356946D01*
X184876612Y-133668543D01*
X184876966Y-134002517D01*
X184876966Y-134005203D01*
X184876415Y-134339027D01*
X184874853Y-134650421D01*
X184872389Y-134932581D01*
X184869131Y-135178699D01*
X184865189Y-135381972D01*
X184860671Y-135535592D01*
X184860238Y-135544034D01*
X184855686Y-135632755D01*
X184850343Y-135666655D01*
G37*
G36*
X184700924Y-133798378D02*
G01*
X184701775Y-133981141D01*
X184701793Y-133985000D01*
X184701284Y-134149565D01*
X184701033Y-134172485D01*
X184699046Y-134353937D01*
X184698898Y-134367409D01*
X184695340Y-134530102D01*
X184694830Y-134553428D01*
X184689377Y-134698060D01*
X184682840Y-134791745D01*
X184675517Y-134824923D01*
X184672289Y-134823135D01*
X184641558Y-134780128D01*
X184588207Y-134688442D01*
X184518760Y-134559680D01*
X184492512Y-134508449D01*
X184561655Y-134508449D01*
X184562992Y-134518279D01*
X184596690Y-134563069D01*
X184614740Y-134566365D01*
X184631724Y-134530102D01*
X184627437Y-134503999D01*
X184596690Y-134475483D01*
X184588378Y-134476426D01*
X184561655Y-134508449D01*
X184492512Y-134508449D01*
X184439738Y-134405445D01*
X184413419Y-134352862D01*
X184478917Y-134352862D01*
X184489644Y-134372579D01*
X184546250Y-134404730D01*
X184608368Y-134382057D01*
X184628699Y-134353937D01*
X184616849Y-134315013D01*
X184545238Y-134300310D01*
X184483280Y-134312271D01*
X184478917Y-134352862D01*
X184413419Y-134352862D01*
X184325742Y-134177689D01*
X184421517Y-134177689D01*
X184429877Y-134198912D01*
X184481219Y-134226034D01*
X184551582Y-134230389D01*
X184608368Y-134206885D01*
X184631017Y-134172485D01*
X184609614Y-134137641D01*
X184526621Y-134125138D01*
X184452853Y-134135968D01*
X184421517Y-134177689D01*
X184325742Y-134177689D01*
X184230234Y-133986871D01*
X184240462Y-133966185D01*
X184324483Y-133966185D01*
X184343724Y-134063827D01*
X184352645Y-134081693D01*
X184371439Y-134105855D01*
X184379823Y-134076350D01*
X184381290Y-134006493D01*
X184421517Y-134006493D01*
X184430707Y-134026909D01*
X184482952Y-134051171D01*
X184553125Y-134054250D01*
X184608368Y-134031712D01*
X184635339Y-133981141D01*
X184606017Y-133946551D01*
X184526621Y-133942492D01*
X184452270Y-133967376D01*
X184438414Y-133985000D01*
X184421517Y-134006493D01*
X184381290Y-134006493D01*
X184381741Y-133985000D01*
X184381588Y-133948319D01*
X184378018Y-133877786D01*
X184366711Y-133866463D01*
X184343724Y-133906172D01*
X184324483Y-133966185D01*
X184240462Y-133966185D01*
X184315808Y-133813804D01*
X184421517Y-133813804D01*
X184421525Y-133814175D01*
X184452808Y-133835861D01*
X184526621Y-133844862D01*
X184600349Y-133833420D01*
X184631724Y-133798378D01*
X184607961Y-133767598D01*
X184526621Y-133767320D01*
X184525267Y-133767521D01*
X184451946Y-133787535D01*
X184421517Y-133813804D01*
X184315808Y-133813804D01*
X184413050Y-133617138D01*
X184478917Y-133617138D01*
X184480978Y-133656181D01*
X184539399Y-133669689D01*
X184546992Y-133669616D01*
X184636455Y-133649288D01*
X184666759Y-133593781D01*
X184642198Y-133568497D01*
X184582400Y-133565456D01*
X184517799Y-133582935D01*
X184478917Y-133617138D01*
X184413050Y-133617138D01*
X184438572Y-133565522D01*
X184458217Y-133526034D01*
X184484304Y-133475211D01*
X184570519Y-133475211D01*
X184622966Y-133469284D01*
X184643658Y-133455068D01*
X184666759Y-133396504D01*
X184665810Y-133371863D01*
X184651769Y-133359539D01*
X184607534Y-133398589D01*
X184571750Y-133442312D01*
X184570519Y-133475211D01*
X184484304Y-133475211D01*
X184535056Y-133376335D01*
X184601011Y-133255074D01*
X184649602Y-133173827D01*
X184674352Y-133144172D01*
X184679719Y-133160428D01*
X184686832Y-133236758D01*
X184692909Y-133366954D01*
X184693710Y-133396504D01*
X184697636Y-133541442D01*
X184698403Y-133593781D01*
X184700702Y-133750649D01*
X184700924Y-133798378D01*
G37*
G36*
X187334355Y-136795472D02*
G01*
X187331918Y-136833130D01*
X187324834Y-136914024D01*
X187318747Y-136948882D01*
X187299608Y-136949719D01*
X187223251Y-136948022D01*
X187102636Y-136943442D01*
X186952759Y-136936485D01*
X186593655Y-136918528D01*
X186593655Y-136847882D01*
X186766252Y-136847882D01*
X186790360Y-136864448D01*
X186837164Y-136869605D01*
X186927042Y-136854866D01*
X186944525Y-136849247D01*
X187036351Y-136832999D01*
X187148368Y-136825255D01*
X187189956Y-136823721D01*
X187269023Y-136809342D01*
X187285808Y-136779000D01*
X187244072Y-136740881D01*
X187152637Y-136726428D01*
X187029657Y-136739661D01*
X186892147Y-136780513D01*
X186798345Y-136821432D01*
X186766252Y-136847882D01*
X186593655Y-136847882D01*
X186593655Y-136704552D01*
X186663724Y-136704552D01*
X186665002Y-136719128D01*
X186689957Y-136745777D01*
X186755232Y-136740690D01*
X186871882Y-136703830D01*
X186927127Y-136681828D01*
X186958655Y-136657357D01*
X186932809Y-136637379D01*
X186857551Y-136625786D01*
X186767790Y-136636822D01*
X186694221Y-136665313D01*
X186663724Y-136704552D01*
X186593655Y-136704552D01*
X186593655Y-136542451D01*
X186646167Y-136542451D01*
X186670310Y-136568647D01*
X186713897Y-136569001D01*
X186795104Y-136534792D01*
X186797193Y-136533774D01*
X186856546Y-136491805D01*
X186873944Y-136453903D01*
X186841178Y-136437414D01*
X186791010Y-136444659D01*
X186716511Y-136472833D01*
X186659927Y-136509903D01*
X186646167Y-136542451D01*
X186593655Y-136542451D01*
X186593655Y-136353255D01*
X186663724Y-136353255D01*
X186664572Y-136374009D01*
X186672483Y-136399613D01*
X186735080Y-136378204D01*
X186839276Y-136327369D01*
X186873931Y-136278661D01*
X186871644Y-136261796D01*
X186843157Y-136247858D01*
X186768828Y-136267491D01*
X186765279Y-136268756D01*
X186693434Y-136308757D01*
X186663724Y-136353255D01*
X186593655Y-136353255D01*
X186593655Y-136178082D01*
X186663724Y-136178082D01*
X186664572Y-136198836D01*
X186672483Y-136224441D01*
X186735080Y-136203032D01*
X186839276Y-136152197D01*
X186873931Y-136103489D01*
X186871644Y-136086623D01*
X186843157Y-136072686D01*
X186768828Y-136092318D01*
X186765279Y-136093583D01*
X186693434Y-136133584D01*
X186663724Y-136178082D01*
X186593655Y-136178082D01*
X186593655Y-135985776D01*
X186628690Y-135985776D01*
X186632426Y-136005819D01*
X186679126Y-136029732D01*
X186777586Y-136009352D01*
X186844372Y-135973299D01*
X186873931Y-135929773D01*
X186869372Y-135909940D01*
X186834398Y-135900824D01*
X186751311Y-135921054D01*
X186732537Y-135927135D01*
X186658633Y-135958897D01*
X186628690Y-135985776D01*
X186593655Y-135985776D01*
X186593655Y-135929610D01*
X185814138Y-136710123D01*
X185599993Y-136924104D01*
X185424126Y-137098320D01*
X185285920Y-137232584D01*
X185179551Y-137331924D01*
X185099191Y-137401370D01*
X185039015Y-137445950D01*
X184993197Y-137470693D01*
X184955911Y-137480628D01*
X184921332Y-137480783D01*
X184885135Y-137472529D01*
X184837255Y-137448733D01*
X184774493Y-137404601D01*
X184691185Y-137335151D01*
X184581671Y-137235400D01*
X184440290Y-137100367D01*
X184261379Y-136925069D01*
X184039277Y-136704522D01*
X183270511Y-135938114D01*
X183109345Y-136259014D01*
X183059843Y-136354820D01*
X182979865Y-136492015D01*
X182913083Y-136577635D01*
X182852779Y-136621162D01*
X182847319Y-136623584D01*
X182751329Y-136677274D01*
X182736574Y-136687735D01*
X182653868Y-136746370D01*
X182652912Y-136747145D01*
X182575148Y-136798582D01*
X182493430Y-136818133D01*
X182375673Y-136813546D01*
X182305539Y-136802126D01*
X182153567Y-136733745D01*
X182048148Y-136614953D01*
X182091724Y-136614953D01*
X182174433Y-136683838D01*
X182174811Y-136684152D01*
X182286334Y-136735930D01*
X182435175Y-136748148D01*
X182599724Y-136719020D01*
X182637458Y-136706506D01*
X182661381Y-136687735D01*
X182625736Y-136666111D01*
X182548810Y-136653889D01*
X182450307Y-136661281D01*
X182449723Y-136661390D01*
X182333554Y-136666403D01*
X182214088Y-136648797D01*
X182091724Y-136614953D01*
X182048148Y-136614953D01*
X182046073Y-136612615D01*
X181987573Y-136443049D01*
X181987412Y-136441930D01*
X182039173Y-136441930D01*
X182039439Y-136444134D01*
X182072048Y-136479888D01*
X182142536Y-136524100D01*
X182206011Y-136550938D01*
X182293010Y-136573098D01*
X182365489Y-136578413D01*
X182405823Y-136566101D01*
X182396392Y-136535378D01*
X182385559Y-136526497D01*
X182320985Y-136494099D01*
X182231512Y-136463545D01*
X182139688Y-136440733D01*
X182068059Y-136431562D01*
X182039173Y-136441930D01*
X181987412Y-136441930D01*
X181983126Y-136412150D01*
X181981732Y-136356952D01*
X181992809Y-136295299D01*
X182002613Y-136267327D01*
X182054300Y-136267327D01*
X182076201Y-136304191D01*
X182141391Y-136348335D01*
X182240004Y-136391930D01*
X182296610Y-136396696D01*
X182299895Y-136357155D01*
X182295176Y-136348167D01*
X182245372Y-136305830D01*
X182170304Y-136270576D01*
X182097802Y-136253038D01*
X182055696Y-136263850D01*
X182054300Y-136267327D01*
X182002613Y-136267327D01*
X182020546Y-136216164D01*
X182051001Y-136148687D01*
X182125586Y-136148687D01*
X182176026Y-136190414D01*
X182227037Y-136214368D01*
X182293655Y-136221884D01*
X182330732Y-136178267D01*
X182320186Y-136137967D01*
X182245352Y-136114039D01*
X182204466Y-136110025D01*
X182137577Y-136119125D01*
X182125586Y-136148687D01*
X182051001Y-136148687D01*
X182069130Y-136108521D01*
X182124462Y-135997899D01*
X182197185Y-135997899D01*
X182234929Y-136030846D01*
X182323248Y-136050392D01*
X182396602Y-136032637D01*
X182424552Y-135976126D01*
X182423327Y-135970987D01*
X182384493Y-135952491D01*
X182313672Y-135947740D01*
X182241622Y-135956440D01*
X182199097Y-135978294D01*
X182197185Y-135997899D01*
X182124462Y-135997899D01*
X182142748Y-135961340D01*
X182221129Y-135810626D01*
X182284414Y-135810626D01*
X182284439Y-135811339D01*
X182315270Y-135832273D01*
X182383309Y-135841174D01*
X182457377Y-135836941D01*
X182506299Y-135818471D01*
X182529062Y-135783727D01*
X182500462Y-135762294D01*
X182407035Y-135765109D01*
X182390961Y-135767255D01*
X182315218Y-135786405D01*
X182284414Y-135810626D01*
X182221129Y-135810626D01*
X182245588Y-135763596D01*
X182306970Y-135646509D01*
X182373587Y-135646509D01*
X182416893Y-135664434D01*
X182447692Y-135661381D01*
X182533314Y-135638676D01*
X182604822Y-135604142D01*
X182634759Y-135569715D01*
X182620780Y-135553999D01*
X182563168Y-135549256D01*
X182485286Y-135561575D01*
X182413828Y-135586021D01*
X182375484Y-135617658D01*
X182373587Y-135646509D01*
X182306970Y-135646509D01*
X182399426Y-135470149D01*
X182463353Y-135470149D01*
X182484490Y-135473832D01*
X182544654Y-135459895D01*
X182615185Y-135431729D01*
X182670126Y-135400345D01*
X182683523Y-135376753D01*
X182644018Y-135355502D01*
X182564014Y-135359558D01*
X182493918Y-135404743D01*
X182470944Y-135437662D01*
X182463353Y-135470149D01*
X182399426Y-135470149D01*
X182470892Y-135333827D01*
X182704828Y-135333827D01*
X182722345Y-135351345D01*
X182739862Y-135333827D01*
X182722345Y-135316310D01*
X182704828Y-135333827D01*
X182470892Y-135333827D01*
X182527533Y-135225783D01*
X182512915Y-135211207D01*
X182599724Y-135211207D01*
X182601150Y-135220809D01*
X182636826Y-135246241D01*
X182649498Y-135243490D01*
X182652276Y-135211207D01*
X182645085Y-135200722D01*
X182615174Y-135176172D01*
X182611678Y-135177083D01*
X182599724Y-135211207D01*
X182512915Y-135211207D01*
X182460212Y-135158655D01*
X182701590Y-135158655D01*
X182717525Y-135188201D01*
X182769514Y-135205738D01*
X182820398Y-135189061D01*
X182840584Y-135161844D01*
X182834321Y-135120891D01*
X182773509Y-135112425D01*
X182731533Y-135125683D01*
X182702336Y-135157834D01*
X182701590Y-135158655D01*
X182460212Y-135158655D01*
X181966844Y-134666702D01*
X181878608Y-134578582D01*
X181717303Y-134416017D01*
X181597594Y-134291908D01*
X181513570Y-134199060D01*
X181459320Y-134130281D01*
X181428935Y-134078375D01*
X181417157Y-134038373D01*
X181443586Y-134038373D01*
X181449820Y-134049809D01*
X181496175Y-134105656D01*
X181581837Y-134199396D01*
X181699754Y-134323546D01*
X181842872Y-134470621D01*
X182004138Y-134633138D01*
X182093108Y-134721533D01*
X182244457Y-134869700D01*
X182374197Y-134993880D01*
X182475421Y-135087606D01*
X182541221Y-135144412D01*
X182564690Y-135157834D01*
X182558456Y-135146397D01*
X182512102Y-135090550D01*
X182426440Y-134996810D01*
X182308523Y-134872661D01*
X182165405Y-134725586D01*
X182004138Y-134563069D01*
X181915168Y-134474673D01*
X181763819Y-134326506D01*
X181634079Y-134202327D01*
X181532855Y-134108601D01*
X181467055Y-134051794D01*
X181443586Y-134038373D01*
X181417157Y-134038373D01*
X181416502Y-134036150D01*
X181416180Y-134003365D01*
X181513656Y-134003365D01*
X182590914Y-135078941D01*
X182631443Y-135002232D01*
X182704828Y-135002232D01*
X182704926Y-135007202D01*
X182714939Y-135028426D01*
X182754554Y-135027654D01*
X182842368Y-135005300D01*
X182886279Y-134987845D01*
X182934131Y-134948494D01*
X182941073Y-134911979D01*
X182898134Y-134895896D01*
X182884399Y-134896525D01*
X182803952Y-134918063D01*
X182734438Y-134958612D01*
X182704828Y-135002232D01*
X182631443Y-135002232D01*
X182747785Y-134782034D01*
X182818468Y-134782034D01*
X182820665Y-134803924D01*
X182862209Y-134824359D01*
X182928908Y-134824812D01*
X182994732Y-134806609D01*
X183033652Y-134771075D01*
X183039246Y-134749043D01*
X183018606Y-134726339D01*
X182943754Y-134727282D01*
X182940402Y-134727632D01*
X182859958Y-134748434D01*
X182818468Y-134782034D01*
X182747785Y-134782034D01*
X182839368Y-134608697D01*
X182899031Y-134608697D01*
X182913013Y-134641346D01*
X182984136Y-134650655D01*
X183024734Y-134648320D01*
X183090852Y-134628719D01*
X183109448Y-134597960D01*
X183069623Y-134566740D01*
X183044359Y-134557931D01*
X182952236Y-134550320D01*
X182902365Y-134598103D01*
X182899031Y-134608697D01*
X182839368Y-134608697D01*
X182840560Y-134606441D01*
X182885036Y-134521476D01*
X182918373Y-134455944D01*
X182990354Y-134455944D01*
X183013639Y-134467398D01*
X183078500Y-134490073D01*
X183106892Y-134496947D01*
X183164501Y-134490519D01*
X183167210Y-134455818D01*
X183107877Y-134411858D01*
X183047167Y-134392123D01*
X183000364Y-134409066D01*
X182993620Y-134421754D01*
X182990354Y-134455944D01*
X182918373Y-134455944D01*
X182966150Y-134362027D01*
X183017821Y-134255666D01*
X183078629Y-134255666D01*
X183089450Y-134285610D01*
X183145726Y-134323853D01*
X183204606Y-134343426D01*
X183251347Y-134329706D01*
X183263757Y-134301122D01*
X183244317Y-134276718D01*
X183171983Y-134250686D01*
X183121394Y-134242376D01*
X183078629Y-134255666D01*
X183017821Y-134255666D01*
X183031227Y-134228071D01*
X183074501Y-134131653D01*
X183077099Y-134123905D01*
X183160276Y-134123905D01*
X183168288Y-134148838D01*
X183215349Y-134188879D01*
X183276825Y-134207619D01*
X183320294Y-134191384D01*
X183320551Y-134151925D01*
X183275925Y-134109693D01*
X183204069Y-134090640D01*
X183187913Y-134092839D01*
X183160276Y-134123905D01*
X183077099Y-134123905D01*
X183090207Y-134084822D01*
X183090192Y-134084347D01*
X183075088Y-134040206D01*
X183035658Y-133947948D01*
X183005017Y-133880139D01*
X183068177Y-133880139D01*
X183104209Y-133928818D01*
X183164249Y-133979425D01*
X183234833Y-134016349D01*
X183276727Y-134030553D01*
X183357669Y-134051743D01*
X183389676Y-134043404D01*
X183383974Y-134004658D01*
X183342286Y-133963625D01*
X183262855Y-133931893D01*
X183186874Y-133907394D01*
X183141093Y-133877201D01*
X183135984Y-133870236D01*
X183086907Y-133844862D01*
X183069622Y-133848999D01*
X183068177Y-133880139D01*
X183005017Y-133880139D01*
X182977841Y-133820000D01*
X182908703Y-133671221D01*
X182967194Y-133671221D01*
X183022699Y-133722483D01*
X183135189Y-133783552D01*
X183216558Y-133820368D01*
X183272835Y-133840431D01*
X183289524Y-133832145D01*
X183279734Y-133796700D01*
X183244486Y-133759909D01*
X183171793Y-133712956D01*
X183085830Y-133669100D01*
X183010357Y-133640407D01*
X182969134Y-133638946D01*
X182967194Y-133671221D01*
X182908703Y-133671221D01*
X182907574Y-133668791D01*
X182834188Y-133513910D01*
X182881185Y-133513910D01*
X182923793Y-133545242D01*
X182964042Y-133556815D01*
X183057130Y-133578344D01*
X183130507Y-133589179D01*
X183160276Y-133585273D01*
X183157706Y-133572507D01*
X183114719Y-133522135D01*
X183040876Y-133478251D01*
X182965084Y-133459483D01*
X182955412Y-133459739D01*
X182894920Y-133478772D01*
X182881185Y-133513910D01*
X182834188Y-133513910D01*
X182830795Y-133506748D01*
X182753443Y-133346300D01*
X182748803Y-133336862D01*
X182809931Y-133336862D01*
X182810085Y-133340861D01*
X182841196Y-133377804D01*
X182931452Y-133389414D01*
X182977633Y-133387978D01*
X183030528Y-133373123D01*
X183032808Y-133336862D01*
X182993376Y-133301143D01*
X182911286Y-133284310D01*
X182841084Y-133295031D01*
X182809931Y-133336862D01*
X182748803Y-133336862D01*
X182681456Y-133199873D01*
X182662885Y-133163157D01*
X182732002Y-133163157D01*
X182778859Y-133182568D01*
X182862483Y-133177419D01*
X182903272Y-133167701D01*
X182936183Y-133150030D01*
X182908824Y-133129388D01*
X182867345Y-133117598D01*
X182778343Y-133115126D01*
X182738925Y-133129611D01*
X182732002Y-133163157D01*
X182662885Y-133163157D01*
X182620771Y-133079895D01*
X182580683Y-133005061D01*
X182652911Y-133005061D01*
X182660285Y-133014372D01*
X182715654Y-133038532D01*
X182725053Y-133037994D01*
X182787353Y-133017844D01*
X182832952Y-132982088D01*
X182836824Y-132949180D01*
X182833732Y-132946547D01*
X182784659Y-132937558D01*
X182718926Y-132950160D01*
X182665392Y-132975584D01*
X182652911Y-133005061D01*
X182580683Y-133005061D01*
X182577326Y-132998795D01*
X182557060Y-132969000D01*
X182553858Y-132971211D01*
X182513662Y-133008356D01*
X182433744Y-133085719D01*
X182321535Y-133196006D01*
X182184468Y-133331925D01*
X182029976Y-133486182D01*
X181513656Y-134003365D01*
X181416180Y-134003365D01*
X181416112Y-133996412D01*
X181416932Y-133989374D01*
X181423773Y-133967353D01*
X181449295Y-133967353D01*
X181455611Y-133964888D01*
X181502314Y-133926575D01*
X181587815Y-133848217D01*
X181704817Y-133736723D01*
X181846023Y-133599003D01*
X182004138Y-133441965D01*
X182072663Y-133372916D01*
X182221263Y-133220041D01*
X182346875Y-133086444D01*
X182442737Y-132979569D01*
X182502090Y-132906863D01*
X182508296Y-132894867D01*
X182639228Y-132894867D01*
X182654917Y-132890428D01*
X182713586Y-132874781D01*
X182746038Y-132861346D01*
X182774897Y-132826293D01*
X182765535Y-132800442D01*
X182724688Y-132801037D01*
X182721258Y-132803870D01*
X182669793Y-132846379D01*
X182647199Y-132875771D01*
X182646825Y-132876257D01*
X182639228Y-132894867D01*
X182508296Y-132894867D01*
X182518174Y-132875771D01*
X182517398Y-132875163D01*
X182480583Y-132890828D01*
X182404269Y-132951072D01*
X182295636Y-133048998D01*
X182161865Y-133177709D01*
X182010134Y-133330305D01*
X181847624Y-133499891D01*
X181681515Y-133679567D01*
X181603147Y-133767622D01*
X181519338Y-133866610D01*
X181465009Y-133936961D01*
X181449295Y-133967353D01*
X181423773Y-133967353D01*
X181432305Y-133939886D01*
X181469386Y-133876064D01*
X181533807Y-133790928D01*
X181631197Y-133677499D01*
X181767186Y-133528797D01*
X181947406Y-133337845D01*
X182413537Y-132848447D01*
X182564690Y-132848447D01*
X182565031Y-132853344D01*
X182585311Y-132861060D01*
X182620587Y-132823449D01*
X182629111Y-132803870D01*
X182605137Y-132807999D01*
X182589574Y-132818814D01*
X182564690Y-132848447D01*
X182413537Y-132848447D01*
X182468742Y-132790487D01*
X182422208Y-132692810D01*
X182494621Y-132692810D01*
X182503428Y-132717009D01*
X182543870Y-132717193D01*
X182554878Y-132708309D01*
X182634759Y-132708309D01*
X182635100Y-132713207D01*
X182655380Y-132720922D01*
X182690656Y-132683311D01*
X182699180Y-132663732D01*
X182675206Y-132667861D01*
X182659643Y-132678676D01*
X182634759Y-132708309D01*
X182554878Y-132708309D01*
X182597437Y-132673963D01*
X182606366Y-132662812D01*
X182615259Y-132636214D01*
X182566692Y-132643015D01*
X182523842Y-132660325D01*
X182494621Y-132692810D01*
X182422208Y-132692810D01*
X182346875Y-132534680D01*
X182413268Y-132534680D01*
X182431035Y-132568908D01*
X182464228Y-132576230D01*
X182538414Y-132559470D01*
X182580473Y-132541977D01*
X182602401Y-132505441D01*
X182571762Y-132475549D01*
X182497106Y-132470679D01*
X182425129Y-132493258D01*
X182413268Y-132534680D01*
X182346875Y-132534680D01*
X182257530Y-132347138D01*
X182328032Y-132347138D01*
X182328951Y-132349636D01*
X182375021Y-132388803D01*
X182447130Y-132404122D01*
X182504821Y-132386570D01*
X182528787Y-132350128D01*
X182506540Y-132315557D01*
X182421632Y-132303345D01*
X182346281Y-132313797D01*
X182328032Y-132347138D01*
X182257530Y-132347138D01*
X182253957Y-132339637D01*
X182229331Y-132287322D01*
X182164144Y-132141643D01*
X182234786Y-132141643D01*
X182235866Y-132178523D01*
X182274188Y-132215509D01*
X182361151Y-132233276D01*
X182365454Y-132233249D01*
X182437012Y-132219150D01*
X182450905Y-132188715D01*
X182412150Y-132155917D01*
X182325764Y-132134730D01*
X182281103Y-132131729D01*
X182234786Y-132141643D01*
X182164144Y-132141643D01*
X182154627Y-132120375D01*
X182094259Y-131973010D01*
X182081911Y-131938321D01*
X182121830Y-131938321D01*
X182139164Y-131979763D01*
X182140010Y-131981058D01*
X182192128Y-132016877D01*
X182278026Y-132044564D01*
X182329675Y-132053213D01*
X182372168Y-132048055D01*
X182370390Y-132013988D01*
X182370293Y-132013739D01*
X182323933Y-131969981D01*
X182241544Y-131939171D01*
X182229285Y-131936752D01*
X182148105Y-131925477D01*
X182121830Y-131938321D01*
X182081911Y-131938321D01*
X182053888Y-131859594D01*
X182039173Y-131794492D01*
X182039234Y-131790476D01*
X182045750Y-131767718D01*
X182113946Y-131767718D01*
X182148765Y-131816377D01*
X182172698Y-131828628D01*
X182249380Y-131846194D01*
X182257141Y-131845654D01*
X182266510Y-131825201D01*
X182215382Y-131773552D01*
X182213645Y-131772112D01*
X182146093Y-131729364D01*
X182114767Y-131743735D01*
X182113946Y-131767718D01*
X182045750Y-131767718D01*
X182060076Y-131717687D01*
X182123533Y-131627321D01*
X182130366Y-131620172D01*
X182179311Y-131620172D01*
X182196828Y-131637689D01*
X182214345Y-131620172D01*
X182203499Y-131609326D01*
X182302374Y-131609326D01*
X182304349Y-131620172D01*
X182316056Y-131684457D01*
X182348499Y-131783888D01*
X182365429Y-131825201D01*
X182401819Y-131914003D01*
X182463010Y-132048055D01*
X182478134Y-132081187D01*
X182529911Y-132188715D01*
X182579561Y-132291825D01*
X182608359Y-132350128D01*
X182685074Y-132505441D01*
X182708219Y-132552300D01*
X182750085Y-132636214D01*
X182763814Y-132663732D01*
X182844919Y-132826293D01*
X182866225Y-132868997D01*
X182906298Y-132949180D01*
X183006675Y-133150030D01*
X183100046Y-133336862D01*
X183224193Y-133585273D01*
X183347571Y-133832145D01*
X183453150Y-134043404D01*
X183458456Y-134054022D01*
X183443065Y-134084822D01*
X183409532Y-134151925D01*
X183334976Y-134301122D01*
X183257672Y-134455818D01*
X183186642Y-134597960D01*
X183111144Y-134749043D01*
X183029723Y-134911979D01*
X182904861Y-135161844D01*
X182900290Y-135170992D01*
X182887378Y-135196832D01*
X182880205Y-135211207D01*
X182819014Y-135333827D01*
X182797593Y-135376753D01*
X182742919Y-135486316D01*
X182701579Y-135569715D01*
X182626891Y-135720391D01*
X182596006Y-135783727D01*
X182536512Y-135905733D01*
X182503344Y-135976126D01*
X182468998Y-136049018D01*
X182421568Y-136156922D01*
X182413448Y-136178267D01*
X182391438Y-136236120D01*
X182375827Y-136293288D01*
X182371950Y-136335103D01*
X182375329Y-136357155D01*
X182377027Y-136368240D01*
X182388273Y-136399374D01*
X182396473Y-136417525D01*
X182486433Y-136528651D01*
X182561907Y-136566101D01*
X182614081Y-136591990D01*
X182759555Y-136596972D01*
X182778150Y-136593045D01*
X182811058Y-136581629D01*
X182843947Y-136560094D01*
X182880338Y-136522620D01*
X182923753Y-136463386D01*
X182977711Y-136376572D01*
X183045734Y-136256356D01*
X183131342Y-136096919D01*
X183225575Y-135916353D01*
X183309642Y-135916353D01*
X183315583Y-135923729D01*
X183362388Y-135972742D01*
X183450527Y-136061760D01*
X183573864Y-136184683D01*
X183726263Y-136335410D01*
X183901586Y-136507839D01*
X184093698Y-136695870D01*
X184126637Y-136727989D01*
X184335998Y-136929787D01*
X184522517Y-137105513D01*
X184680910Y-137250414D01*
X184805897Y-137359735D01*
X184892196Y-137428724D01*
X184934525Y-137452627D01*
X184951875Y-137445722D01*
X185017965Y-137397907D01*
X185121178Y-137310727D01*
X185254128Y-137191423D01*
X185409432Y-137047236D01*
X185579706Y-136885408D01*
X185757566Y-136713178D01*
X185935628Y-136537788D01*
X186106507Y-136366479D01*
X186262821Y-136206492D01*
X186397184Y-136065068D01*
X186502213Y-135949448D01*
X186570524Y-135866873D01*
X186594732Y-135824584D01*
X186590063Y-135818277D01*
X186553071Y-135836271D01*
X186477613Y-135896517D01*
X186361775Y-136000768D01*
X186203642Y-136150774D01*
X186001301Y-136348287D01*
X185752837Y-136595060D01*
X184912018Y-137435331D01*
X184125048Y-136648943D01*
X184018433Y-136542084D01*
X183836206Y-136357836D01*
X183675005Y-136192799D01*
X183540587Y-136052986D01*
X183438708Y-135944412D01*
X183375125Y-135873091D01*
X183355594Y-135845038D01*
X183364027Y-135849021D01*
X183414825Y-135891396D01*
X183505882Y-135974767D01*
X183631128Y-136093355D01*
X183784494Y-136241385D01*
X183959913Y-136413076D01*
X184151314Y-136602651D01*
X184929517Y-137377780D01*
X185762228Y-136525253D01*
X186494078Y-135775986D01*
X186631096Y-135775986D01*
X186663724Y-135802952D01*
X186695256Y-135820950D01*
X186777957Y-135835168D01*
X186845797Y-135809924D01*
X186873931Y-135751322D01*
X186865768Y-135716119D01*
X186827229Y-135706560D01*
X186770556Y-135752159D01*
X186739511Y-135775968D01*
X186669922Y-135783888D01*
X186659426Y-135780597D01*
X186631096Y-135775986D01*
X186494078Y-135775986D01*
X186594938Y-135672726D01*
X186594719Y-135653491D01*
X186704572Y-135653491D01*
X186721051Y-135658313D01*
X186795104Y-135630529D01*
X186845260Y-135602050D01*
X186873931Y-135562680D01*
X186862271Y-135531434D01*
X186818177Y-135538550D01*
X186766947Y-135583015D01*
X186751311Y-135596586D01*
X186738657Y-135610628D01*
X186704572Y-135653491D01*
X186594719Y-135653491D01*
X186594071Y-135596586D01*
X186628690Y-135596586D01*
X186629092Y-135604515D01*
X186644139Y-135631620D01*
X186649759Y-135630008D01*
X186681242Y-135596586D01*
X186686716Y-135583015D01*
X186665792Y-135561552D01*
X186655623Y-135562898D01*
X186628690Y-135596586D01*
X186594071Y-135596586D01*
X186592322Y-135443017D01*
X186628690Y-135443017D01*
X186637586Y-135473474D01*
X186692020Y-135485548D01*
X186795104Y-135448723D01*
X186798148Y-135447235D01*
X186858753Y-135404101D01*
X186871293Y-135367106D01*
X186830138Y-135351823D01*
X186737611Y-135364564D01*
X186659822Y-135398491D01*
X186628690Y-135443017D01*
X186592322Y-135443017D01*
X186590348Y-135269637D01*
X186628690Y-135269637D01*
X186629119Y-135282292D01*
X186642173Y-135308480D01*
X186686043Y-135306022D01*
X186777586Y-135275590D01*
X186844501Y-135238069D01*
X186873931Y-135194049D01*
X186869372Y-135174216D01*
X186834398Y-135165100D01*
X186751311Y-135185330D01*
X186733247Y-135191382D01*
X186658859Y-135229800D01*
X186628690Y-135269637D01*
X186590348Y-135269637D01*
X186588354Y-135094464D01*
X186628690Y-135094464D01*
X186629119Y-135107119D01*
X186642173Y-135133308D01*
X186686043Y-135130849D01*
X186777586Y-135100418D01*
X186844501Y-135062896D01*
X186873931Y-135018877D01*
X186869372Y-134999044D01*
X186834398Y-134989927D01*
X186751311Y-135010157D01*
X186733247Y-135016210D01*
X186658859Y-135054628D01*
X186628690Y-135094464D01*
X186588354Y-135094464D01*
X186586160Y-134901774D01*
X186628690Y-134901774D01*
X186632993Y-134910949D01*
X186680022Y-134925897D01*
X186755529Y-134925112D01*
X186830138Y-134907728D01*
X186846230Y-134897975D01*
X186873931Y-134843704D01*
X186869372Y-134823871D01*
X186834398Y-134814755D01*
X186751311Y-134834985D01*
X186732616Y-134841063D01*
X186658658Y-134873531D01*
X186628690Y-134901774D01*
X186586160Y-134901774D01*
X186585538Y-134847150D01*
X186584138Y-134724151D01*
X186628690Y-134724151D01*
X186631976Y-134735773D01*
X186672483Y-134750987D01*
X186761491Y-134737833D01*
X186846943Y-134708466D01*
X186873931Y-134665736D01*
X186873580Y-134641378D01*
X186863447Y-134620402D01*
X186824923Y-134625184D01*
X186739021Y-134654082D01*
X186730226Y-134657248D01*
X186658229Y-134692385D01*
X186628690Y-134724151D01*
X186584138Y-134724151D01*
X186581905Y-134528034D01*
X186628690Y-134528034D01*
X186633797Y-134552328D01*
X186672483Y-134578365D01*
X186688344Y-134576946D01*
X186773010Y-134553602D01*
X186844092Y-134513952D01*
X186873931Y-134472525D01*
X186858493Y-134450735D01*
X186795104Y-134453401D01*
X186740072Y-134465964D01*
X186672483Y-134475004D01*
X186652252Y-134481207D01*
X186628690Y-134528034D01*
X186581905Y-134528034D01*
X186579977Y-134358740D01*
X186628690Y-134358740D01*
X186629119Y-134371395D01*
X186642173Y-134397584D01*
X186686043Y-134395125D01*
X186777586Y-134364694D01*
X186844501Y-134327172D01*
X186873931Y-134283153D01*
X186869372Y-134263320D01*
X186834398Y-134254203D01*
X186751311Y-134274433D01*
X186733247Y-134280486D01*
X186658859Y-134318904D01*
X186628690Y-134358740D01*
X186579977Y-134358740D01*
X186577982Y-134183568D01*
X186628690Y-134183568D01*
X186629119Y-134196223D01*
X186642173Y-134222411D01*
X186686043Y-134219953D01*
X186777586Y-134189521D01*
X186844501Y-134152000D01*
X186873931Y-134107980D01*
X186869372Y-134088147D01*
X186834398Y-134079031D01*
X186751311Y-134099261D01*
X186733247Y-134105313D01*
X186658859Y-134143731D01*
X186628690Y-134183568D01*
X186577982Y-134183568D01*
X186576138Y-134021573D01*
X185910483Y-135323446D01*
X185834145Y-135472340D01*
X185652418Y-135822869D01*
X185497242Y-136116016D01*
X185369282Y-136350578D01*
X185269198Y-136525357D01*
X185197655Y-136639151D01*
X185155316Y-136690761D01*
X185126669Y-136708235D01*
X185009446Y-136747291D01*
X184863440Y-136766351D01*
X184712531Y-136765077D01*
X184580599Y-136743130D01*
X184491523Y-136700172D01*
X184480262Y-136686661D01*
X184581649Y-136686661D01*
X184596361Y-136699869D01*
X184661809Y-136716114D01*
X184738628Y-136711084D01*
X184787883Y-136685076D01*
X184794777Y-136652023D01*
X184752397Y-136630284D01*
X184658209Y-136637332D01*
X184596882Y-136658954D01*
X184581649Y-136686661D01*
X184480262Y-136686661D01*
X184474306Y-136679515D01*
X184422132Y-136598457D01*
X184374623Y-136516241D01*
X184430058Y-136516241D01*
X184444426Y-136535559D01*
X184507490Y-136564451D01*
X184585472Y-136573477D01*
X184641794Y-136555804D01*
X184666587Y-136514954D01*
X184636481Y-136483248D01*
X184541219Y-136472448D01*
X184531337Y-136472516D01*
X184448078Y-136484142D01*
X184430058Y-136516241D01*
X184374623Y-136516241D01*
X184347740Y-136469719D01*
X184261657Y-136312413D01*
X184336609Y-136312413D01*
X184337974Y-136347730D01*
X184380229Y-136386197D01*
X184480737Y-136402379D01*
X184509586Y-136401422D01*
X184577733Y-136384155D01*
X184586909Y-136354247D01*
X184541372Y-136323556D01*
X184445380Y-136303937D01*
X184379656Y-136300853D01*
X184336609Y-136312413D01*
X184261657Y-136312413D01*
X184256606Y-136303182D01*
X184154206Y-136108727D01*
X184150524Y-136101495D01*
X184220241Y-136101495D01*
X184225202Y-136121864D01*
X184264696Y-136170484D01*
X184292541Y-136191826D01*
X184364848Y-136219976D01*
X184439825Y-136227738D01*
X184494495Y-136214312D01*
X184505883Y-136178895D01*
X184495292Y-136165909D01*
X184435079Y-136134331D01*
X184349330Y-136107695D01*
X184267799Y-136094062D01*
X184220241Y-136101495D01*
X184150524Y-136101495D01*
X184046014Y-135896234D01*
X184028270Y-135860796D01*
X184094095Y-135860796D01*
X184102479Y-135875077D01*
X184160835Y-135928773D01*
X184249270Y-135983458D01*
X184317365Y-136017481D01*
X184384906Y-136045836D01*
X184414784Y-136044913D01*
X184421517Y-136017590D01*
X184406217Y-135995756D01*
X184342984Y-135949041D01*
X184247429Y-135894928D01*
X184237286Y-135889811D01*
X184141923Y-135845892D01*
X184097005Y-135836847D01*
X184094095Y-135860796D01*
X184028270Y-135860796D01*
X183932060Y-135668645D01*
X184007606Y-135668645D01*
X184015200Y-135680493D01*
X184065482Y-135718601D01*
X184142553Y-135759660D01*
X184224604Y-135794074D01*
X184289827Y-135812241D01*
X184316414Y-135804565D01*
X184311111Y-135790707D01*
X184263493Y-135744450D01*
X184186394Y-135692231D01*
X184104371Y-135649511D01*
X184041977Y-135631751D01*
X184023026Y-135635346D01*
X184007606Y-135668645D01*
X183932060Y-135668645D01*
X183853798Y-135512341D01*
X183923199Y-135512341D01*
X183927992Y-135517887D01*
X183986468Y-135548152D01*
X184077857Y-135571112D01*
X184141737Y-135579023D01*
X184187196Y-135572494D01*
X184187855Y-135541193D01*
X184187033Y-135539180D01*
X184134734Y-135491087D01*
X184045849Y-135461829D01*
X183952246Y-135462104D01*
X183927610Y-135473723D01*
X183923199Y-135512341D01*
X183853798Y-135512341D01*
X183764416Y-135333827D01*
X183825931Y-135333827D01*
X183828274Y-135348394D01*
X183867942Y-135377563D01*
X183964970Y-135386379D01*
X184033135Y-135383843D01*
X184082177Y-135368392D01*
X184083842Y-135333827D01*
X184040493Y-135296697D01*
X183944804Y-135281276D01*
X183940220Y-135281293D01*
X183853419Y-135294394D01*
X183825931Y-135333827D01*
X183764416Y-135333827D01*
X183678565Y-135162365D01*
X183489959Y-135528372D01*
X183419075Y-135668786D01*
X183360026Y-135791524D01*
X183321525Y-135878399D01*
X183309642Y-135916353D01*
X183225575Y-135916353D01*
X183238055Y-135892439D01*
X183369396Y-135637096D01*
X183528883Y-135325069D01*
X183601990Y-135184520D01*
X183616529Y-135157779D01*
X183751847Y-135157779D01*
X183762335Y-135187852D01*
X183811746Y-135196040D01*
X183913517Y-135177309D01*
X183955624Y-135166042D01*
X183987573Y-135147239D01*
X183959858Y-135126354D01*
X183933874Y-135117505D01*
X183853270Y-135110416D01*
X183782814Y-135125318D01*
X183751847Y-135157779D01*
X183616529Y-135157779D01*
X183687311Y-135027590D01*
X183703317Y-134999900D01*
X183755862Y-134999900D01*
X183756793Y-135011148D01*
X183787571Y-135033739D01*
X183859951Y-135002368D01*
X183883875Y-134981140D01*
X183887738Y-134946025D01*
X183842295Y-134935297D01*
X183784167Y-134957856D01*
X183755862Y-134999900D01*
X183703317Y-134999900D01*
X183759384Y-134902908D01*
X183812275Y-134820662D01*
X183840046Y-134791039D01*
X183841722Y-134791619D01*
X183870568Y-134829716D01*
X183925298Y-134921688D01*
X183938764Y-134946025D01*
X184001579Y-135059555D01*
X184048220Y-135147239D01*
X184095080Y-135235336D01*
X184146017Y-135333827D01*
X184201469Y-135441048D01*
X184252031Y-135541193D01*
X184316414Y-135668711D01*
X184328081Y-135692064D01*
X184384836Y-135804565D01*
X184443712Y-135921272D01*
X184493206Y-136017590D01*
X184551248Y-136130543D01*
X184576629Y-136178895D01*
X184646126Y-136311287D01*
X184669355Y-136354247D01*
X184723786Y-136454914D01*
X184758047Y-136514954D01*
X184779663Y-136552835D01*
X184809196Y-136596462D01*
X184877258Y-136637196D01*
X184922545Y-136652023D01*
X184973287Y-136668636D01*
X184998407Y-136672969D01*
X185085604Y-136666034D01*
X185163824Y-136607742D01*
X185171247Y-136598345D01*
X185212429Y-136531354D01*
X185280415Y-136409990D01*
X185371938Y-136240464D01*
X185483731Y-136028987D01*
X185612529Y-135781771D01*
X185755064Y-135505028D01*
X185908072Y-135204968D01*
X186068284Y-134887803D01*
X186131964Y-134761303D01*
X186287002Y-134454638D01*
X186431832Y-134169995D01*
X186514648Y-134008395D01*
X186628690Y-134008395D01*
X186629119Y-134021051D01*
X186642173Y-134047239D01*
X186686043Y-134044780D01*
X186777586Y-134014349D01*
X186844501Y-133976827D01*
X186873931Y-133932808D01*
X186869372Y-133912975D01*
X186834398Y-133903858D01*
X186751311Y-133924088D01*
X186733247Y-133930141D01*
X186658859Y-133968559D01*
X186628690Y-134008395D01*
X186514648Y-134008395D01*
X186563442Y-133913184D01*
X186610603Y-133821961D01*
X186705273Y-133821961D01*
X186739632Y-133842096D01*
X186754468Y-133840901D01*
X186842416Y-133812678D01*
X186873931Y-133755485D01*
X186853974Y-133730299D01*
X186801292Y-133733013D01*
X186742971Y-133760385D01*
X186706402Y-133804415D01*
X186705273Y-133821961D01*
X186610603Y-133821961D01*
X186678818Y-133690014D01*
X186717256Y-133616554D01*
X186809117Y-133616554D01*
X186822044Y-133623120D01*
X186856658Y-133603110D01*
X186873931Y-133551740D01*
X186867746Y-133537245D01*
X186832474Y-133556995D01*
X186813953Y-133580560D01*
X186809117Y-133616554D01*
X186717256Y-133616554D01*
X186774948Y-133506295D01*
X186848817Y-133367836D01*
X186897414Y-133280449D01*
X186917724Y-133249941D01*
X186917769Y-133249942D01*
X186923039Y-133284252D01*
X186927956Y-133381772D01*
X186932411Y-133535701D01*
X186932717Y-133551740D01*
X186936296Y-133739237D01*
X186936508Y-133755485D01*
X186938818Y-133932808D01*
X186939506Y-133985578D01*
X186940557Y-134107980D01*
X186941931Y-134267923D01*
X186942006Y-134283153D01*
X186942938Y-134472525D01*
X186943465Y-134579468D01*
X186943603Y-134665736D01*
X186943888Y-134843704D01*
X186944000Y-134913414D01*
X186944017Y-135018877D01*
X186944022Y-135051512D01*
X186944170Y-135194049D01*
X186944349Y-135367106D01*
X186944401Y-135417699D01*
X186944872Y-135562680D01*
X186945229Y-135672726D01*
X186945387Y-135721363D01*
X186945602Y-135751322D01*
X186946883Y-135929773D01*
X186947159Y-135968153D01*
X186949053Y-136103489D01*
X186949896Y-136163714D01*
X186952869Y-136278661D01*
X186953775Y-136313695D01*
X186958975Y-136423743D01*
X186961642Y-136453903D01*
X186965674Y-136499505D01*
X186974051Y-136546629D01*
X186984285Y-136570762D01*
X186996552Y-136577552D01*
X186999957Y-136577072D01*
X187010792Y-136566323D01*
X187019927Y-136537499D01*
X187027499Y-136485403D01*
X187033644Y-136404834D01*
X187038497Y-136290592D01*
X187042194Y-136137479D01*
X187044873Y-135940296D01*
X187046667Y-135693841D01*
X187047715Y-135392917D01*
X187048151Y-135032324D01*
X187048112Y-134606862D01*
X187047121Y-132636172D01*
X186678459Y-133354379D01*
X186634357Y-133440447D01*
X186514028Y-133676286D01*
X186372896Y-133953990D01*
X186218297Y-134259069D01*
X186057568Y-134577037D01*
X185898045Y-134893406D01*
X185747064Y-135193689D01*
X185627654Y-135430548D01*
X185502849Y-135675812D01*
X185389563Y-135896070D01*
X185291730Y-136083775D01*
X185213288Y-136231379D01*
X185158173Y-136331338D01*
X185130321Y-136376103D01*
X185083910Y-136412093D01*
X184999586Y-136437414D01*
X184943985Y-136425610D01*
X184868438Y-136376103D01*
X184862808Y-136368527D01*
X184825375Y-136305278D01*
X184762652Y-136190082D01*
X184679024Y-136031329D01*
X184578875Y-135837408D01*
X184466591Y-135616709D01*
X184346557Y-135377620D01*
X184304701Y-135293852D01*
X184189673Y-135065179D01*
X184085782Y-134860859D01*
X183997011Y-134688583D01*
X183927347Y-134556042D01*
X183880772Y-134470927D01*
X183861273Y-134440930D01*
X183858476Y-134443737D01*
X183830011Y-134491063D01*
X183775243Y-134590884D01*
X183698259Y-134735472D01*
X183603144Y-134917102D01*
X183493985Y-135128048D01*
X183374867Y-135360585D01*
X183346311Y-135416468D01*
X183224966Y-135651018D01*
X183111221Y-135866399D01*
X183009831Y-136053915D01*
X182925549Y-136204868D01*
X182863129Y-136310561D01*
X182827326Y-136362296D01*
X182751819Y-136419227D01*
X182674008Y-136421234D01*
X182658042Y-136416021D01*
X182613799Y-136397536D01*
X182583320Y-136372112D01*
X182568585Y-136333570D01*
X182571574Y-136275731D01*
X182594268Y-136192417D01*
X182638646Y-136077450D01*
X182706688Y-135924650D01*
X182800374Y-135727839D01*
X182921685Y-135480839D01*
X183072600Y-135177471D01*
X183178885Y-134963778D01*
X183297455Y-134723908D01*
X183402491Y-134509810D01*
X183490414Y-134328855D01*
X183557645Y-134188414D01*
X183600608Y-134095857D01*
X183615724Y-134058557D01*
X183615527Y-134057378D01*
X183597221Y-134013614D01*
X183551554Y-133914959D01*
X183481933Y-133768491D01*
X183391765Y-133581287D01*
X183284454Y-133360421D01*
X183163409Y-133112971D01*
X183032035Y-132846013D01*
X182915774Y-132610259D01*
X182784387Y-132342246D01*
X182680359Y-132126158D01*
X182601547Y-131955750D01*
X182545806Y-131824782D01*
X182510993Y-131727010D01*
X182494962Y-131656190D01*
X182495410Y-131619369D01*
X182552821Y-131619369D01*
X182560305Y-131678387D01*
X182588416Y-131768032D01*
X182639067Y-131893582D01*
X182714168Y-132060312D01*
X182815633Y-132273499D01*
X182945372Y-132538418D01*
X183105297Y-132860345D01*
X183692432Y-134037552D01*
X183144656Y-135143325D01*
X183140401Y-135151916D01*
X182978794Y-135481329D01*
X182845948Y-135758636D01*
X182742733Y-135981908D01*
X182670018Y-136149216D01*
X182628673Y-136258631D01*
X182619568Y-136308222D01*
X182643302Y-136341980D01*
X182713806Y-136366126D01*
X182796967Y-136340532D01*
X182805628Y-136329810D01*
X182844327Y-136265010D01*
X182907949Y-136148984D01*
X182992407Y-135989500D01*
X183093613Y-135794322D01*
X183207481Y-135571218D01*
X183329921Y-135327954D01*
X183391797Y-135204526D01*
X183509865Y-134970950D01*
X183616908Y-134761694D01*
X183708915Y-134584453D01*
X183781872Y-134446921D01*
X183831767Y-134356795D01*
X183854588Y-134321769D01*
X183864470Y-134329810D01*
X183903000Y-134389474D01*
X183965681Y-134500710D01*
X184048659Y-134656242D01*
X184148083Y-134848791D01*
X184260098Y-135071078D01*
X184380852Y-135315826D01*
X184384618Y-135323535D01*
X184527644Y-135612897D01*
X184654280Y-135862411D01*
X184761963Y-136067308D01*
X184848128Y-136222818D01*
X184910214Y-136324174D01*
X184945656Y-136366607D01*
X184947581Y-136367628D01*
X185014614Y-136383340D01*
X185077611Y-136341829D01*
X185078269Y-136341125D01*
X185106353Y-136296150D01*
X185162655Y-136194378D01*
X185244276Y-136041410D01*
X185348312Y-135842849D01*
X185471862Y-135604294D01*
X185612025Y-135331348D01*
X185765899Y-135029611D01*
X185930582Y-134704684D01*
X186103173Y-134362169D01*
X186118479Y-134331711D01*
X186289206Y-133992884D01*
X186450780Y-133673806D01*
X186600432Y-133379845D01*
X186735393Y-133116367D01*
X186852893Y-132888739D01*
X186950162Y-132702329D01*
X187024432Y-132562503D01*
X187072934Y-132474629D01*
X187092897Y-132444073D01*
X187097295Y-132473142D01*
X187101789Y-132566428D01*
X187105935Y-132718033D01*
X187109657Y-132921851D01*
X187112875Y-133171780D01*
X187115514Y-133461715D01*
X187117495Y-133785553D01*
X187118740Y-134137188D01*
X187119173Y-134510517D01*
X187119173Y-136577552D01*
X187389442Y-136577552D01*
X187415253Y-134215655D01*
X187417410Y-134009792D01*
X187420998Y-133616652D01*
X187423697Y-133245925D01*
X187425500Y-132903567D01*
X187426403Y-132595535D01*
X187426402Y-132327784D01*
X187425490Y-132106271D01*
X187423664Y-131936952D01*
X187420919Y-131825783D01*
X187417249Y-131778721D01*
X187416905Y-131777646D01*
X187377869Y-131722274D01*
X187300096Y-131714480D01*
X187286903Y-131717345D01*
X187264761Y-131729233D01*
X187238527Y-131754144D01*
X187205735Y-131796595D01*
X187163916Y-131861105D01*
X187110602Y-131952192D01*
X187043326Y-132074373D01*
X186959621Y-132232167D01*
X186857018Y-132430092D01*
X186733050Y-132672666D01*
X186585248Y-132964408D01*
X186411146Y-133309834D01*
X186208276Y-133713463D01*
X186163212Y-133803149D01*
X185990802Y-134145408D01*
X185828060Y-134467132D01*
X185677691Y-134763051D01*
X185542403Y-135027899D01*
X185424901Y-135256406D01*
X185327892Y-135443304D01*
X185254082Y-135583327D01*
X185206178Y-135671205D01*
X185186886Y-135701670D01*
X185183509Y-135681461D01*
X185178977Y-135597852D01*
X185174392Y-135455166D01*
X185169861Y-135259617D01*
X185165494Y-135017420D01*
X185161401Y-134734791D01*
X185157690Y-134417945D01*
X185154470Y-134073097D01*
X185151851Y-133706462D01*
X185150966Y-133565944D01*
X185147736Y-133133716D01*
X185144071Y-132766304D01*
X185139862Y-132459653D01*
X185135000Y-132209707D01*
X185129375Y-132012409D01*
X185122879Y-131863705D01*
X185115403Y-131759539D01*
X185106838Y-131695856D01*
X185097074Y-131668598D01*
X185091508Y-131663250D01*
X185057716Y-131641858D01*
X185021055Y-131642797D01*
X184978057Y-131671154D01*
X184925257Y-131732017D01*
X184859186Y-131830474D01*
X184776378Y-131971612D01*
X184673366Y-132160518D01*
X184546683Y-132402281D01*
X184392862Y-132701987D01*
X184316500Y-132850985D01*
X184195639Y-133083910D01*
X184086184Y-133291330D01*
X183992150Y-133465826D01*
X183917556Y-133599980D01*
X183866419Y-133686377D01*
X183842757Y-133717598D01*
X183826501Y-133699353D01*
X183780735Y-133625774D01*
X183710395Y-133502417D01*
X183619375Y-133336407D01*
X183511570Y-133134867D01*
X183390872Y-132904920D01*
X183261177Y-132653689D01*
X183145679Y-132428955D01*
X183012476Y-132172821D01*
X182904714Y-131970308D01*
X182819298Y-131816041D01*
X182753131Y-131704644D01*
X182703116Y-131630742D01*
X182666158Y-131588960D01*
X182639158Y-131573922D01*
X182635015Y-131573325D01*
X182592088Y-131572115D01*
X182564052Y-131585704D01*
X182552821Y-131619369D01*
X182495410Y-131619369D01*
X182495571Y-131606082D01*
X182510674Y-131570440D01*
X182538129Y-131543024D01*
X182575790Y-131517589D01*
X182617548Y-131499737D01*
X182696069Y-131517703D01*
X182714959Y-131540204D01*
X182765390Y-131619885D01*
X182840246Y-131749085D01*
X182935353Y-131920257D01*
X183046534Y-132125850D01*
X183169613Y-132358317D01*
X183300414Y-132610109D01*
X183843448Y-133665205D01*
X184343970Y-132668933D01*
X184456344Y-132445994D01*
X184588820Y-132186921D01*
X184697308Y-131981865D01*
X184785613Y-131825564D01*
X184857541Y-131712756D01*
X184916896Y-131638180D01*
X184967484Y-131596573D01*
X185013108Y-131582673D01*
X185057576Y-131591220D01*
X185104690Y-131616951D01*
X185192276Y-131674339D01*
X185196882Y-133328911D01*
X185197868Y-133635244D01*
X185199215Y-133960226D01*
X185200773Y-134261455D01*
X185202486Y-134531212D01*
X185204299Y-134761779D01*
X185206158Y-134945435D01*
X185208008Y-135074461D01*
X185209793Y-135141138D01*
X185211541Y-135173947D01*
X185218548Y-135300520D01*
X185224622Y-135403896D01*
X185229711Y-135413317D01*
X185249820Y-135396183D01*
X185286731Y-135341974D01*
X185342179Y-135247449D01*
X185417896Y-135109367D01*
X185515615Y-134924487D01*
X185637068Y-134689569D01*
X185783988Y-134401371D01*
X185958107Y-134056652D01*
X186161159Y-133652172D01*
X186313542Y-133348815D01*
X186476613Y-133026189D01*
X186629441Y-132725898D01*
X186769036Y-132453716D01*
X186892407Y-132215417D01*
X186996562Y-132016774D01*
X187078512Y-131863561D01*
X187135266Y-131761550D01*
X187163832Y-131716517D01*
X187245094Y-131653063D01*
X187332598Y-131647529D01*
X187420294Y-131711447D01*
X187431295Y-131724952D01*
X187442767Y-131745552D01*
X187452473Y-131775729D01*
X187460525Y-131820522D01*
X187467032Y-131884972D01*
X187472105Y-131974121D01*
X187475853Y-132093009D01*
X187478387Y-132246678D01*
X187479817Y-132440168D01*
X187480101Y-132595535D01*
X187480252Y-132678521D01*
X187479804Y-132966778D01*
X187478582Y-133309979D01*
X187476697Y-133713165D01*
X187474258Y-134181378D01*
X187461481Y-136577552D01*
X187609655Y-136577552D01*
X187609655Y-134768197D01*
X187644690Y-134768197D01*
X187645945Y-134796905D01*
X187654074Y-134825827D01*
X187659721Y-134821601D01*
X187704317Y-134779999D01*
X187785527Y-134701043D01*
X187894388Y-134593497D01*
X188021937Y-134466126D01*
X188141603Y-134345750D01*
X188267445Y-134211613D01*
X188345411Y-134104963D01*
X188375371Y-134012815D01*
X188357195Y-133922184D01*
X188290753Y-133820086D01*
X188175916Y-133693537D01*
X188012552Y-133529552D01*
X187945940Y-133463964D01*
X187826806Y-133351084D01*
X187731259Y-133266458D01*
X187667739Y-133217390D01*
X187644690Y-133211187D01*
X187648501Y-133222093D01*
X187689270Y-133279764D01*
X187767609Y-133372451D01*
X187874691Y-133489990D01*
X188001688Y-133622217D01*
X188358156Y-133984462D01*
X188358685Y-133985000D01*
X188001688Y-134347783D01*
X187950398Y-134400501D01*
X187829951Y-134529456D01*
X187732939Y-134640685D01*
X187668230Y-134723746D01*
X187644690Y-134768197D01*
X187609655Y-134768197D01*
X187609655Y-134140915D01*
X187609655Y-134139664D01*
X187647506Y-134139664D01*
X187648699Y-134315774D01*
X187652895Y-134455428D01*
X187659735Y-134547431D01*
X187668860Y-134580586D01*
X187668893Y-134580586D01*
X187703987Y-134556978D01*
X187777214Y-134492924D01*
X187877883Y-134398186D01*
X187995302Y-134282524D01*
X188291816Y-133984462D01*
X187975618Y-133668263D01*
X187659419Y-133352065D01*
X187649176Y-133966325D01*
X187649157Y-133968270D01*
X187647506Y-134139664D01*
X187609655Y-134139664D01*
X187609661Y-133968270D01*
X187609639Y-133502348D01*
X187609263Y-133100051D01*
X187608161Y-132756564D01*
X187605959Y-132467069D01*
X187602282Y-132226751D01*
X187596756Y-132030793D01*
X187589008Y-131874379D01*
X187578663Y-131752693D01*
X187565347Y-131660918D01*
X187548686Y-131594238D01*
X187528306Y-131547837D01*
X187503833Y-131516899D01*
X187474894Y-131496607D01*
X187441112Y-131482145D01*
X187402116Y-131468697D01*
X187371406Y-131459873D01*
X187230510Y-131455489D01*
X187093336Y-131498273D01*
X187029334Y-131548747D01*
X186989387Y-131580251D01*
X186987216Y-131583268D01*
X186955415Y-131638534D01*
X186903255Y-131736743D01*
X186896524Y-131749417D01*
X186813783Y-131909528D01*
X186765366Y-132004603D01*
X186726215Y-132081483D01*
X186710432Y-132112476D01*
X186694207Y-132144651D01*
X186654228Y-132223929D01*
X186596450Y-132338504D01*
X186589711Y-132351867D01*
X186506334Y-132518462D01*
X186454859Y-132621313D01*
X186428560Y-132674204D01*
X186373540Y-132784858D01*
X186309117Y-132914421D01*
X186290800Y-132951483D01*
X186197716Y-133139831D01*
X186155724Y-133224799D01*
X186126197Y-133284686D01*
X186118383Y-133300471D01*
X186013323Y-133512713D01*
X185975819Y-133588479D01*
X185907797Y-133724948D01*
X185834902Y-133871195D01*
X185796636Y-133947383D01*
X185706495Y-134126853D01*
X185683363Y-134172485D01*
X185609959Y-134317284D01*
X185593642Y-134349471D01*
X185510966Y-134510517D01*
X185499389Y-134533068D01*
X185426782Y-134671664D01*
X185378867Y-134759278D01*
X185358690Y-134789928D01*
X185351459Y-134766633D01*
X185343857Y-134683669D01*
X185337825Y-134551312D01*
X185336448Y-134492296D01*
X185409968Y-134492296D01*
X185414161Y-134533873D01*
X185424699Y-134539354D01*
X185437517Y-134510517D01*
X185434989Y-134491970D01*
X185414161Y-134487161D01*
X185409968Y-134492296D01*
X185336448Y-134492296D01*
X185333848Y-134380804D01*
X185333645Y-134352862D01*
X185402483Y-134352862D01*
X185408112Y-134377288D01*
X185451286Y-134405414D01*
X185476144Y-134399424D01*
X185520256Y-134352862D01*
X185521643Y-134317284D01*
X185471452Y-134300310D01*
X185431574Y-134310043D01*
X185402483Y-134352862D01*
X185333645Y-134352862D01*
X185332414Y-134183389D01*
X185332393Y-134177689D01*
X185402483Y-134177689D01*
X185410843Y-134198912D01*
X185462185Y-134226034D01*
X185532547Y-134230389D01*
X185589334Y-134206885D01*
X185611983Y-134172485D01*
X185590579Y-134137641D01*
X185507586Y-134125138D01*
X185433819Y-134135968D01*
X185402483Y-134177689D01*
X185332393Y-134177689D01*
X185331840Y-134024434D01*
X185329639Y-133776019D01*
X185326022Y-133488841D01*
X185321241Y-133180290D01*
X185315545Y-132867757D01*
X185309184Y-132568629D01*
X185302015Y-132275411D01*
X185295045Y-132039511D01*
X185287773Y-131857909D01*
X185279583Y-131722663D01*
X185269860Y-131625833D01*
X185257988Y-131559475D01*
X185243352Y-131515650D01*
X185225338Y-131486415D01*
X185148044Y-131432506D01*
X185031374Y-131409797D01*
X184908114Y-131425783D01*
X184805653Y-131480830D01*
X184804314Y-131482102D01*
X184767051Y-131534509D01*
X184731412Y-131594489D01*
X184704114Y-131640431D01*
X184620343Y-131790993D01*
X184608634Y-131812862D01*
X184520578Y-131977323D01*
X184503473Y-132010205D01*
X184428438Y-132154448D01*
X184409660Y-132190546D01*
X184351278Y-132305705D01*
X184292428Y-132421787D01*
X184287814Y-132431001D01*
X184276607Y-132453070D01*
X184198198Y-132607481D01*
X184169878Y-132663252D01*
X184115768Y-132766741D01*
X184063164Y-132867348D01*
X184028644Y-132931008D01*
X183971544Y-133036309D01*
X183909765Y-133144172D01*
X183898889Y-133163160D01*
X183849069Y-133240921D01*
X183825956Y-133262615D01*
X183823894Y-133259978D01*
X183795289Y-133211036D01*
X183759048Y-133144172D01*
X183808414Y-133144172D01*
X183815605Y-133154657D01*
X183845516Y-133179207D01*
X183849013Y-133178296D01*
X183860966Y-133144172D01*
X183859540Y-133134570D01*
X183823864Y-133109138D01*
X183811192Y-133111888D01*
X183808414Y-133144172D01*
X183759048Y-133144172D01*
X183740151Y-133109308D01*
X183675228Y-132986517D01*
X183755862Y-132986517D01*
X183764892Y-133027086D01*
X183803148Y-133031944D01*
X183887242Y-133002943D01*
X183937316Y-132973591D01*
X183966069Y-132931008D01*
X183950631Y-132909218D01*
X183887242Y-132911884D01*
X183833800Y-132924841D01*
X183782138Y-132933487D01*
X183770136Y-132939546D01*
X183755862Y-132986517D01*
X183675228Y-132986517D01*
X183662787Y-132962986D01*
X183567499Y-132780262D01*
X183458593Y-132569329D01*
X183340371Y-132338379D01*
X183262468Y-132187118D01*
X183329247Y-132187118D01*
X183712213Y-132950512D01*
X183794654Y-132785879D01*
X183845210Y-132785879D01*
X183858187Y-132819299D01*
X183928386Y-132828862D01*
X184001493Y-132815475D01*
X184048808Y-132776310D01*
X184051894Y-132766741D01*
X184038917Y-132733322D01*
X183968718Y-132723758D01*
X183895611Y-132737146D01*
X183848296Y-132776310D01*
X183845210Y-132785879D01*
X183794654Y-132785879D01*
X183878943Y-132617555D01*
X183931035Y-132617555D01*
X183950768Y-132641189D01*
X184010422Y-132652743D01*
X184078873Y-132645197D01*
X184123877Y-132618408D01*
X184128209Y-132607481D01*
X184108143Y-132572428D01*
X184051240Y-132553477D01*
X183983586Y-132561255D01*
X183959032Y-132574892D01*
X183931035Y-132617555D01*
X183878943Y-132617555D01*
X183976689Y-132422356D01*
X184024854Y-132422356D01*
X184029118Y-132458645D01*
X184092011Y-132487727D01*
X184116857Y-132491423D01*
X184182018Y-132484313D01*
X184194066Y-132453070D01*
X184144526Y-132410206D01*
X184084965Y-132381237D01*
X184047673Y-132381378D01*
X184024854Y-132422356D01*
X183976689Y-132422356D01*
X184054618Y-132266732D01*
X184109298Y-132266732D01*
X184142256Y-132304713D01*
X184192820Y-132328747D01*
X184255173Y-132334773D01*
X184281380Y-132305705D01*
X184275350Y-132290210D01*
X184227375Y-132257825D01*
X184161283Y-132240211D01*
X184113340Y-132249499D01*
X184109298Y-132266732D01*
X184054618Y-132266732D01*
X184062843Y-132250307D01*
X184107724Y-132161320D01*
X184138212Y-132102282D01*
X184183036Y-132102282D01*
X184208518Y-132142325D01*
X184233029Y-132166114D01*
X184290115Y-132194501D01*
X184334672Y-132191329D01*
X184342865Y-132154448D01*
X184315347Y-132124308D01*
X184245277Y-132098532D01*
X184212226Y-132094518D01*
X184183036Y-132102282D01*
X184138212Y-132102282D01*
X184205650Y-131971692D01*
X184247049Y-131971692D01*
X184251595Y-132003530D01*
X184253150Y-132004875D01*
X184319190Y-132035372D01*
X184390269Y-132037567D01*
X184432401Y-132010205D01*
X184428796Y-131973031D01*
X184365645Y-131943790D01*
X184355453Y-131942189D01*
X184289354Y-131947219D01*
X184247049Y-131971692D01*
X184205650Y-131971692D01*
X184211409Y-131960540D01*
X184289749Y-131814064D01*
X184333240Y-131814064D01*
X184349413Y-131838408D01*
X184419450Y-131847896D01*
X184422468Y-131847883D01*
X184496131Y-131837277D01*
X184526621Y-131812862D01*
X184505947Y-131790084D01*
X184441102Y-131777827D01*
X184382224Y-131785742D01*
X184333931Y-131812862D01*
X184333240Y-131814064D01*
X184289749Y-131814064D01*
X184306702Y-131782366D01*
X184388021Y-131636890D01*
X184392808Y-131628931D01*
X184430058Y-131628931D01*
X184438347Y-131658071D01*
X184500345Y-131672724D01*
X184515471Y-131672463D01*
X184603038Y-131651091D01*
X184631724Y-131594489D01*
X184630995Y-131589576D01*
X184596517Y-131571903D01*
X184531771Y-131575946D01*
X184466403Y-131596643D01*
X184430058Y-131628931D01*
X184392808Y-131628931D01*
X184449785Y-131534206D01*
X184486412Y-131484406D01*
X184540873Y-131448292D01*
X184639163Y-131439579D01*
X184652328Y-131442049D01*
X184748490Y-131432280D01*
X184867790Y-131388410D01*
X184934978Y-131356859D01*
X185004454Y-131335119D01*
X185064756Y-131343356D01*
X185147957Y-131380685D01*
X185170921Y-131392894D01*
X185263323Y-131460578D01*
X185322862Y-131532586D01*
X185333427Y-131565928D01*
X185346194Y-131654006D01*
X185356164Y-131793375D01*
X185363560Y-131988722D01*
X185368602Y-132244735D01*
X185371511Y-132566103D01*
X185373298Y-132793664D01*
X185376659Y-133053085D01*
X185381121Y-133292753D01*
X185386402Y-133500090D01*
X185392223Y-133662516D01*
X185398303Y-133767453D01*
X185420000Y-134022871D01*
X185425339Y-134012176D01*
X185481010Y-134012176D01*
X185495027Y-134043445D01*
X185549655Y-134054575D01*
X185618731Y-134044474D01*
X185675752Y-134013027D01*
X185696089Y-133989726D01*
X185717793Y-133947383D01*
X185708263Y-133936592D01*
X185656626Y-133936453D01*
X185583581Y-133953918D01*
X185516065Y-133981616D01*
X185481010Y-134012176D01*
X185425339Y-134012176D01*
X185524637Y-133813255D01*
X185577655Y-133813255D01*
X185587816Y-133830367D01*
X185641028Y-133844862D01*
X185697641Y-133832942D01*
X185765452Y-133798761D01*
X185813895Y-133757573D01*
X185819764Y-133724948D01*
X185810814Y-133720379D01*
X185753562Y-133724410D01*
X185675727Y-133748488D01*
X185607146Y-133781730D01*
X185577655Y-133813255D01*
X185524637Y-133813255D01*
X185629568Y-133603048D01*
X185682759Y-133603048D01*
X185690693Y-133622107D01*
X185746514Y-133629276D01*
X185849173Y-133598529D01*
X185864845Y-133591069D01*
X185912560Y-133552364D01*
X185934292Y-133512713D01*
X185915711Y-133494517D01*
X185915028Y-133494521D01*
X185855694Y-133508261D01*
X185778411Y-133539684D01*
X185711370Y-133575657D01*
X185682759Y-133603048D01*
X185629568Y-133603048D01*
X185723585Y-133414705D01*
X185803634Y-133414705D01*
X185838820Y-133415782D01*
X185925403Y-133393714D01*
X185967856Y-133375533D01*
X186016018Y-133336883D01*
X186034755Y-133300471D01*
X186009747Y-133284789D01*
X185943751Y-133293911D01*
X185857181Y-133328434D01*
X185808903Y-133375349D01*
X185804298Y-133388030D01*
X185803634Y-133414705D01*
X185723585Y-133414705D01*
X185836773Y-133187959D01*
X185908586Y-133187959D01*
X185920341Y-133210177D01*
X185990413Y-133196068D01*
X186075828Y-133168117D01*
X186118685Y-133139831D01*
X186110767Y-133117931D01*
X186043859Y-133109138D01*
X185964001Y-133122227D01*
X185915331Y-133161689D01*
X185908586Y-133187959D01*
X185836773Y-133187959D01*
X185904553Y-133052177D01*
X185948924Y-132963289D01*
X186016833Y-132963289D01*
X186032030Y-132995023D01*
X186104272Y-133004034D01*
X186176994Y-132993235D01*
X186208276Y-132951483D01*
X186192066Y-132917890D01*
X186124438Y-132898931D01*
X186067323Y-132910647D01*
X186020434Y-132951483D01*
X186016833Y-132963289D01*
X185948924Y-132963289D01*
X186034523Y-132791811D01*
X186103173Y-132791811D01*
X186124990Y-132815004D01*
X186190759Y-132837437D01*
X186213986Y-132840249D01*
X186269985Y-132824316D01*
X186275512Y-132784858D01*
X186222632Y-132744910D01*
X186196840Y-132737757D01*
X186131186Y-132746562D01*
X186103173Y-132791811D01*
X186034523Y-132791811D01*
X186124556Y-132611450D01*
X186201467Y-132611450D01*
X186205243Y-132643815D01*
X186259877Y-132681916D01*
X186287465Y-132693841D01*
X186336053Y-132703686D01*
X186348414Y-132674204D01*
X186348368Y-132672058D01*
X186318243Y-132621515D01*
X186257149Y-132596132D01*
X186201467Y-132611450D01*
X186124556Y-132611450D01*
X186179699Y-132500983D01*
X186247645Y-132500983D01*
X186268473Y-132513552D01*
X186288758Y-132515260D01*
X186359522Y-132533457D01*
X186386645Y-132538694D01*
X186432965Y-132518462D01*
X186428084Y-132485470D01*
X186381069Y-132461183D01*
X186318328Y-132455255D01*
X186267811Y-132475037D01*
X186247645Y-132500983D01*
X186179699Y-132500983D01*
X186278385Y-132303287D01*
X186350675Y-132303287D01*
X186352086Y-132346774D01*
X186403831Y-132387183D01*
X186441754Y-132400999D01*
X186480825Y-132403456D01*
X186507510Y-132371083D01*
X186521607Y-132338504D01*
X186500942Y-132314083D01*
X186427242Y-132287819D01*
X186393534Y-132282460D01*
X186350675Y-132303287D01*
X186278385Y-132303287D01*
X186354752Y-132150302D01*
X186421445Y-132150302D01*
X186434560Y-132195910D01*
X186443560Y-132207492D01*
X186494909Y-132233276D01*
X186510443Y-132223929D01*
X186487849Y-132179877D01*
X186468227Y-132163207D01*
X186541104Y-132163207D01*
X186548284Y-132173806D01*
X186576138Y-132198241D01*
X186581206Y-132196593D01*
X186611173Y-132163207D01*
X186613979Y-132144651D01*
X186576138Y-132128172D01*
X186549423Y-132133526D01*
X186541104Y-132163207D01*
X186468227Y-132163207D01*
X186448633Y-132146560D01*
X186421445Y-132150302D01*
X186354752Y-132150302D01*
X186389105Y-132081483D01*
X186348208Y-132040586D01*
X186488552Y-132040586D01*
X186506069Y-132058103D01*
X186523586Y-132040586D01*
X186506069Y-132023069D01*
X186488552Y-132040586D01*
X186348208Y-132040586D01*
X184911993Y-130604371D01*
X184120620Y-131395745D01*
X183329247Y-132187118D01*
X183262468Y-132187118D01*
X183238420Y-132140425D01*
X183211832Y-132090137D01*
X183281042Y-132090137D01*
X183290002Y-132103888D01*
X183311337Y-132128172D01*
X183320649Y-132119839D01*
X183372398Y-132069657D01*
X183464276Y-131979173D01*
X183590377Y-131854242D01*
X183744795Y-131700722D01*
X183921624Y-131524469D01*
X184114957Y-131331339D01*
X184911791Y-130534505D01*
X185657988Y-131280097D01*
X185729811Y-131351622D01*
X185912134Y-131530956D01*
X186076560Y-131689537D01*
X186216832Y-131821535D01*
X186326694Y-131921118D01*
X186399888Y-131982455D01*
X186430158Y-131999716D01*
X186429980Y-131995495D01*
X186410175Y-131967477D01*
X186537359Y-131967477D01*
X186555362Y-131999716D01*
X186558621Y-132005552D01*
X186564645Y-132012635D01*
X186602894Y-132040586D01*
X186623614Y-132055727D01*
X186675403Y-132034747D01*
X186696601Y-132004603D01*
X186681841Y-131966979D01*
X186606883Y-131953000D01*
X186570460Y-131954038D01*
X186537359Y-131967477D01*
X186410175Y-131967477D01*
X186398990Y-131951653D01*
X186325747Y-131866876D01*
X186216148Y-131747501D01*
X186076088Y-131599866D01*
X185911464Y-131430308D01*
X185728171Y-131245165D01*
X185525289Y-131042834D01*
X185352222Y-130872440D01*
X185216561Y-130742334D01*
X185112432Y-130647386D01*
X185033961Y-130582467D01*
X184975272Y-130542447D01*
X184930491Y-130522196D01*
X184893743Y-130516586D01*
X184887687Y-130516738D01*
X184850806Y-130524403D01*
X184804933Y-130547271D01*
X184744382Y-130590352D01*
X184663466Y-130658657D01*
X184556498Y-130757198D01*
X184417789Y-130890985D01*
X184241654Y-131065030D01*
X184022405Y-131284344D01*
X183955242Y-131351978D01*
X183765862Y-131545228D01*
X183600284Y-131718000D01*
X183463760Y-131864586D01*
X183361544Y-131979277D01*
X183298887Y-132056364D01*
X183281042Y-132090137D01*
X183211832Y-132090137D01*
X183111119Y-131899649D01*
X182999866Y-131696834D01*
X182908225Y-131538286D01*
X182839760Y-131430306D01*
X182798034Y-131379200D01*
X182750706Y-131352590D01*
X182628038Y-131332246D01*
X182498168Y-131358663D01*
X182388454Y-131428546D01*
X182352710Y-131465890D01*
X182322818Y-131506427D01*
X182305334Y-131552111D01*
X182302374Y-131609326D01*
X182203499Y-131609326D01*
X182196828Y-131602655D01*
X182179311Y-131620172D01*
X182130366Y-131620172D01*
X182237213Y-131508387D01*
X182252309Y-131493911D01*
X182359214Y-131398637D01*
X182456085Y-131323256D01*
X182523575Y-131282996D01*
X182636605Y-131260798D01*
X182760419Y-131291248D01*
X182880427Y-131384038D01*
X182999723Y-131541675D01*
X183121404Y-131766661D01*
X183240187Y-132015432D01*
X183992856Y-131248492D01*
X184085512Y-131154105D01*
X184279337Y-130957225D01*
X184432789Y-130803073D01*
X184551980Y-130686425D01*
X184643018Y-130602056D01*
X184712014Y-130544743D01*
X184765077Y-130509260D01*
X184808317Y-130490383D01*
X184847844Y-130482889D01*
X184889767Y-130481552D01*
X184894855Y-130481560D01*
X184937372Y-130483507D01*
X184978242Y-130492563D01*
X185023851Y-130514043D01*
X185080586Y-130553266D01*
X185154833Y-130615548D01*
X185252980Y-130706207D01*
X185381413Y-130830560D01*
X185546520Y-130993924D01*
X185754687Y-131201616D01*
X186475364Y-131921680D01*
X186496908Y-131877682D01*
X186568479Y-131877682D01*
X186599850Y-131870136D01*
X186672496Y-131857836D01*
X186744762Y-131832082D01*
X186803251Y-131778970D01*
X186805620Y-131774513D01*
X186819694Y-131736743D01*
X186794812Y-131730560D01*
X186717343Y-131751623D01*
X186704113Y-131755931D01*
X186622114Y-131794634D01*
X186578930Y-131835738D01*
X186571575Y-131856503D01*
X186568479Y-131877682D01*
X186496908Y-131877682D01*
X186571393Y-131725563D01*
X186594443Y-131681169D01*
X186607583Y-131662980D01*
X186679496Y-131662980D01*
X186714682Y-131664058D01*
X186801265Y-131641989D01*
X186843718Y-131623809D01*
X186891880Y-131585159D01*
X186910617Y-131548747D01*
X186885609Y-131533064D01*
X186819613Y-131542186D01*
X186733043Y-131576710D01*
X186684765Y-131623625D01*
X186680160Y-131636306D01*
X186679496Y-131662980D01*
X186607583Y-131662980D01*
X186692393Y-131545586D01*
X186798448Y-131478662D01*
X186911842Y-131480947D01*
X186914118Y-131481617D01*
X186989645Y-131478857D01*
X187080647Y-131446805D01*
X187080932Y-131446658D01*
X187227403Y-131400165D01*
X187376282Y-131401198D01*
X187500457Y-131449579D01*
X187513052Y-131458667D01*
X187568599Y-131509209D01*
X187610659Y-131573480D01*
X187640932Y-131660857D01*
X187661123Y-131780716D01*
X187672932Y-131942436D01*
X187678061Y-132155393D01*
X187678212Y-132428965D01*
X187674276Y-133111587D01*
X187991878Y-133456058D01*
X188014360Y-133480410D01*
X188134982Y-133609924D01*
X188240312Y-133721226D01*
X188319692Y-133803142D01*
X188362464Y-133844503D01*
X188399497Y-133906803D01*
X188415448Y-133998646D01*
X188414339Y-134012815D01*
X188413053Y-134029236D01*
X188395940Y-134081251D01*
X188356229Y-134144470D01*
X188286776Y-134228058D01*
X188180438Y-134341180D01*
X188030069Y-134493000D01*
X187644690Y-134877184D01*
X187644690Y-136647620D01*
X187343079Y-136647620D01*
X187342504Y-136657357D01*
X187335327Y-136779000D01*
X187334355Y-136795472D01*
G37*
D13*
%TO.C,U2*%
X186945500Y-101854000D02*
X186945500Y-101054000D01*
X186945500Y-101854000D02*
X186945500Y-102654000D01*
X190065500Y-101854000D02*
X190065500Y-102654000D01*
X190065500Y-101854000D02*
X190065500Y-101054000D01*
D11*
X187564100Y-99542600D02*
G75*
G03*
X187564100Y-99542600I-100000J0D01*
G01*
%TD*%
M02*
