%TF.GenerationSoftware,KiCad,Pcbnew,(6.0.7)*%
%TF.CreationDate,2022-10-04T16:49:08-03:00*%
%TF.ProjectId,Placa_Desenvolvimento_NuttX,506c6163-615f-4446-9573-656e766f6c76,rev?*%
%TF.SameCoordinates,Original*%
%TF.FileFunction,Paste,Top*%
%TF.FilePolarity,Positive*%
%FSLAX46Y46*%
G04 Gerber Fmt 4.6, Leading zero omitted, Abs format (unit mm)*
G04 Created by KiCad (PCBNEW (6.0.7)) date 2022-10-04 16:49:08*
%MOMM*%
%LPD*%
G01*
G04 APERTURE LIST*
G04 Aperture macros list*
%AMRoundRect*
0 Rectangle with rounded corners*
0 $1 Rounding radius*
0 $2 $3 $4 $5 $6 $7 $8 $9 X,Y pos of 4 corners*
0 Add a 4 corners polygon primitive as box body*
4,1,4,$2,$3,$4,$5,$6,$7,$8,$9,$2,$3,0*
0 Add four circle primitives for the rounded corners*
1,1,$1+$1,$2,$3*
1,1,$1+$1,$4,$5*
1,1,$1+$1,$6,$7*
1,1,$1+$1,$8,$9*
0 Add four rect primitives between the rounded corners*
20,1,$1+$1,$2,$3,$4,$5,0*
20,1,$1+$1,$4,$5,$6,$7,0*
20,1,$1+$1,$6,$7,$8,$9,0*
20,1,$1+$1,$8,$9,$2,$3,0*%
G04 Aperture macros list end*
%ADD10RoundRect,0.250000X0.475000X-0.250000X0.475000X0.250000X-0.475000X0.250000X-0.475000X-0.250000X0*%
%ADD11RoundRect,0.250000X0.262500X0.450000X-0.262500X0.450000X-0.262500X-0.450000X0.262500X-0.450000X0*%
%ADD12RoundRect,0.250000X-0.450000X0.262500X-0.450000X-0.262500X0.450000X-0.262500X0.450000X0.262500X0*%
%ADD13R,1.750000X1.000000*%
%ADD14RoundRect,0.250000X0.450000X-0.262500X0.450000X0.262500X-0.450000X0.262500X-0.450000X-0.262500X0*%
%ADD15RoundRect,0.250000X-0.250000X-0.475000X0.250000X-0.475000X0.250000X0.475000X-0.250000X0.475000X0*%
%ADD16RoundRect,0.150000X0.825000X0.150000X-0.825000X0.150000X-0.825000X-0.150000X0.825000X-0.150000X0*%
%ADD17RoundRect,0.250000X0.250000X0.475000X-0.250000X0.475000X-0.250000X-0.475000X0.250000X-0.475000X0*%
%ADD18R,1.500000X2.000000*%
%ADD19R,3.800000X2.000000*%
%ADD20RoundRect,0.250000X-0.262500X-0.450000X0.262500X-0.450000X0.262500X0.450000X-0.262500X0.450000X0*%
%ADD21RoundRect,0.250000X-0.475000X0.250000X-0.475000X-0.250000X0.475000X-0.250000X0.475000X0.250000X0*%
%ADD22RoundRect,0.243750X-0.243750X-0.456250X0.243750X-0.456250X0.243750X0.456250X-0.243750X0.456250X0*%
%ADD23RoundRect,0.150000X-0.825000X-0.150000X0.825000X-0.150000X0.825000X0.150000X-0.825000X0.150000X0*%
%ADD24R,2.250000X0.500000*%
%ADD25R,2.500000X2.000000*%
%ADD26RoundRect,0.243750X0.243750X0.456250X-0.243750X0.456250X-0.243750X-0.456250X0.243750X-0.456250X0*%
%ADD27RoundRect,0.075000X-0.700000X-0.075000X0.700000X-0.075000X0.700000X0.075000X-0.700000X0.075000X0*%
%ADD28RoundRect,0.075000X-0.075000X-0.700000X0.075000X-0.700000X0.075000X0.700000X-0.075000X0.700000X0*%
%ADD29RoundRect,0.250000X-0.625000X0.375000X-0.625000X-0.375000X0.625000X-0.375000X0.625000X0.375000X0*%
%ADD30R,0.700000X1.600000*%
%ADD31R,1.200000X1.500000*%
%ADD32R,1.200000X2.200000*%
%ADD33R,1.600000X1.500000*%
G04 APERTURE END LIST*
D10*
%TO.C,C4*%
X157480000Y-107630000D03*
X157480000Y-105730000D03*
%TD*%
D11*
%TO.C,R15*%
X118788500Y-94996000D03*
X116963500Y-94996000D03*
%TD*%
D12*
%TO.C,R21*%
X149352000Y-133707500D03*
X149352000Y-135532500D03*
%TD*%
D13*
%TO.C,SW5*%
X196915000Y-80264000D03*
X189165000Y-80264000D03*
%TD*%
D14*
%TO.C,R20*%
X149352000Y-139088500D03*
X149352000Y-137263500D03*
%TD*%
D15*
%TO.C,C29*%
X145354000Y-73152000D03*
X147254000Y-73152000D03*
%TD*%
D12*
%TO.C,R9*%
X163068000Y-85447500D03*
X163068000Y-87272500D03*
%TD*%
D11*
%TO.C,R33*%
X136040500Y-140208000D03*
X134215500Y-140208000D03*
%TD*%
D16*
%TO.C,U6*%
X158431000Y-137033000D03*
X158431000Y-135763000D03*
X158431000Y-134493000D03*
X158431000Y-133223000D03*
X153481000Y-133223000D03*
X153481000Y-134493000D03*
X153481000Y-135763000D03*
X153481000Y-137033000D03*
%TD*%
D14*
%TO.C,R19*%
X185420000Y-75080500D03*
X185420000Y-73255500D03*
%TD*%
D17*
%TO.C,C2*%
X147254000Y-122936000D03*
X145354000Y-122936000D03*
%TD*%
D15*
%TO.C,C30*%
X141290000Y-71120000D03*
X143190000Y-71120000D03*
%TD*%
D11*
%TO.C,R11*%
X187348500Y-132588000D03*
X185523500Y-132588000D03*
%TD*%
D12*
%TO.C,R8*%
X160528000Y-85447500D03*
X160528000Y-87272500D03*
%TD*%
D17*
%TO.C,C25*%
X143115000Y-81788000D03*
X141215000Y-81788000D03*
%TD*%
D12*
%TO.C,R32*%
X122428000Y-132183500D03*
X122428000Y-134008500D03*
%TD*%
D17*
%TO.C,C12*%
X142301000Y-116967000D03*
X140401000Y-116967000D03*
%TD*%
D18*
%TO.C,U1*%
X194832000Y-120294000D03*
X192532000Y-120294000D03*
D19*
X192532000Y-126594000D03*
D18*
X190232000Y-120294000D03*
%TD*%
D17*
%TO.C,C15*%
X136078000Y-116332000D03*
X134178000Y-116332000D03*
%TD*%
D12*
%TO.C,R24*%
X121412000Y-76811500D03*
X121412000Y-78636500D03*
%TD*%
D17*
%TO.C,C13*%
X142301000Y-119126000D03*
X140401000Y-119126000D03*
%TD*%
D14*
%TO.C,R17*%
X185420000Y-87272500D03*
X185420000Y-85447500D03*
%TD*%
%TO.C,R34*%
X119888000Y-134008500D03*
X119888000Y-132183500D03*
%TD*%
D13*
%TO.C,SW4*%
X196915000Y-86360000D03*
X189165000Y-86360000D03*
%TD*%
D17*
%TO.C,C24*%
X155001000Y-131064000D03*
X153101000Y-131064000D03*
%TD*%
D11*
%TO.C,R13*%
X118768500Y-88900000D03*
X116943500Y-88900000D03*
%TD*%
D10*
%TO.C,C6*%
X193101000Y-115192000D03*
X193101000Y-113292000D03*
%TD*%
D15*
%TO.C,C26*%
X141290000Y-76708000D03*
X143190000Y-76708000D03*
%TD*%
D20*
%TO.C,R31*%
X135739500Y-85344000D03*
X137564500Y-85344000D03*
%TD*%
D10*
%TO.C,C18*%
X132588000Y-107630000D03*
X132588000Y-105730000D03*
%TD*%
D14*
%TO.C,R25*%
X162052000Y-139088500D03*
X162052000Y-137263500D03*
%TD*%
D11*
%TO.C,R3*%
X189380500Y-100650000D03*
X187555500Y-100650000D03*
%TD*%
%TO.C,R28*%
X137564500Y-81788000D03*
X135739500Y-81788000D03*
%TD*%
D15*
%TO.C,C9*%
X191582000Y-132588000D03*
X193482000Y-132588000D03*
%TD*%
D12*
%TO.C,R26*%
X162052000Y-133707500D03*
X162052000Y-135532500D03*
%TD*%
D13*
%TO.C,SW2*%
X140527000Y-89916000D03*
X132777000Y-89916000D03*
%TD*%
D12*
%TO.C,R7*%
X152908000Y-85447500D03*
X152908000Y-87272500D03*
%TD*%
D10*
%TO.C,C5*%
X147126000Y-104074000D03*
X147126000Y-102174000D03*
%TD*%
D14*
%TO.C,R41*%
X103124000Y-97940500D03*
X103124000Y-96115500D03*
%TD*%
D11*
%TO.C,R2*%
X189380500Y-103190000D03*
X187555500Y-103190000D03*
%TD*%
D21*
%TO.C,C16*%
X157988000Y-85410000D03*
X157988000Y-87310000D03*
%TD*%
D12*
%TO.C,R5*%
X165608000Y-85447500D03*
X165608000Y-87272500D03*
%TD*%
D22*
%TO.C,LD3*%
X112933000Y-91948000D03*
X114808000Y-91948000D03*
%TD*%
D15*
%TO.C,C28*%
X126558000Y-139192000D03*
X128458000Y-139192000D03*
%TD*%
D11*
%TO.C,R39*%
X128397000Y-131064000D03*
X126572000Y-131064000D03*
%TD*%
D12*
%TO.C,R6*%
X150368000Y-85447500D03*
X150368000Y-87272500D03*
%TD*%
D11*
%TO.C,R12*%
X118768500Y-85852000D03*
X116943500Y-85852000D03*
%TD*%
%TO.C,R14*%
X118768500Y-91948000D03*
X116943500Y-91948000D03*
%TD*%
D20*
%TO.C,R37*%
X140819500Y-66548000D03*
X142644500Y-66548000D03*
%TD*%
D15*
%TO.C,C11*%
X154498000Y-122936000D03*
X156398000Y-122936000D03*
%TD*%
D23*
%TO.C,U4*%
X140781000Y-133223000D03*
X140781000Y-134493000D03*
X140781000Y-135763000D03*
X140781000Y-137033000D03*
X145731000Y-137033000D03*
X145731000Y-135763000D03*
X145731000Y-134493000D03*
X145731000Y-133223000D03*
%TD*%
D10*
%TO.C,C1*%
X142240000Y-107609000D03*
X142240000Y-105709000D03*
%TD*%
D17*
%TO.C,C19*%
X144206000Y-131064000D03*
X142306000Y-131064000D03*
%TD*%
D20*
%TO.C,R27*%
X155170500Y-128143000D03*
X156995500Y-128143000D03*
%TD*%
D11*
%TO.C,R30*%
X143115000Y-79248000D03*
X141290000Y-79248000D03*
%TD*%
D10*
%TO.C,C17*%
X139700000Y-107630000D03*
X139700000Y-105730000D03*
%TD*%
D24*
%TO.C,CN1*%
X192755000Y-103200000D03*
X192755000Y-102400000D03*
X192755000Y-101600000D03*
X192755000Y-100800000D03*
X192755000Y-100000000D03*
D25*
X198330000Y-97150000D03*
X192880000Y-97150000D03*
X192880000Y-106050000D03*
X198330000Y-106050000D03*
%TD*%
D12*
%TO.C,R22*%
X121412000Y-66651500D03*
X121412000Y-68476500D03*
%TD*%
D15*
%TO.C,C8*%
X191582000Y-130048000D03*
X193482000Y-130048000D03*
%TD*%
D22*
%TO.C,LD2*%
X112854500Y-88900000D03*
X114729500Y-88900000D03*
%TD*%
D14*
%TO.C,R4*%
X149860000Y-100988500D03*
X149860000Y-99163500D03*
%TD*%
D13*
%TO.C,SW3*%
X196915000Y-92456000D03*
X189165000Y-92456000D03*
%TD*%
D10*
%TO.C,C22*%
X110744000Y-79690000D03*
X110744000Y-77790000D03*
%TD*%
%TO.C,C21*%
X124460000Y-68514000D03*
X124460000Y-66614000D03*
%TD*%
D23*
%TO.C,U5*%
X132145000Y-70358000D03*
X132145000Y-71628000D03*
X132145000Y-72898000D03*
X132145000Y-74168000D03*
X132145000Y-75438000D03*
X132145000Y-76708000D03*
X132145000Y-77978000D03*
X137095000Y-77978000D03*
X137095000Y-76708000D03*
X137095000Y-75438000D03*
X137095000Y-74168000D03*
X137095000Y-72898000D03*
X137095000Y-71628000D03*
X137095000Y-70358000D03*
%TD*%
D15*
%TO.C,C10*%
X134178000Y-118872000D03*
X136078000Y-118872000D03*
%TD*%
D11*
%TO.C,R1*%
X137564500Y-94996000D03*
X135739500Y-94996000D03*
%TD*%
D13*
%TO.C,SW6*%
X196915000Y-74168000D03*
X189165000Y-74168000D03*
%TD*%
D11*
%TO.C,R36*%
X143115000Y-73152000D03*
X141290000Y-73152000D03*
%TD*%
D14*
%TO.C,R16*%
X185420000Y-93368500D03*
X185420000Y-91543500D03*
%TD*%
D11*
%TO.C,R29*%
X143152500Y-84328000D03*
X141327500Y-84328000D03*
%TD*%
D17*
%TO.C,C14*%
X132522000Y-116332000D03*
X130622000Y-116332000D03*
%TD*%
D26*
%TO.C,LD5*%
X187398500Y-130048000D03*
X185523500Y-130048000D03*
%TD*%
D14*
%TO.C,R18*%
X185420000Y-81176500D03*
X185420000Y-79351500D03*
%TD*%
D11*
%TO.C,R35*%
X147179000Y-75184000D03*
X145354000Y-75184000D03*
%TD*%
D12*
%TO.C,R38*%
X119888000Y-136247500D03*
X119888000Y-138072500D03*
%TD*%
D27*
%TO.C,U3*%
X145201000Y-109534000D03*
X145201000Y-110034000D03*
X145201000Y-110534000D03*
X145201000Y-111034000D03*
X145201000Y-111534000D03*
X145201000Y-112034000D03*
X145201000Y-112534000D03*
X145201000Y-113034000D03*
X145201000Y-113534000D03*
X145201000Y-114034000D03*
X145201000Y-114534000D03*
X145201000Y-115034000D03*
X145201000Y-115534000D03*
X145201000Y-116034000D03*
X145201000Y-116534000D03*
X145201000Y-117034000D03*
D28*
X147126000Y-118959000D03*
X147626000Y-118959000D03*
X148126000Y-118959000D03*
X148626000Y-118959000D03*
X149126000Y-118959000D03*
X149626000Y-118959000D03*
X150126000Y-118959000D03*
X150626000Y-118959000D03*
X151126000Y-118959000D03*
X151626000Y-118959000D03*
X152126000Y-118959000D03*
X152626000Y-118959000D03*
X153126000Y-118959000D03*
X153626000Y-118959000D03*
X154126000Y-118959000D03*
X154626000Y-118959000D03*
D27*
X156551000Y-117034000D03*
X156551000Y-116534000D03*
X156551000Y-116034000D03*
X156551000Y-115534000D03*
X156551000Y-115034000D03*
X156551000Y-114534000D03*
X156551000Y-114034000D03*
X156551000Y-113534000D03*
X156551000Y-113034000D03*
X156551000Y-112534000D03*
X156551000Y-112034000D03*
X156551000Y-111534000D03*
X156551000Y-111034000D03*
X156551000Y-110534000D03*
X156551000Y-110034000D03*
X156551000Y-109534000D03*
D28*
X154626000Y-107609000D03*
X154126000Y-107609000D03*
X153626000Y-107609000D03*
X153126000Y-107609000D03*
X152626000Y-107609000D03*
X152126000Y-107609000D03*
X151626000Y-107609000D03*
X151126000Y-107609000D03*
X150626000Y-107609000D03*
X150126000Y-107609000D03*
X149626000Y-107609000D03*
X149126000Y-107609000D03*
X148626000Y-107609000D03*
X148126000Y-107609000D03*
X147626000Y-107609000D03*
X147126000Y-107609000D03*
%TD*%
D15*
%TO.C,C3*%
X158054000Y-118618000D03*
X159954000Y-118618000D03*
%TD*%
D22*
%TO.C,LD4*%
X112854500Y-94996000D03*
X114729500Y-94996000D03*
%TD*%
D10*
%TO.C,C20*%
X110744000Y-69530000D03*
X110744000Y-67630000D03*
%TD*%
D12*
%TO.C,R10*%
X155448000Y-85447500D03*
X155448000Y-87272500D03*
%TD*%
D17*
%TO.C,C27*%
X129474000Y-74168000D03*
X127574000Y-74168000D03*
%TD*%
D10*
%TO.C,C7*%
X190232000Y-115192000D03*
X190232000Y-113292000D03*
%TD*%
D16*
%TO.C,U7*%
X129983000Y-137033000D03*
X129983000Y-135763000D03*
X129983000Y-134493000D03*
X129983000Y-133223000D03*
X125033000Y-133223000D03*
X125033000Y-134493000D03*
X125033000Y-135763000D03*
X125033000Y-137033000D03*
%TD*%
D29*
%TO.C,F1*%
X197612000Y-112392000D03*
X197612000Y-115192000D03*
%TD*%
D30*
%TO.C,CN3*%
X155538000Y-81260000D03*
X156638000Y-81260000D03*
X157738000Y-81260000D03*
X158838000Y-81260000D03*
X159938000Y-81260000D03*
X161038000Y-81260000D03*
X162138000Y-81260000D03*
X163238000Y-81260000D03*
D31*
X165538000Y-80260000D03*
D32*
X165538000Y-70660000D03*
X149988000Y-70660000D03*
D33*
X150888000Y-80260000D03*
D30*
X164338000Y-81260000D03*
%TD*%
D13*
%TO.C,SW1*%
X147131000Y-99060000D03*
X139381000Y-99060000D03*
%TD*%
D22*
%TO.C,LD1*%
X112854500Y-85852000D03*
X114729500Y-85852000D03*
%TD*%
D12*
%TO.C,R40*%
X122428000Y-136247500D03*
X122428000Y-138072500D03*
%TD*%
D10*
%TO.C,C23*%
X124460000Y-78674000D03*
X124460000Y-76774000D03*
%TD*%
D11*
%TO.C,R23*%
X137564500Y-66548000D03*
X135739500Y-66548000D03*
%TD*%
M02*
