%TF.GenerationSoftware,KiCad,Pcbnew,(6.0.7)*%
%TF.CreationDate,2022-10-04T16:49:08-03:00*%
%TF.ProjectId,Placa_Desenvolvimento_NuttX,506c6163-615f-4446-9573-656e766f6c76,rev?*%
%TF.SameCoordinates,Original*%
%TF.FileFunction,Soldermask,Bot*%
%TF.FilePolarity,Negative*%
%FSLAX46Y46*%
G04 Gerber Fmt 4.6, Leading zero omitted, Abs format (unit mm)*
G04 Created by KiCad (PCBNEW (6.0.7)) date 2022-10-04 16:49:08*
%MOMM*%
%LPD*%
G01*
G04 APERTURE LIST*
G04 Aperture macros list*
%AMRoundRect*
0 Rectangle with rounded corners*
0 $1 Rounding radius*
0 $2 $3 $4 $5 $6 $7 $8 $9 X,Y pos of 4 corners*
0 Add a 4 corners polygon primitive as box body*
4,1,4,$2,$3,$4,$5,$6,$7,$8,$9,$2,$3,0*
0 Add four circle primitives for the rounded corners*
1,1,$1+$1,$2,$3*
1,1,$1+$1,$4,$5*
1,1,$1+$1,$6,$7*
1,1,$1+$1,$8,$9*
0 Add four rect primitives between the rounded corners*
20,1,$1+$1,$2,$3,$4,$5,0*
20,1,$1+$1,$4,$5,$6,$7,0*
20,1,$1+$1,$6,$7,$8,$9,0*
20,1,$1+$1,$8,$9,$2,$3,0*%
G04 Aperture macros list end*
%ADD10C,3.200000*%
%ADD11R,1.700000X1.700000*%
%ADD12O,1.700000X1.700000*%
%ADD13R,1.222000X1.222000*%
%ADD14C,1.222000*%
%ADD15C,2.451000*%
%ADD16C,1.067000*%
%ADD17C,1.500000*%
%ADD18C,1.000000*%
%ADD19RoundRect,0.150000X-0.150000X0.512500X-0.150000X-0.512500X0.150000X-0.512500X0.150000X0.512500X0*%
G04 APERTURE END LIST*
D10*
%TO.C,H3*%
X196332000Y-67240000D03*
%TD*%
D11*
%TO.C,CN7*%
X127508000Y-70363000D03*
D12*
X127508000Y-67823000D03*
%TD*%
%TO.C,CN2*%
X171445000Y-100833000D03*
X173985000Y-100833000D03*
X171445000Y-103373000D03*
X173985000Y-103373000D03*
X171445000Y-105913000D03*
X173985000Y-105913000D03*
X171445000Y-108453000D03*
X173985000Y-108453000D03*
X171445000Y-110993000D03*
X173985000Y-110993000D03*
X171445000Y-113533000D03*
X173985000Y-113533000D03*
X171445000Y-116073000D03*
X173985000Y-116073000D03*
X171445000Y-118613000D03*
X173985000Y-118613000D03*
X171445000Y-121153000D03*
X173985000Y-121153000D03*
X171445000Y-123693000D03*
X173985000Y-123693000D03*
X171445000Y-126233000D03*
X173985000Y-126233000D03*
X171445000Y-128773000D03*
X173985000Y-128773000D03*
%TD*%
D13*
%TO.C,VR1*%
X115824000Y-66040000D03*
D14*
X118364000Y-68580000D03*
X115824000Y-71120000D03*
%TD*%
D13*
%TO.C,VR2*%
X115824000Y-76200000D03*
D14*
X118364000Y-78740000D03*
X115824000Y-81280000D03*
%TD*%
D10*
%TO.C,H4*%
X196332000Y-139240000D03*
%TD*%
D15*
%TO.C,CN5*%
X175260000Y-85852000D03*
D16*
X170180000Y-84328000D03*
X175260000Y-83312000D03*
D15*
X175260000Y-80772000D03*
X172085000Y-80772000D03*
X172085000Y-85852000D03*
D16*
X170180000Y-82296000D03*
%TD*%
D11*
%TO.C,CN6*%
X176520000Y-90424000D03*
D12*
X173980000Y-90424000D03*
X171440000Y-90424000D03*
X168900000Y-90424000D03*
%TD*%
D11*
%TO.C,CN4*%
X114041000Y-100833000D03*
D12*
X116581000Y-100833000D03*
X114041000Y-103373000D03*
X116581000Y-103373000D03*
X114041000Y-105913000D03*
X116581000Y-105913000D03*
X114041000Y-108453000D03*
X116581000Y-108453000D03*
X114041000Y-110993000D03*
X116581000Y-110993000D03*
X114041000Y-113533000D03*
X116581000Y-113533000D03*
X114041000Y-116073000D03*
X116581000Y-116073000D03*
X114041000Y-118613000D03*
X116581000Y-118613000D03*
X114041000Y-121153000D03*
X116581000Y-121153000D03*
X114041000Y-123693000D03*
X116581000Y-123693000D03*
X114041000Y-126233000D03*
X116581000Y-126233000D03*
X114041000Y-128773000D03*
X116581000Y-128773000D03*
%TD*%
D17*
%TO.C,X1*%
X133186000Y-112034000D03*
X138066000Y-112034000D03*
%TD*%
D18*
%TO.C,X2*%
X136586000Y-107632000D03*
X134686000Y-107632000D03*
%TD*%
D11*
%TO.C,CN10*%
X114046000Y-133853000D03*
D12*
X114046000Y-136393000D03*
%TD*%
D11*
%TO.C,CN8*%
X127508000Y-80523000D03*
D12*
X127508000Y-77983000D03*
%TD*%
D18*
%TO.C,CN1*%
X195430000Y-99400000D03*
X195430000Y-103800000D03*
%TD*%
D10*
%TO.C,H1*%
X104332000Y-139240000D03*
%TD*%
D11*
%TO.C,CN12*%
X176276000Y-69088000D03*
D12*
X176276000Y-66548000D03*
%TD*%
D11*
%TO.C,CN9*%
X145796000Y-89149000D03*
D12*
X145796000Y-91689000D03*
%TD*%
D10*
%TO.C,H2*%
X104332000Y-67240000D03*
%TD*%
D11*
%TO.C,CN11*%
X145796000Y-66548000D03*
D12*
X145796000Y-69088000D03*
%TD*%
D18*
%TO.C,CN3*%
X154688000Y-70260000D03*
X162688000Y-70260000D03*
%TD*%
D19*
%TO.C,U2*%
X187555500Y-100716500D03*
X188505500Y-100716500D03*
X189455500Y-100716500D03*
X189455500Y-102991500D03*
X188505500Y-102991500D03*
X187555500Y-102991500D03*
%TD*%
M02*
